<?xml version="1.0" standalone="no"?><!DOCTYPE svg PUBLIC "-//W3C//DTD SVG 1.1//EN" "http://www.w3.org/Graphics/SVG/1.1/DTD/svg11.dtd"><svg height="1024" node-id="1" sillyvg="true" template-height="1024" template-width="1024" version="1.1" viewBox="0 0 1024 1024" width="1024" xmlns="http://www.w3.org/2000/svg" xmlns:xlink="http://www.w3.org/1999/xlink"><defs node-id="142"><linearGradient gradientUnits="objectBoundingBox" id="SVGID_1_" node-id="13" spreadMethod="pad" x1="-2639.6345" x2="-2639.0483" y1="-206.3166" y2="-206.3166"><stop offset="0" stop-color="#2b5acc"></stop><stop offset="1" stop-color="#152873"></stop></linearGradient><linearGradient gradientUnits="objectBoundingBox" id="SVGID_2_" node-id="18" spreadMethod="pad" x1="-2626.4543" x2="-2625.8682" y1="-207.9128" y2="-207.9128"><stop offset="0" stop-color="#ffaa21"></stop><stop offset="1" stop-color="#ff511d"></stop></linearGradient><linearGradient gradientUnits="objectBoundingBox" id="SVGID_3_" node-id="22" spreadMethod="pad" x1="-2616.748" x2="-2616.1804" y1="-226.6494" y2="-226.6494"><stop offset="0" stop-color="#ffaa21"></stop><stop offset="1" stop-color="#ff511d"></stop></linearGradient><linearGradient gradientUnits="objectBoundingBox" id="SVGID_4_" node-id="26" spreadMethod="pad" x1="-2639.121" x2="-2638.5535" y1="-227.8213" y2="-227.8213"><stop offset="0" stop-color="#ffffff"></stop><stop offset="1" stop-color="#f0e7df"></stop></linearGradient><linearGradient gradientUnits="objectBoundingBox" id="SVGID_5_" node-id="30" spreadMethod="pad" x1="-2628.8618" x2="-2628.276" y1="-199.1309" y2="-199.1309"><stop offset="0" stop-color="#ffaa21"></stop><stop offset="1" stop-color="#ff511d"></stop></linearGradient><linearGradient gradientUnits="objectBoundingBox" id="SVGID_6_" node-id="36" spreadMethod="pad" x1="-2636.1155" x2="-2635.5288" y1="-212.9696" y2="-212.9696"><stop offset="0" stop-color="#ffbc56"></stop><stop offset="1" stop-color="#ff5133"></stop></linearGradient><linearGradient gradientUnits="objectBoundingBox" id="SVGID_7_" node-id="40" spreadMethod="pad" x1="-2636.8904" x2="-2636.3042" y1="-203.5986" y2="-203.5986"><stop offset="0" stop-color="#ffffff"></stop><stop offset="1" stop-color="#f0e7df"></stop></linearGradient><linearGradient gradientUnits="objectBoundingBox" id="Arm-Right_1_" node-id="44" spreadMethod="pad" x1="-2639.8208" x2="-2639.253" y1="-201.3472" y2="-201.3472"><stop offset="0" stop-color="#ffbc56"></stop><stop offset="1" stop-color="#ff5133"></stop></linearGradient><linearGradient gradientUnits="objectBoundingBox" id="SVGID_8_" node-id="49" spreadMethod="pad" x1="-2639.9287" x2="-2639.361" y1="-201.6914" y2="-201.5778"><stop offset="0" stop-color="#ffbc56"></stop><stop offset="1" stop-color="#ff5133"></stop></linearGradient><linearGradient gradientUnits="objectBoundingBox" id="SVGID_9_" node-id="53" spreadMethod="pad" x1="-2635.7773" x2="-2635.191" y1="-220.4224" y2="-220.4224"><stop offset="0" stop-color="#ffffff"></stop><stop offset="1" stop-color="#f0e7df"></stop></linearGradient><linearGradient gradientUnits="objectBoundingBox" id="SVGID_10_" node-id="58" spreadMethod="pad" x1="-2639.5063" x2="-2638.92" y1="-185.9499" y2="-185.9499"><stop offset="0" stop-color="#f7e9dd"></stop><stop offset="1" stop-color="#e6c2a2"></stop></linearGradient><linearGradient gradientUnits="objectBoundingBox" id="SVGID_11_" node-id="62" spreadMethod="pad" x1="-2638.9622" x2="-2638.3762" y1="-185.6418" y2="-185.4148"><stop offset="0" stop-color="#f7e9dd"></stop><stop offset="1" stop-color="#e6c2a2"></stop></linearGradient><linearGradient gradientUnits="objectBoundingBox" id="SVGID_12_" node-id="66" spreadMethod="pad" x1="-2639.5063" x2="-2638.92" y1="-185.5773" y2="-185.5773"><stop offset="0" stop-color="#e6cbb0"></stop><stop offset="1" stop-color="#d3a77c"></stop></linearGradient><linearGradient gradientUnits="objectBoundingBox" id="SVGID_13_" node-id="70" spreadMethod="pad" x1="-2638.963" x2="-2638.3767" y1="-205.216" y2="-204.989"><stop offset="0" stop-color="#e6cbb0"></stop><stop offset="1" stop-color="#d3a77c"></stop></linearGradient><linearGradient gradientUnits="objectBoundingBox" id="SVGID_14_" node-id="74" spreadMethod="pad" x1="-2639.0059" x2="-2638.4192" y1="-265.0068" y2="-265.0068"><stop offset="0" stop-color="#ffffff"></stop><stop offset="1" stop-color="#f0e7df"></stop></linearGradient><linearGradient gradientUnits="objectBoundingBox" id="SVGID_15_" node-id="78" spreadMethod="pad" x1="-2643.236" x2="-2642.6497" y1="-203.1438" y2="-203.1438"><stop offset="0" stop-color="#b5977a"></stop><stop offset="1" stop-color="#b5a393"></stop></linearGradient><linearGradient gradientUnits="objectBoundingBox" id="SVGID_16_" node-id="82" spreadMethod="pad" x1="-2642.8137" x2="-2642.227" y1="-203.1438" y2="-203.1438"><stop offset="0" stop-color="#b5977a"></stop><stop offset="1" stop-color="#b5a393"></stop></linearGradient><linearGradient gradientUnits="objectBoundingBox" id="SVGID_17_" node-id="87" spreadMethod="pad" x1="-2638.7202" x2="-2638.1526" y1="-188.3571" y2="-188.3571"><stop offset="0" stop-color="#2b5acc"></stop><stop offset="1" stop-color="#152873"></stop></linearGradient><linearGradient gradientUnits="objectBoundingBox" id="SVGID_18_" node-id="91" spreadMethod="pad" x1="-2638.6392" x2="-2638.072" y1="-202.0822" y2="-202.0822"><stop offset="0" stop-color="#ffddd3"></stop><stop offset="0.54" stop-color="#ffbbaa"></stop><stop offset="1" stop-color="#ffae9a"></stop></linearGradient><linearGradient gradientUnits="objectBoundingBox" id="SVGID_19_" node-id="96" spreadMethod="pad" x1="-2611.0076" x2="-2610.44" y1="-193.4438" y2="-193.4438"><stop offset="0" stop-color="#f58b71"></stop><stop offset="1" stop-color="#fca289"></stop></linearGradient><linearGradient gradientUnits="objectBoundingBox" id="SVGID_20_" node-id="101" spreadMethod="pad" x1="-2639.0588" x2="-2638.473" y1="-210.3086" y2="-210.3086"><stop offset="0" stop-color="#ffffff"></stop><stop offset="1" stop-color="#f0e7df"></stop></linearGradient><linearGradient gradientUnits="objectBoundingBox" id="SVGID_21_" node-id="105" spreadMethod="pad" x1="-2638.49" x2="-2637.9036" y1="-211.307" y2="-211.307"><stop offset="0" stop-color="#ffddd3"></stop><stop offset="0.54" stop-color="#ffbbaa"></stop><stop offset="1" stop-color="#ffae9a"></stop></linearGradient><linearGradient gradientUnits="objectBoundingBox" id="SVGID_22_" node-id="111" spreadMethod="pad" x1="-2640.1174" x2="-2639.5503" y1="-185.4296" y2="-185.5432"><stop offset="0" stop-color="#2b5acc"></stop><stop offset="1" stop-color="#152873"></stop></linearGradient><linearGradient gradientUnits="objectBoundingBox" id="SVGID_23_" node-id="115" spreadMethod="pad" x1="-2642.122" x2="-2641.5354" y1="-371.2014" y2="-371.0502"><stop offset="0" stop-color="#ffffff"></stop><stop offset="1" stop-color="#f0e7df"></stop></linearGradient><linearGradient gradientUnits="objectBoundingBox" id="SVGID_24_" node-id="119" spreadMethod="pad" x1="-2645.5115" x2="-2644.9255" y1="-242.8046" y2="-242.7667"><stop offset="0" stop-color="#ffffff"></stop><stop offset="1" stop-color="#f0e7df"></stop></linearGradient><linearGradient gradientUnits="objectBoundingBox" id="Hand-Left_1_" node-id="123" spreadMethod="pad" x1="-2637.0889" x2="-2636.5022" y1="-208.9863" y2="-208.9673"><stop offset="0" stop-color="#ffddd3"></stop><stop offset="0.54" stop-color="#ffbbaa"></stop><stop offset="1" stop-color="#ffae9a"></stop></linearGradient><linearGradient gradientUnits="objectBoundingBox" id="SVGID_25_" node-id="129" spreadMethod="pad" x1="-2639.2869" x2="-2638.7004" y1="-201.1994" y2="-201.2372"><stop offset="0" stop-color="#ffbc56"></stop><stop offset="1" stop-color="#ff5133"></stop></linearGradient><linearGradient gradientUnits="objectBoundingBox" id="SVGID_26_" node-id="133" spreadMethod="pad" x1="-2639.5" x2="-2638.9321" y1="-200.755" y2="-200.755"><stop offset="0" stop-color="#ffbc56"></stop><stop offset="1" stop-color="#ff5133"></stop></linearGradient><linearGradient gradientUnits="objectBoundingBox" id="SVGID_27_" node-id="137" spreadMethod="pad" x1="-2637.2825" x2="-2636.696" y1="-134.93" y2="-134.6841"><stop offset="0" stop-color="#e1f2ff"></stop><stop offset="1" stop-color="#95d2ff"></stop></linearGradient></defs><g node-id="413"><g node-id="414"><g node-id="415"><path d="M 100.80 879.20 L 926.70 879.20 L 930.10 875.30 L 938.90 863.90 L 944.50 856.00 L 955.80 838.20 L 965.50 820.60 L 974.90 800.80 L 979.60 789.50 L 983.80 778.00 L 987.90 765.80 L 991.70 752.70 L 996.30 732.50 L 999.90 710.70 L 1001.20 699.60 L 1002.10 688.10 L 1002.50 676.20 L 1002.50 663.80 L 1002.10 651.70 L 1001.20 639.10 L 999.70 626.10 L 997.60 612.70 L 995.30 600.90 L 992.30 588.50 L 988.70 575.40 L 984.40 561.70 L 979.80 548.40 L 974.50 534.70 L 968.60 520.50 L 962.10 506.00 L 955.20 491.80 L 947.80 477.40 L 939.80 462.70 L 931.20 447.90 L 922.30 433.40 L 912.90 418.90 L 902.90 404.40 L 892.50 389.90 L 881.70 375.70 L 870.40 361.70 L 858.70 347.90 L 846.50 334.20 L 834.00 321.00 L 821.10 308.10 L 807.80 295.60 L 794.00 283.40 L 779.90 271.70 L 765.50 260.50 L 750.70 249.80 L 735.60 239.70 L 723.20 232.00 L 710.70 224.70 L 698.00 217.90 L 685.00 211.50 L 671.90 205.60 L 658.60 200.10 L 645.10 195.10 L 631.40 190.70 L 617.60 186.70 L 603.60 183.30 L 589.50 180.50 L 575.20 178.30 L 560.80 176.70 L 546.10 175.80 L 531.30 175.40 L 519.70 175.60 L 508.80 176.20 L 498.70 177.20 L 489.30 178.50 L 480.50 180.10 L 471.50 182.10 L 463.00 184.50 L 455.20 187.10 L 447.90 190.00 L 441.10 193.10 L 434.30 196.70 L 427.90 200.60 L 422.00 204.60 L 416.50 208.90 L 411.40 213.30 L 405.20 219.40 L 399.60 225.70 L 394.50 232.40 L 389.80 239.30 L 385.50 246.50 L 381.60 254.00 L 378.00 261.70 L 374.80 269.70 L 371.00 280.60 L 367.60 291.80 L 364.80 303.30 L 360.00 326.70 L 355.50 356.60 L 348.60 409.50 L 346.80 420.90 L 342.50 442.30 L 339.90 452.70 L 336.90 462.40 L 333.50 471.60 L 330.50 478.30 L 327.30 484.60 L 323.70 490.50 L 319.90 496.10 L 315.60 501.30 L 310.90 506.10 L 305.70 510.40 L 300.10 514.40 L 286.40 522.80 L 258.50 538.80 L 237.20 550.20 L 153.20 593.50 L 133.80 604.20 L 121.00 611.70 L 108.90 619.20 L 97.50 626.80 L 89.10 632.80 L 73.60 645.20 L 66.50 651.50 L 59.70 658.20 L 53.40 665.00 L 47.70 672.00 L 42.50 679.20 L 38.60 685.20 L 35.10 691.30 L 32.00 697.70 L 29.20 704.20 L 26.90 710.90 L 24.90 717.70 L 23.40 724.80 L 22.20 732.10 L 21.60 739.70 L 21.30 747.70 L 21.60 757.30 L 22.20 766.20 L 23.30 774.60 L 24.70 782.40 L 26.60 790.30 L 31.10 804.50 L 33.70 810.90 L 37.70 819.30 L 42.00 826.90 L 46.50 833.80 L 51.30 840.40 L 56.20 846.20 L 66.20 856.30 L 75.60 864.30 L 82.60 869.20 L 88.40 872.90 L 93.80 875.90 L 100.80 879.20 Z M 271.30 257.60 L 274.40 260.80 L 277.30 264.50 L 279.80 268.70 L 282.00 273.60 L 283.70 278.50 L 285.10 283.90 L 286.10 289.80 L 286.80 296.20 L 286.80 309.30 L 285.20 323.90 L 283.80 331.20 L 279.60 346.50 L 276.80 354.60 L 270.10 370.50 L 266.00 378.60 L 261.30 386.80 L 256.40 394.80 L 250.90 402.70 L 244.90 410.60 L 238.30 418.60 L 229.10 428.80 L 212.20 445.80 L 197.60 458.60 L 190.00 464.70 L 174.40 475.60 L 166.40 480.50 L 158.30 484.80 L 150.40 488.60 L 138.20 493.10 L 126.30 495.90 L 120.20 496.70 L 114.40 496.90 L 108.60 496.70 L 102.80 495.90 L 97.30 494.70 L 91.70 492.80 L 86.30 490.30 L 80.90 487.20 L 76.80 484.30 L 73.20 481.10 L 70.00 477.80 L 67.20 474.20 L 64.80 470.40 L 62.30 465.40 L 60.30 460.10 L 58.80 454.40 L 57.80 448.40 L 57.30 442.40 L 57.30 436.10 L 57.80 429.50 L 58.70 422.60 L 61.80 409.00 L 64.00 401.90 L 66.70 394.60 L 70.60 385.10 L 75.20 375.50 L 80.50 365.70 L 86.20 356.20 L 92.50 346.80 L 99.20 337.60 L 106.40 328.60 L 113.90 319.90 L 121.80 311.60 L 129.50 304.10 L 137.20 297.20 L 152.30 285.10 L 160.10 279.60 L 175.30 270.20 L 182.60 266.30 L 197.40 259.50 L 204.40 256.90 L 218.10 252.80 L 230.70 250.30 L 242.30 249.40 L 247.70 249.50 L 257.00 250.80 L 261.40 252.10 L 265.20 253.60 L 268.50 255.50 L 271.30 257.60 Z" fill="#cde6ff" fill-rule="evenodd" group-id="1,2,3" node-id="329" stroke="none" target-height="703.80005" target-width="981.2" target-x="21.3" target-y="175.4"></path><path d="M 865.60 355.70 L 886.40 381.70 L 905.60 408.00 L 923.40 435.00 L 931.60 448.40 L 946.90 475.40 L 960.30 502.00 L 972.00 528.30 L 977.20 541.20 L 985.90 565.90 L 989.70 578.40 L 992.90 590.40 L 995.60 601.80 L 997.70 612.70 L 999.60 624.80 L 1001.00 636.90 L 1002.00 648.90 L 1002.50 661.00 L 1002.60 673.20 L 1002.20 685.30 L 1001.40 697.30 L 1000.20 709.40 L 998.40 721.30 L 996.30 733.30 L 993.70 745.10 L 990.60 756.80 L 987.10 768.50 L 983.20 780.00 L 978.80 791.40 L 27.00 791.40 L 24.90 782.70 L 23.30 774.00 L 22.20 765.30 L 21.50 756.50 L 21.30 747.70 L 21.60 739.70 L 22.20 732.10 L 23.40 724.80 L 24.90 717.70 L 26.90 710.90 L 29.20 704.20 L 32.00 697.70 L 35.10 691.30 L 38.60 685.20 L 42.40 679.20 L 47.70 672.00 L 53.40 665.00 L 59.70 658.20 L 66.50 651.50 L 73.60 645.20 L 89.00 632.80 L 108.90 619.20 L 121.00 611.70 L 133.70 604.20 L 153.20 593.40 L 237.10 550.10 L 272.50 530.80 L 300.00 514.30 L 305.20 510.70 L 310.00 506.70 L 314.40 502.40 L 318.40 497.70 L 322.10 492.80 L 325.50 487.50 L 328.70 481.80 L 331.50 475.80 L 334.90 467.60 L 337.90 458.90 L 340.60 449.60 L 344.90 430.40 L 346.80 420.20 L 349.10 404.70 L 355.50 355.70 L 865.60 355.70 Z M 276.50 355.70 L 273.00 364.30 L 269.10 372.60 L 264.80 380.80 L 260.20 388.80 L 255.30 396.60 L 250.00 404.10 L 244.40 411.40 L 238.40 418.50 L 229.20 428.70 L 219.20 439.00 L 205.10 452.20 L 190.10 464.60 L 182.30 470.20 L 174.50 475.50 L 166.50 480.40 L 158.40 484.70 L 150.50 488.50 L 138.30 493.00 L 126.40 495.80 L 120.30 496.60 L 114.50 496.80 L 108.70 496.60 L 102.90 495.80 L 97.40 494.60 L 91.80 492.70 L 86.40 490.20 L 81.00 487.10 L 76.70 483.90 L 72.80 480.50 L 69.50 476.90 L 66.60 473.10 L 64.10 468.90 L 62.10 464.60 L 60.40 460.00 L 59.10 455.20 L 58.10 450.20 L 57.50 444.90 L 57.40 438.30 L 57.70 431.50 L 58.50 424.30 L 60.00 416.80 L 61.80 409.50 L 66.80 394.40 L 70.10 386.50 L 74.90 376.30 L 80.50 366.00 L 86.70 355.70 L 276.50 355.70 Z" fill="#b1d9ff" fill-rule="evenodd" group-id="1,2,3" node-id="331" stroke="none" target-height="435.7" target-width="981.3" target-x="21.3" target-y="355.7"></path><path d="M 642.20 520.90 L 643.60 516.20 L 646.40 512.30 L 650.20 509.40 L 652.30 508.50 L 657.20 507.70 L 882.10 507.70 L 884.90 508.00 L 887.40 508.70 L 889.70 509.80 L 891.90 511.30 L 893.70 513.10 L 895.20 515.20 L 896.30 517.50 L 896.90 520.10 L 897.20 522.80 L 897.20 861.80 L 896.90 864.60 L 896.20 867.20 L 895.10 869.70 L 893.50 871.90 L 891.60 873.70 L 889.40 875.30 L 887.00 876.50 L 884.40 877.20 L 881.50 877.50 L 599.80 877.50 L 642.20 520.90 Z" fill="#9fcfff" fill-rule="evenodd" group-id="1,2,3" node-id="333" stroke="none" target-height="369.8" target-width="297.40002" target-x="599.8" target-y="507.7"></path><path d="M 172.20 791.40 L 27.00 791.40 L 24.90 782.70 L 23.30 774.00 L 22.20 765.30 L 21.50 756.50 L 21.30 747.70 L 21.60 739.00 L 22.40 730.80 L 23.70 722.80 L 25.50 715.30 L 27.80 708.00 L 30.60 700.80 L 33.80 693.80 L 37.50 687.10 L 41.50 680.50 L 46.10 674.10 L 52.20 666.50 L 58.80 659.10 L 66.10 651.90 L 74.00 644.80 L 172.20 644.80 L 172.20 791.40 Z" fill="#9fcfff" fill-rule="evenodd" group-id="1,2,3" node-id="335" stroke="none" target-height="146.60004" target-width="150.9" target-x="21.3" target-y="644.8"></path><path d="M 172.20 618.70 L 109.80 618.70 L 124.40 609.70 L 139.90 600.80 L 172.20 583.50 L 172.20 618.70 Z M 60.10 415.70 L 172.10 415.70 L 172.10 477.10 L 164.20 481.80 L 156.40 485.80 L 148.60 489.30 L 136.70 493.50 L 125.10 496.10 L 119.30 496.70 L 113.50 496.90 L 107.90 496.60 L 102.30 495.80 L 96.90 494.60 L 91.50 492.70 L 86.20 490.30 L 80.90 487.20 L 76.50 484.00 L 72.60 480.50 L 69.30 476.80 L 66.40 472.90 L 63.90 468.70 L 61.90 464.30 L 60.20 459.70 L 58.90 454.80 L 58.00 449.70 L 57.40 444.30 L 57.30 437.60 L 57.70 430.60 L 58.60 423.30 L 60.10 415.70 Z" fill="#9fcfff" fill-rule="evenodd" group-id="1,2,3" node-id="337" stroke="none" target-height="203" target-width="114.899994" target-x="57.3" target-y="415.7"></path><path d="M 978.80 791.40 L 969.50 812.60 L 964.80 821.80 L 957.50 835.20 L 950.80 846.30 L 944.10 856.50 L 933.40 871.10 L 926.70 879.20 L 100.80 879.20 L 94.30 876.20 L 89.30 873.40 L 77.40 865.60 L 68.50 858.40 L 63.60 853.90 L 54.30 843.90 L 49.50 837.90 L 45.10 831.70 L 40.90 824.80 L 36.80 817.20 L 33.20 809.40 L 29.90 800.80 L 27.00 791.40 L 978.80 791.40 Z" fill="url(#SVGID_1_)" fill-rule="evenodd" group-id="1,2,3" node-id="339" stroke="none" target-height="87.79999" target-width="951.8" target-x="27" target-y="791.4"></path></g><g node-id="416"><path d="M 81.80 681.90 L 87.00 681.60 L 92.00 681.80 L 96.90 682.40 L 101.60 683.60 L 106.30 685.20 L 110.60 687.20 L 114.80 689.60 L 118.70 692.40 L 122.40 695.60 L 125.60 699.10 L 128.60 702.90 L 131.20 707.00 L 133.40 711.40 L 135.20 716.00 L 136.50 720.80 L 137.40 726.00 L 137.70 731.70 L 137.40 737.60 L 132.20 737.90 L 127.20 737.70 L 122.30 737.10 L 117.60 735.90 L 112.90 734.30 L 108.60 732.30 L 104.40 729.90 L 100.50 727.10 L 96.80 723.90 L 93.60 720.40 L 90.60 716.60 L 88.00 712.50 L 85.80 708.10 L 84.00 703.50 L 82.70 698.70 L 81.80 693.50 L 81.50 689.60 L 81.80 681.90 Z" fill="url(#SVGID_2_)" fill-rule="evenodd" group-id="1,2,4" node-id="343" stroke="none" target-height="56.30005" target-width="56.199997" target-x="81.5" target-y="681.6"></path><path d="M 190.00 681.90 L 184.80 681.60 L 179.80 681.80 L 174.90 682.40 L 170.20 683.60 L 165.50 685.20 L 161.20 687.20 L 157.00 689.60 L 153.10 692.40 L 149.40 695.60 L 146.20 699.10 L 143.20 702.90 L 140.60 707.00 L 138.40 711.40 L 136.60 716.00 L 135.30 720.80 L 134.40 726.00 L 134.10 731.70 L 134.40 737.60 L 139.60 737.90 L 144.60 737.70 L 149.50 737.10 L 154.20 735.90 L 158.90 734.30 L 163.20 732.30 L 167.40 729.90 L 171.30 727.10 L 175.00 723.90 L 178.20 720.40 L 181.20 716.60 L 183.80 712.40 L 186.00 708.10 L 187.80 703.50 L 189.10 698.60 L 190.00 693.50 L 190.30 689.60 L 190.00 681.90 Z" fill="url(#SVGID_3_)" fill-rule="evenodd" group-id="1,2,4" node-id="345" stroke="none" target-height="56.30005" target-width="56.199997" target-x="134.1" target-y="681.6"></path><path d="M 194.90 748.20 L 194.10 743.90 L 193.20 742.00 L 190.50 738.70 L 186.90 736.60 L 182.50 735.80 L 89.20 735.80 L 87.00 736.00 L 83.00 737.50 L 79.70 740.20 L 77.60 743.80 L 76.80 748.10 L 76.80 807.30 L 194.90 807.30 L 194.90 748.20 Z" fill="url(#SVGID_4_)" fill-rule="evenodd" group-id="1,2,4" node-id="347" stroke="none" target-height="71.5" target-width="118.09999" target-x="76.8" target-y="735.8"></path><path d="M 194.90 807.30 L 76.90 807.30 L 77.10 823.40 L 77.70 826.40 L 80.00 831.90 L 83.70 836.60 L 88.30 840.30 L 93.80 842.60 L 100.00 843.50 L 171.80 843.50 L 175.00 843.30 L 178.00 842.70 L 180.80 841.70 L 183.50 840.30 L 188.20 836.70 L 191.80 832.00 L 193.20 829.30 L 194.20 826.50 L 194.80 823.50 L 194.90 807.30 Z" fill="url(#SVGID_5_)" fill-rule="evenodd" group-id="1,2,4" node-id="349" stroke="none" target-height="36.200012" target-width="117.99999" target-x="76.9" target-y="807.3"></path></g><g node-id="417"><g node-id="419"><path d="M 290.70 500.00 L 420.00 420.10 L 478.90 522.10 L 347.30 598.10 L 290.70 500.00 Z" fill="url(#SVGID_6_)" fill-rule="evenodd" group-id="1,2,5,7" node-id="354" stroke="none" target-height="177.99997" target-width="188.19998" target-x="290.7" target-y="420.1"></path><path d="M 228.90 541.20 L 303.20 449.30 L 337.30 493.80 L 327.50 563.50 L 347.50 598.20 L 300.10 625.60 L 296.00 627.80 L 287.80 631.10 L 283.50 632.30 L 277.80 633.20 L 272.00 633.60 L 266.30 633.30 L 260.60 632.50 L 255.10 631.20 L 249.70 629.20 L 244.60 626.70 L 239.70 623.70 L 235.00 620.20 L 228.80 613.90 L 223.50 606.50 L 220.80 601.50 L 218.70 596.40 L 217.20 591.10 L 216.10 585.70 L 215.60 580.30 L 215.60 574.90 L 216.20 569.40 L 217.20 564.10 L 218.80 558.90 L 220.90 553.80 L 223.50 548.90 L 228.90 541.20 Z" fill="url(#SVGID_7_)" fill-rule="evenodd" group-id="1,2,5,7" node-id="356" stroke="none" target-height="184.29999" target-width="131.9" target-x="215.6" target-y="449.3"></path></g><path d="M 734.10 642.50 L 663.10 508.20 L 728.30 424.70 L 734.60 427.10 L 740.50 429.90 L 746.10 433.30 L 751.50 437.10 L 756.40 441.40 L 760.90 446.10 L 765.00 451.20 L 768.70 456.60 L 771.90 462.50 L 835.80 592.70 L 734.10 642.50 Z" fill="url(#Arm-Right_1_)" fill-rule="evenodd" group-id="1,2,5" id="Arm-Right" node-id="47" stroke="none" target-height="217.79999" target-width="172.70001" target-x="663.1" target-y="424.7"></path><g node-id="420"><path d="M 414.20 459.10 L 414.40 454.50 L 415.80 445.90 L 417.10 441.70 L 420.70 433.90 L 425.40 426.80 L 431.30 420.60 L 438.30 415.40 L 442.00 413.30 L 450.20 410.00 L 454.60 408.80 L 537.60 391.20 L 625.40 391.20 L 728.30 424.60 L 728.30 791.50 L 416.70 791.50 L 414.20 459.10 Z" fill="url(#SVGID_8_)" fill-rule="evenodd" group-id="1,2,5,8" node-id="361" stroke="none" target-height="400.3" target-width="314.09998" target-x="414.2" target-y="391.2"></path><path d="M 519.60 394.90 L 537.60 391.10 L 625.40 391.10 L 652.20 399.80 L 644.50 408.30 L 635.50 416.00 L 628.90 420.50 L 622.00 424.60 L 614.70 428.30 L 607.30 431.50 L 599.70 434.20 L 592.10 436.40 L 584.30 438.10 L 576.80 439.30 L 569.40 440.00 L 562.00 440.20 L 555.20 439.80 L 548.80 438.90 L 544.00 437.80 L 539.70 436.40 L 535.70 434.70 L 532.10 432.80 L 528.80 430.40 L 525.90 427.70 L 523.50 424.70 L 521.50 421.30 L 520.00 417.70 L 519.10 413.70 L 518.60 409.20 L 519.60 394.90 Z" fill="url(#SVGID_9_)" fill-rule="evenodd" group-id="1,2,5,8" node-id="363" stroke="none" target-height="49.100006" target-width="133.60004" target-x="518.6" target-y="391.1"></path></g><g node-id="421"><path d="M 258.70 641.50 L 451.40 641.50 L 451.40 843.40 L 258.70 843.40 Z" fill="url(#SVGID_10_)" fill-rule="nonzero" group-id="1,2,5,9" node-id="367" stroke="none" target-height="201.90002" target-width="192.69998" target-x="258.7" target-y="641.5"></path><path d="M 451.40 641.50 L 258.70 641.50 L 204.60 742.50 L 397.30 742.50 L 451.40 641.50 Z" fill="url(#SVGID_11_)" fill-rule="evenodd" group-id="1,2,5,9" node-id="369" stroke="none" target-height="101" target-width="246.79999" target-x="204.6" target-y="641.5"></path><path d="M 451.40 641.50 L 626.60 641.50 L 626.60 843.40 L 451.40 843.40 Z" fill="url(#SVGID_12_)" fill-rule="nonzero" group-id="1,2,5,9" node-id="371" stroke="none" target-height="201.90002" target-width="175.19998" target-x="451.4" target-y="641.5"></path><path d="M 451.40 641.50 L 644.10 641.50 L 698.20 742.50 L 505.50 742.50 L 451.40 641.50 Z" fill="url(#SVGID_13_)" fill-rule="evenodd" group-id="1,2,5,9" node-id="373" stroke="none" target-height="101" target-width="246.80002" target-x="451.4" target-y="641.5"></path><path d="M 430.20 777.50 L 430.00 776.20 L 428.80 774.00 L 426.60 772.70 L 425.20 772.50 L 385.50 772.50 L 384.20 772.70 L 382.00 774.00 L 380.70 776.10 L 380.50 777.50 L 380.50 817.20 L 380.70 818.50 L 381.90 820.70 L 384.10 822.00 L 385.40 822.20 L 425.10 822.20 L 426.40 822.00 L 428.60 820.80 L 429.90 818.60 L 430.10 817.20 L 430.10 777.50 Z" fill="url(#SVGID_14_)" fill-rule="evenodd" group-id="1,2,5,9" node-id="375" stroke="none" target-height="49.700012" target-width="49.700012" target-x="380.5" target-y="772.5"></path><path d="M 421.00 788.10 L 420.70 787.40 L 420.00 787.10 L 390.70 787.10 L 390.00 787.40 L 389.70 788.10 L 389.70 792.90 L 390.00 793.60 L 390.70 793.90 L 420.00 793.90 L 420.70 793.60 L 421.00 792.90 L 421.00 788.10 Z" fill="url(#SVGID_15_)" fill-rule="evenodd" group-id="1,2,5,9" node-id="377" stroke="none" target-height="6.800049" target-width="31.299988" target-x="389.7" target-y="787.1"></path><path d="M 421.00 801.80 L 420.70 801.10 L 420.00 800.80 L 390.70 800.80 L 390.00 801.10 L 389.70 801.80 L 389.70 806.60 L 390.00 807.30 L 390.70 807.60 L 420.00 807.60 L 420.70 807.30 L 421.00 806.60 L 421.00 801.80 Z" fill="url(#SVGID_16_)" fill-rule="evenodd" group-id="1,2,5,9" node-id="379" stroke="none" target-height="6.799988" target-width="31.299988" target-x="389.7" target-y="800.8"></path></g><g node-id="422"><path d="M 504.10 280.10 L 495.50 272.70 L 487.10 264.80 L 478.10 255.40 L 469.90 245.30 L 465.60 238.50 L 462.90 232.10 L 462.40 229.20 L 462.30 226.60 L 462.60 225.60 L 464.10 223.60 L 465.80 222.10 L 476.80 215.40 L 478.10 214.10 L 478.60 213.00 L 478.50 212.20 L 476.90 209.80 L 475.10 207.90 L 461.70 195.80 L 459.70 193.40 L 458.70 191.30 L 458.40 190.00 L 458.60 188.80 L 459.40 187.70 L 467.40 181.00 L 478.00 173.70 L 484.00 170.10 L 497.40 163.00 L 504.60 159.70 L 519.90 153.70 L 535.90 149.00 L 544.10 147.20 L 552.30 145.90 L 560.60 145.00 L 568.80 144.80 L 576.90 145.10 L 584.90 146.10 L 590.90 147.20 L 596.60 148.90 L 602.30 150.90 L 607.80 153.40 L 613.00 156.30 L 618.10 159.70 L 623.00 163.70 L 627.80 168.30 L 632.10 173.20 L 636.10 178.70 L 640.00 185.00 L 643.70 192.10 L 646.70 193.10 L 649.50 194.60 L 652.10 196.40 L 654.40 198.60 L 657.10 202.00 L 659.50 205.90 L 661.60 210.50 L 663.10 215.30 L 664.40 220.50 L 665.80 231.80 L 665.70 243.70 L 664.30 255.70 L 661.40 267.40 L 657.40 278.10 L 654.80 283.00 L 652.00 287.50 L 649.00 291.40 L 646.40 294.10 L 643.70 296.40 L 637.90 299.90 L 504.10 280.10 Z" fill="url(#SVGID_17_)" fill-rule="evenodd" group-id="1,2,5,10" node-id="383" stroke="none" target-height="155.09999" target-width="207.4" target-x="458.4" target-y="144.8"></path><path d="M 633.00 324.50 L 626.70 397.60 L 622.50 401.40 L 617.90 404.80 L 612.80 408.00 L 607.50 410.90 L 596.30 415.50 L 590.40 417.20 L 578.80 419.60 L 567.50 420.50 L 562.30 420.40 L 557.10 419.80 L 552.60 418.80 L 548.60 417.40 L 545.70 416.00 L 543.30 414.40 L 541.20 412.60 L 539.50 410.50 L 538.20 408.20 L 537.40 405.70 L 536.90 402.80 L 537.00 399.50 L 539.30 373.80 L 534.70 373.70 L 530.30 373.20 L 526.10 372.30 L 522.00 371.00 L 518.00 369.20 L 514.30 367.10 L 510.90 364.70 L 507.60 362.00 L 504.70 359.00 L 502.00 355.70 L 499.70 352.10 L 497.70 348.30 L 496.10 344.30 L 494.80 340.20 L 494.00 335.90 L 493.60 327.30 L 498.20 244.40 L 505.90 244.00 L 510.20 243.10 L 516.60 241.30 L 523.20 239.00 L 546.70 229.50 L 552.40 227.90 L 554.30 227.80 L 555.50 228.10 L 556.10 228.60 L 556.40 229.50 L 556.30 231.10 L 555.60 233.40 L 549.70 245.40 L 549.50 247.50 L 549.90 247.80 L 550.90 247.90 L 563.20 245.40 L 568.40 243.90 L 575.80 241.20 L 581.90 238.40 L 587.40 235.40 L 595.10 230.20 L 599.20 226.60 L 602.10 239.10 L 604.90 249.70 L 607.70 258.60 L 610.80 267.30 L 616.50 280.20 L 619.40 278.40 L 622.30 277.00 L 625.40 276.10 L 628.50 275.60 L 631.70 275.50 L 634.80 275.80 L 637.90 276.50 L 640.90 277.50 L 643.70 279.00 L 646.30 280.80 L 648.70 283.00 L 650.90 285.60 L 652.70 288.50 L 654.10 291.40 L 655.00 294.50 L 655.50 297.60 L 655.60 300.80 L 655.30 303.90 L 654.60 307.00 L 653.60 310.00 L 652.10 312.80 L 650.30 315.40 L 648.10 317.80 L 645.50 320.00 L 642.60 321.70 L 639.60 323.00 L 636.30 324.00 L 633.00 324.50 Z" fill="url(#SVGID_18_)" fill-rule="evenodd" group-id="1,2,5,10" node-id="385" stroke="none" target-height="193.9" target-width="161.99997" target-x="493.6" target-y="226.6"></path><path d="M 539.40 373.80 L 555.30 371.40 L 566.90 368.70 L 578.60 364.80 L 583.80 362.40 L 582.10 367.40 L 578.20 375.00 L 575.10 379.40 L 569.90 385.20 L 563.00 390.70 L 558.90 393.10 L 554.10 395.30 L 549.20 397.10 L 543.60 398.40 L 537.10 399.40 L 539.40 373.80 Z" fill="url(#SVGID_19_)" fill-rule="evenodd" group-id="1,2,5,10" node-id="387" stroke="none" target-height="37" target-width="46.700012" target-x="537.1" target-y="362.4"></path></g><g node-id="423"><path d="M 859.90 641.70 L 861.80 645.90 L 864.60 654.40 L 865.40 658.70 L 866.00 664.50 L 866.00 670.20 L 865.40 675.90 L 864.20 681.60 L 862.50 687.00 L 860.20 692.20 L 857.40 697.20 L 854.00 701.90 L 850.20 706.30 L 843.60 712.10 L 835.80 716.90 L 831.10 719.00 L 826.20 720.70 L 821.30 722.00 L 816.20 722.70 L 811.20 723.10 L 806.10 722.90 L 801.00 722.30 L 796.00 721.20 L 791.10 719.70 L 656.50 671.80 L 648.70 603.70 L 795.70 612.40 L 835.80 592.70 L 859.90 641.70 Z" fill="url(#SVGID_20_)" fill-rule="evenodd" group-id="1,2,5,11" node-id="391" stroke="none" target-height="130.39996" target-width="217.29999" target-x="648.7" target-y="592.7"></path><path d="M 648.60 603.60 L 595.00 603.60 L 590.70 603.80 L 586.60 604.60 L 582.50 605.70 L 578.60 607.40 L 531.90 630.60 L 529.40 633.30 L 528.50 634.90 L 527.60 638.40 L 528.00 642.10 L 528.70 643.90 L 530.00 645.90 L 531.70 647.60 L 568.10 675.50 L 572.00 677.70 L 576.10 679.60 L 580.30 681.00 L 584.70 682.10 L 589.10 682.70 L 593.60 682.90 L 598.10 682.70 L 602.60 682.10 L 656.50 671.90 L 659.70 664.90 L 662.30 658.50 L 664.10 652.50 L 665.40 646.80 L 666.10 641.60 L 666.40 636.70 L 666.10 632.10 L 665.30 627.30 L 664.00 622.90 L 662.10 618.70 L 659.70 614.60 L 656.70 610.80 L 653.00 607.10 L 648.60 603.60 Z" fill="url(#SVGID_21_)" fill-rule="evenodd" group-id="1,2,5,11" node-id="393" stroke="none" target-height="79.30005" target-width="138.80005" target-x="527.6" target-y="603.6"></path></g><g node-id="424"><path d="M 468.10 359.10 L 471.10 360.10 L 473.70 361.40 L 476.10 363.20 L 478.20 365.30 L 479.90 367.60 L 481.30 370.20 L 482.30 373.00 L 482.90 375.90 L 483.00 379.00 L 467.60 552.00 L 467.10 554.70 L 466.20 557.20 L 464.80 559.40 L 463.10 561.40 L 461.10 563.00 L 458.90 564.30 L 456.40 565.20 L 453.90 565.70 L 451.10 565.70 L 383.70 552.60 L 317.80 539.40 L 314.80 538.40 L 312.20 537.10 L 309.80 535.30 L 307.70 533.20 L 306.00 530.90 L 304.60 528.30 L 303.60 525.50 L 303.00 522.60 L 302.90 519.50 L 310.50 432.90 L 318.30 346.50 L 318.80 343.80 L 319.70 341.30 L 321.10 339.10 L 322.80 337.10 L 324.80 335.50 L 327.00 334.20 L 329.50 333.30 L 332.00 332.80 L 334.80 332.80 L 468.10 359.10 Z" fill="url(#SVGID_22_)" fill-rule="evenodd" group-id="1,2,5,12" node-id="397" stroke="none" target-height="232.90002" target-width="180.1" target-x="302.9" target-y="332.8"></path><path d="M 406.30 409.60 L 405.90 411.10 L 404.90 412.20 L 402.80 413.00 L 389.70 410.50 L 388.50 410.00 L 387.50 409.10 L 386.90 407.90 L 386.80 406.60 L 387.90 394.20 L 388.60 392.30 L 389.40 391.60 L 391.50 390.80 L 404.60 393.30 L 405.80 393.80 L 406.80 394.70 L 407.40 395.90 L 407.50 397.20 L 406.30 409.60 Z" fill="url(#SVGID_23_)" fill-rule="evenodd" group-id="1,2,5,12" node-id="399" stroke="none" target-height="22.200012" target-width="20.700012" target-x="386.8" target-y="390.8"></path><path d="M 420.50 559.80 L 339.70 543.80 L 332.10 541.50 L 331.00 540.80 L 330.80 540.40 L 331.80 539.50 L 333.40 539.00 L 341.10 537.50 L 345.90 536.20 L 347.70 535.00 L 348.40 532.80 L 349.10 531.40 L 350.20 530.20 L 351.50 529.40 L 353.00 528.90 L 354.70 528.80 L 415.40 540.70 L 417.30 541.30 L 418.80 542.30 L 420.10 543.70 L 421.00 545.20 L 421.50 547.00 L 421.60 549.00 L 420.50 559.80 Z" fill="url(#SVGID_24_)" fill-rule="evenodd" group-id="1,2,5,12" node-id="401" stroke="none" target-height="31" target-width="90.80002" target-x="330.8" target-y="528.8"></path></g><path d="M 300.20 420.80 L 294.90 424.70 L 290.80 429.60 L 287.90 435.30 L 286.40 441.60 L 286.20 476.10 L 286.40 479.20 L 287.10 482.10 L 288.20 484.80 L 289.60 487.30 L 291.40 489.60 L 293.50 491.60 L 295.90 493.30 L 298.60 494.60 L 301.50 495.60 L 344.30 506.00 L 347.00 506.40 L 349.50 506.30 L 352.00 505.80 L 354.30 504.90 L 356.40 503.60 L 358.40 501.90 L 360.00 500.00 L 361.20 497.80 L 362.40 493.40 L 362.50 448.60 L 362.20 446.00 L 361.60 443.50 L 360.40 441.20 L 358.90 439.10 L 357.00 437.40 L 354.80 435.90 L 320.00 417.80 L 317.50 416.80 L 315.00 416.20 L 312.40 416.00 L 309.80 416.30 L 307.30 417.00 L 300.20 420.80 Z" fill="url(#Hand-Left_1_)" fill-rule="evenodd" group-id="1,2,5" id="Hand-Left" node-id="127" stroke="none" target-height="90.399994" target-width="76.29999" target-x="286.2" target-y="416"></path></g><g node-id="418"><path d="M 660.50 815.60 L 660.80 814.20 L 661.50 813.10 L 662.60 812.40 L 664.00 812.10 L 942.50 812.10 L 942.50 843.40 L 688.30 843.40 L 684.50 843.10 L 680.90 842.40 L 677.50 841.20 L 674.30 839.60 L 671.30 837.60 L 668.70 835.30 L 666.30 832.60 L 664.30 829.70 L 662.70 826.40 L 661.50 823.00 L 660.80 819.40 L 660.50 815.60 Z" fill="url(#SVGID_25_)" fill-rule="evenodd" group-id="1,2,6" node-id="407" stroke="none" target-height="31.300049" target-width="282" target-x="660.5" target-y="812.1"></path><path d="M 998.20 616.00 L 1000.10 629.00 L 1001.40 641.60 L 1002.20 653.80 L 1002.60 665.60 L 1002.50 677.50 L 1002.00 689.10 L 1001.10 700.30 L 999.90 711.00 L 997.70 725.40 L 995.00 739.10 L 991.90 752.00 L 988.20 764.80 L 984.30 776.80 L 980.20 788.00 L 975.60 799.00 L 966.50 818.60 L 961.60 827.80 L 952.60 843.40 L 791.40 843.40 L 788.20 843.20 L 785.40 842.50 L 782.90 841.60 L 780.70 840.30 L 778.70 838.60 L 777.00 836.70 L 775.70 834.60 L 774.70 832.10 L 774.10 829.60 L 773.80 826.90 L 774.60 820.70 L 822.50 638.80 L 824.90 632.80 L 826.60 630.00 L 830.90 625.00 L 836.10 620.80 L 841.90 617.90 L 845.00 616.90 L 851.20 616.10 L 998.20 616.00 Z" fill="url(#SVGID_26_)" fill-rule="evenodd" group-id="1,2,6" node-id="409" stroke="none" target-height="227.40002" target-width="228.79999" target-x="773.8" target-y="616"></path><path d="M 938.20 718.10 L 938.80 716.90 L 939.60 716.10 L 941.90 715.20 L 976.00 715.20 L 976.90 715.30 L 978.10 716.40 L 978.20 718.10 L 972.10 741.30 L 970.70 743.30 L 968.40 744.20 L 934.30 744.20 L 932.70 743.70 L 932.00 742.20 L 932.10 741.30 L 938.20 718.10 Z" fill="url(#SVGID_27_)" fill-rule="evenodd" group-id="1,2,6" node-id="411" stroke="none" target-height="29" target-width="46.200012" target-x="932" target-y="715.2"></path></g></g></g></svg>