<?xml version="1.0" standalone="no"?><!DOCTYPE svg PUBLIC "-//W3C//DTD SVG 1.1//EN" "http://www.w3.org/Graphics/SVG/1.1/DTD/svg11.dtd"><svg height="1024" node-id="1" sillyvg="true" template-height="1024" template-width="1024" version="1.1" viewBox="0 0 1024 1024" width="1024" xmlns="http://www.w3.org/2000/svg" xmlns:xlink="http://www.w3.org/1999/xlink"><defs node-id="303"><linearGradient gradientUnits="objectBoundingBox" id="SVGID_1_" node-id="21" spreadMethod="pad" x1="-1370.8494" x2="-1370.3041" y1="-823.4026" y2="-823.4026"><stop offset="0" stop-color="#ffffff"></stop><stop offset="1" stop-color="#cceeff"></stop></linearGradient><linearGradient gradientUnits="objectBoundingBox" id="SVGID_2_" node-id="25" spreadMethod="pad" x1="-1370.9979" x2="-1370.4523" y1="-823.3458" y2="-823.3458"><stop offset="0" stop-color="#ffc44c"></stop><stop offset="1" stop-color="#ff8618"></stop></linearGradient><linearGradient gradientUnits="objectBoundingBox" id="SVGID_3_" node-id="29" spreadMethod="pad" x1="-1371.2389" x2="-1370.6936" y1="-823.9626" y2="-823.9626"><stop offset="0" stop-color="#ffffff"></stop><stop offset="1" stop-color="#a6e1ff"></stop></linearGradient><linearGradient gradientUnits="objectBoundingBox" id="SVGID_4_" node-id="33" spreadMethod="pad" x1="-1371.0525" x2="-1370.5072" y1="-823.2358" y2="-823.2358"><stop offset="0" stop-color="#72b3f3"></stop><stop offset="1" stop-color="#1980e6"></stop></linearGradient><linearGradient gradientUnits="objectBoundingBox" id="SVGID_5_" node-id="37" spreadMethod="pad" x1="-1372.1942" x2="-1371.649" y1="-823.2358" y2="-823.2358"><stop offset="0" stop-color="#72b3f3"></stop><stop offset="1" stop-color="#1980e6"></stop></linearGradient><linearGradient gradientUnits="objectBoundingBox" id="SVGID_6_" node-id="41" spreadMethod="pad" x1="-1372.2532" x2="-1371.7079" y1="-827.457" y2="-827.457"><stop offset="0" stop-color="#93c4f5"></stop><stop offset="1" stop-color="#77b8fa"></stop></linearGradient><linearGradient gradientUnits="objectBoundingBox" id="SVGID_7_" node-id="45" spreadMethod="pad" x1="-1372.4744" x2="-1371.9291" y1="-828.0177" y2="-828.0177"><stop offset="0" stop-color="#bde8ff"></stop><stop offset="1" stop-color="#80d4ff"></stop></linearGradient><linearGradient gradientUnits="objectBoundingBox" id="SVGID_8_" node-id="49" spreadMethod="pad" x1="-1372.2997" x2="-1371.7544" y1="-823.304" y2="-823.304"><stop offset="0" stop-color="#ffc44c"></stop><stop offset="1" stop-color="#ff8618"></stop></linearGradient><linearGradient gradientUnits="objectBoundingBox" id="SVGID_9_" node-id="54" spreadMethod="pad" x1="-1373.5769" x2="-1373.0316" y1="-821.126" y2="-821.126"><stop offset="0" stop-color="#304f82"></stop><stop offset="1" stop-color="#193766"></stop></linearGradient><linearGradient gradientUnits="objectBoundingBox" id="SVGID_10_" node-id="58" spreadMethod="pad" x1="-1372.2373" x2="-1371.692" y1="-821.7739" y2="-821.7739"><stop offset="0" stop-color="#3d64a4"></stop><stop offset="1" stop-color="#193766"></stop></linearGradient><linearGradient gradientUnits="objectBoundingBox" id="SVGID_11_" node-id="62" spreadMethod="pad" x1="-1373.1458" x2="-1372.6005" y1="-827.7237" y2="-827.7237"><stop offset="0" stop-color="#3d64a4"></stop><stop offset="1" stop-color="#2f4f83"></stop></linearGradient><linearGradient gradientUnits="objectBoundingBox" id="SVGID_12_" node-id="66" spreadMethod="pad" x1="-1372.7906" x2="-1372.2454" y1="-820.6785" y2="-820.6785"><stop offset="0" stop-color="#ffffff"></stop><stop offset="0.49" stop-color="#f5f7fc"></stop><stop offset="1" stop-color="#d8e0f3"></stop></linearGradient><linearGradient gradientUnits="objectBoundingBox" id="SVGID_13_" node-id="71" spreadMethod="pad" x1="-1376.9551" x2="-1376.4099" y1="-832.9985" y2="-832.9985"><stop offset="0" stop-color="#ff5252"></stop><stop offset="1" stop-color="#f10d5a"></stop></linearGradient><linearGradient gradientUnits="objectBoundingBox" id="SVGID_14_" node-id="75" spreadMethod="pad" x1="-1373.2926" x2="-1372.7473" y1="-821.2473" y2="-821.2473"><stop offset="0" stop-color="#3d64a4"></stop><stop offset="1" stop-color="#2f4f83"></stop></linearGradient><linearGradient gradientUnits="objectBoundingBox" id="SVGID_15_" node-id="79" spreadMethod="pad" x1="-1372.356" x2="-1371.8107" y1="-823.7126" y2="-823.7126"><stop offset="0" stop-color="#3d64a4"></stop><stop offset="1" stop-color="#193766"></stop></linearGradient><linearGradient gradientUnits="objectBoundingBox" id="SVGID_16_" node-id="83" spreadMethod="pad" x1="-1371.2683" x2="-1370.7231" y1="-823.3761" y2="-823.3761"><stop offset="0" stop-color="#ffffff"></stop><stop offset="1" stop-color="#cceeff"></stop></linearGradient><linearGradient gradientUnits="objectBoundingBox" id="SVGID_17_" node-id="90" spreadMethod="pad" x1="-1376.9395" x2="-1376.3942" y1="-824.8639" y2="-824.8639"><stop offset="0" stop-color="#ff5252"></stop><stop offset="1" stop-color="#f10d5a"></stop></linearGradient><linearGradient gradientUnits="objectBoundingBox" id="SVGID_18_" node-id="95" spreadMethod="pad" x1="-1383.585" x2="-1383.0397" y1="-812.6943" y2="-812.6943"><stop offset="0" stop-color="#eecc51"></stop><stop offset="1" stop-color="#e77416"></stop></linearGradient><linearGradient gradientUnits="objectBoundingBox" id="SVGID_19_" node-id="101" spreadMethod="pad" x1="-1386.9471" x2="-1386.402" y1="-816.2488" y2="-816.2635"><stop offset="0" stop-color="#ffc44c"></stop><stop offset="1" stop-color="#ff8618"></stop></linearGradient><linearGradient gradientUnits="objectBoundingBox" id="SVGID_20_" node-id="105" spreadMethod="pad" x1="-1372.1136" x2="-1371.5684" y1="-826.7277" y2="-826.7277"><stop offset="0" stop-color="#3d64a4"></stop><stop offset="1" stop-color="#193766"></stop></linearGradient><linearGradient gradientUnits="objectBoundingBox" id="SVGID_21_" node-id="110" spreadMethod="pad" x1="-1386.9435" x2="-1386.3982" y1="-816.2068" y2="-816.2068"><stop offset="0" stop-color="#ffc44c"></stop><stop offset="1" stop-color="#ff8618"></stop></linearGradient><linearGradient gradientUnits="objectBoundingBox" id="SVGID_22_" node-id="114" spreadMethod="pad" x1="-1372.6255" x2="-1372.0802" y1="-816.7404" y2="-816.7404"><stop offset="0" stop-color="#3d64a4"></stop><stop offset="1" stop-color="#2f4f83"></stop></linearGradient><linearGradient gradientUnits="objectBoundingBox" id="Shirt_1_" node-id="118" spreadMethod="pad" x1="-1375.9009" x2="-1375.3555" y1="-818.7639" y2="-818.7639"><stop offset="0" stop-color="#ffc44c"></stop><stop offset="1" stop-color="#ff8618"></stop></linearGradient><linearGradient gradientUnits="objectBoundingBox" id="Shirt1_1_" node-id="122" spreadMethod="pad" x1="-1376.6075" x2="-1376.0623" y1="-832.3626" y2="-832.3626"><stop offset="0" stop-color="#ff5252"></stop><stop offset="1" stop-color="#f10d5a"></stop></linearGradient><linearGradient gradientUnits="objectBoundingBox" id="SVGID_23_" node-id="127" spreadMethod="pad" x1="-1376.3737" x2="-1375.8284" y1="-834.5858" y2="-834.5858"><stop offset="0" stop-color="#3d64a4"></stop><stop offset="1" stop-color="#2f4f83"></stop></linearGradient><linearGradient gradientUnits="objectBoundingBox" id="SVGID_24_" node-id="131" spreadMethod="pad" x1="-1375.1796" x2="-1374.6344" y1="-830.762" y2="-830.762"><stop offset="0" stop-color="#ffbeae"></stop><stop offset="0.46" stop-color="#ffb39f"></stop><stop offset="1" stop-color="#ff9678"></stop></linearGradient><linearGradient gradientUnits="objectBoundingBox" id="SVGID_25_" node-id="136" spreadMethod="pad" x1="-1404.5983" x2="-1404.053" y1="-862.7175" y2="-862.7175"><stop offset="0" stop-color="#ff653f"></stop><stop offset="1" stop-color="#ff7a55"></stop></linearGradient><linearGradient gradientUnits="objectBoundingBox" id="SVGID_26_" node-id="141" spreadMethod="pad" x1="-1374.9368" x2="-1374.3915" y1="-782.8758" y2="-782.8758"><stop offset="0" stop-color="#ff5252"></stop><stop offset="1" stop-color="#f10d5a"></stop></linearGradient><linearGradient gradientUnits="objectBoundingBox" id="SVGID_27_" node-id="145" spreadMethod="pad" x1="-1375.0281" x2="-1374.4828" y1="-818.7189" y2="-818.7189"><stop offset="0" stop-color="#ffffff"></stop><stop offset="0.49" stop-color="#f5f7fc"></stop><stop offset="1" stop-color="#d8e0f3"></stop></linearGradient><linearGradient gradientUnits="objectBoundingBox" id="SVGID_28_" node-id="150" spreadMethod="pad" x1="-1404.1251" x2="-1403.58" y1="-828.6727" y2="-828.6727"><stop offset="0" stop-color="#ffc44c"></stop><stop offset="1" stop-color="#ff8618"></stop></linearGradient><linearGradient gradientUnits="objectBoundingBox" id="SVGID_29_" node-id="155" spreadMethod="pad" x1="-1374.3152" x2="-1373.7699" y1="-815.3052" y2="-815.3052"><stop offset="0" stop-color="#ffdba9"></stop><stop offset="1" stop-color="#d78842"></stop></linearGradient><linearGradient gradientUnits="objectBoundingBox" id="SVGID_30_" node-id="159" spreadMethod="pad" x1="-1383.8037" x2="-1383.2585" y1="-799.4319" y2="-799.4319"><stop offset="0" stop-color="#ffffff"></stop><stop offset="1" stop-color="#cceeff"></stop></linearGradient><linearGradient gradientUnits="objectBoundingBox" id="SVGID_31_" node-id="163" spreadMethod="pad" x1="-1374.3152" x2="-1373.7699" y1="-810.7031" y2="-810.7031"><stop offset="0" stop-color="#ffca80"></stop><stop offset="1" stop-color="#d46e11"></stop></linearGradient><linearGradient gradientUnits="objectBoundingBox" id="SVGID_32_" node-id="167" spreadMethod="pad" x1="-1386.6775" x2="-1386.1322" y1="-793.062" y2="-793.062"><stop offset="0" stop-color="#ffffff"></stop><stop offset="1" stop-color="#cceeff"></stop></linearGradient><linearGradient gradientUnits="objectBoundingBox" id="Arm-Right_1_" node-id="173" spreadMethod="pad" x1="-1381.7574" x2="-1381.2117" y1="-837.4216" y2="-837.4216"><stop offset="0" stop-color="#ffbeae"></stop><stop offset="0.46" stop-color="#ffb39f"></stop><stop offset="1" stop-color="#ff9678"></stop></linearGradient><linearGradient gradientUnits="objectBoundingBox" id="SVGID_33_" node-id="179" spreadMethod="pad" x1="-1375.1301" x2="-1374.5848" y1="-830.1982" y2="-830.1982"><stop offset="0" stop-color="#ff5252"></stop><stop offset="1" stop-color="#f10d5a"></stop></linearGradient><linearGradient gradientUnits="objectBoundingBox" id="SVGID_34_" node-id="183" spreadMethod="pad" x1="-1367.661" x2="-1367.1156" y1="-814.5098" y2="-814.5098"><stop offset="0" stop-color="#ffffff"></stop><stop offset="0.49" stop-color="#f5f7fc"></stop><stop offset="1" stop-color="#d8e0f3"></stop></linearGradient><linearGradient gradientUnits="objectBoundingBox" id="SVGID_35_" node-id="188" spreadMethod="pad" x1="-1380.5192" x2="-1379.9591" y1="-827.5645" y2="-827.5645"><stop offset="0" stop-color="#ffbeae"></stop><stop offset="0.46" stop-color="#ffb39f"></stop><stop offset="1" stop-color="#ff9678"></stop></linearGradient><linearGradient gradientUnits="objectBoundingBox" id="SVGID_36_" node-id="194" spreadMethod="pad" x1="-1375.4536" x2="-1374.9083" y1="-813.718" y2="-813.718"><stop offset="0" stop-color="#ffdba9"></stop><stop offset="1" stop-color="#d78842"></stop></linearGradient><linearGradient gradientUnits="objectBoundingBox" id="SVGID_37_" node-id="198" spreadMethod="pad" x1="-1388.0072" x2="-1387.4619" y1="-794.4232" y2="-794.4232"><stop offset="0" stop-color="#ffffff"></stop><stop offset="1" stop-color="#cceeff"></stop></linearGradient><linearGradient gradientUnits="objectBoundingBox" id="SVGID_38_" node-id="202" spreadMethod="pad" x1="-1375.4536" x2="-1374.9083" y1="-808.3411" y2="-808.3411"><stop offset="0" stop-color="#ffca80"></stop><stop offset="1" stop-color="#d46e11"></stop></linearGradient><linearGradient gradientUnits="objectBoundingBox" id="SVGID_39_" node-id="206" spreadMethod="pad" x1="-1391.4288" x2="-1390.8835" y1="-786.9018" y2="-786.9018"><stop offset="0" stop-color="#ffffff"></stop><stop offset="1" stop-color="#cceeff"></stop></linearGradient><linearGradient gradientUnits="objectBoundingBox" id="SVGID_40_" node-id="212" spreadMethod="pad" x1="-1375.4536" x2="-1374.9083" y1="-813.0374" y2="-813.0374"><stop offset="0" stop-color="#ffdba9"></stop><stop offset="1" stop-color="#d78842"></stop></linearGradient><linearGradient gradientUnits="objectBoundingBox" id="SVGID_41_" node-id="216" spreadMethod="pad" x1="-1388.0072" x2="-1387.4619" y1="-792.2757" y2="-792.2757"><stop offset="0" stop-color="#ffffff"></stop><stop offset="1" stop-color="#cceeff"></stop></linearGradient><linearGradient gradientUnits="objectBoundingBox" id="SVGID_42_" node-id="220" spreadMethod="pad" x1="-1375.4536" x2="-1374.9083" y1="-807.3282" y2="-807.3282"><stop offset="0" stop-color="#ffca80"></stop><stop offset="1" stop-color="#d46e11"></stop></linearGradient><linearGradient gradientUnits="objectBoundingBox" id="SVGID_43_" node-id="224" spreadMethod="pad" x1="-1391.4288" x2="-1390.8835" y1="-784.2577" y2="-784.2577"><stop offset="0" stop-color="#ffffff"></stop><stop offset="1" stop-color="#cceeff"></stop></linearGradient><linearGradient gradientUnits="objectBoundingBox" id="SVGID_44_" node-id="230" spreadMethod="pad" x1="-1375.016" x2="-1374.4707" y1="-813.338" y2="-813.338"><stop offset="0" stop-color="#ffdba9"></stop><stop offset="1" stop-color="#d78842"></stop></linearGradient><linearGradient gradientUnits="objectBoundingBox" id="SVGID_45_" node-id="234" spreadMethod="pad" x1="-1386.3777" x2="-1385.8324" y1="-793.2241" y2="-793.2241"><stop offset="0" stop-color="#ffffff"></stop><stop offset="1" stop-color="#cceeff"></stop></linearGradient><linearGradient gradientUnits="objectBoundingBox" id="SVGID_46_" node-id="238" spreadMethod="pad" x1="-1375.016" x2="-1374.4707" y1="-807.7753" y2="-807.7753"><stop offset="0" stop-color="#ffca80"></stop><stop offset="1" stop-color="#d46e11"></stop></linearGradient><linearGradient gradientUnits="objectBoundingBox" id="SVGID_47_" node-id="242" spreadMethod="pad" x1="-1389.588" x2="-1389.0427" y1="-785.4244" y2="-785.4244"><stop offset="0" stop-color="#ffffff"></stop><stop offset="1" stop-color="#cceeff"></stop></linearGradient><linearGradient gradientUnits="objectBoundingBox" id="SVGID_48_" node-id="248" spreadMethod="pad" x1="-1374.5636" x2="-1374.0182" y1="-813.0234" y2="-813.0234"><stop offset="0" stop-color="#ffdba9"></stop><stop offset="1" stop-color="#d78842"></stop></linearGradient><linearGradient gradientUnits="objectBoundingBox" id="SVGID_49_" node-id="252" spreadMethod="pad" x1="-1384.7482" x2="-1384.2029" y1="-792.2316" y2="-792.2316"><stop offset="0" stop-color="#ffffff"></stop><stop offset="1" stop-color="#cceeff"></stop></linearGradient><linearGradient gradientUnits="objectBoundingBox" id="SVGID_50_" node-id="256" spreadMethod="pad" x1="-1374.5636" x2="-1374.0182" y1="-807.3076" y2="-807.3076"><stop offset="0" stop-color="#ffca80"></stop><stop offset="1" stop-color="#d46e11"></stop></linearGradient><linearGradient gradientUnits="objectBoundingBox" id="SVGID_51_" node-id="260" spreadMethod="pad" x1="-1388.225" x2="-1387.6797" y1="-817.2158" y2="-817.2158"><stop offset="0" stop-color="#f9f7eb"></stop><stop offset="1" stop-color="#e0dab8"></stop></linearGradient><linearGradient gradientUnits="objectBoundingBox" id="SVGID_52_" node-id="266" spreadMethod="pad" x1="-1375.016" x2="-1374.4707" y1="-812.6574" y2="-812.6574"><stop offset="0" stop-color="#ffdba9"></stop><stop offset="1" stop-color="#d78842"></stop></linearGradient><linearGradient gradientUnits="objectBoundingBox" id="SVGID_53_" node-id="270" spreadMethod="pad" x1="-1386.3777" x2="-1385.8324" y1="-791.0765" y2="-791.0765"><stop offset="0" stop-color="#ffffff"></stop><stop offset="1" stop-color="#cceeff"></stop></linearGradient><linearGradient gradientUnits="objectBoundingBox" id="SVGID_54_" node-id="274" spreadMethod="pad" x1="-1375.016" x2="-1374.4707" y1="-806.7626" y2="-806.7626"><stop offset="0" stop-color="#ffca80"></stop><stop offset="1" stop-color="#d46e11"></stop></linearGradient><linearGradient gradientUnits="objectBoundingBox" id="SVGID_55_" node-id="278" spreadMethod="pad" x1="-1389.588" x2="-1389.0427" y1="-782.7822" y2="-782.7822"><stop offset="0" stop-color="#ffffff"></stop><stop offset="1" stop-color="#cceeff"></stop></linearGradient><linearGradient gradientUnits="objectBoundingBox" id="SVGID_56_" node-id="284" spreadMethod="pad" x1="-1375.4536" x2="-1374.9083" y1="-833.2475" y2="-833.2475"><stop offset="0" stop-color="#ffdba9"></stop><stop offset="1" stop-color="#d78842"></stop></linearGradient><linearGradient gradientUnits="objectBoundingBox" id="SVGID_57_" node-id="288" spreadMethod="pad" x1="-1388.0072" x2="-1387.4619" y1="-790.1277" y2="-790.1277"><stop offset="0" stop-color="#ffffff"></stop><stop offset="1" stop-color="#cceeff"></stop></linearGradient><linearGradient gradientUnits="objectBoundingBox" id="SVGID_58_" node-id="292" spreadMethod="pad" x1="-1376.458" x2="-1375.9128" y1="-846.5399" y2="-846.5399"><stop offset="0" stop-color="#ffca80"></stop><stop offset="1" stop-color="#d46e11"></stop></linearGradient><linearGradient gradientUnits="objectBoundingBox" id="SVGID_59_" node-id="296" spreadMethod="pad" x1="-1391.4288" x2="-1390.8835" y1="-781.6157" y2="-781.6157"><stop offset="0" stop-color="#ffffff"></stop><stop offset="1" stop-color="#cceeff"></stop></linearGradient></defs><g node-id="896"><g node-id="897"><path d="M 942.50 460.20 L 944.30 463.90 L 945.60 467.70 L 946.40 471.60 L 946.90 475.60 L 946.90 479.50 L 946.40 483.50 L 945.60 487.40 L 944.30 491.10 L 942.50 494.80 L 751.40 843.80 L 749.10 847.50 L 746.40 850.80 L 743.30 853.80 L 740.00 856.30 L 736.30 858.50 L 732.50 860.20 L 728.40 861.50 L 724.20 862.20 L 719.80 862.50 L 232.60 862.50 L 228.10 862.20 L 223.80 861.40 L 219.70 860.10 L 215.70 858.30 L 212.10 856.10 L 208.70 853.40 L 205.60 850.30 L 202.90 846.90 L 200.60 843.00 L 94.50 637.80 L 92.90 634.10 L 91.70 630.40 L 90.90 626.60 L 90.50 622.70 L 90.50 618.80 L 91.00 615.00 L 91.90 611.20 L 93.20 607.50 L 94.90 603.90 L 325.90 183.20 L 328.20 179.50 L 330.90 176.20 L 333.90 173.30 L 337.30 170.70 L 340.90 168.60 L 344.70 166.80 L 348.70 165.60 L 352.90 164.80 L 357.20 164.50 L 757.00 161.60 L 761.40 161.80 L 765.60 162.60 L 769.70 163.80 L 773.60 165.50 L 777.30 167.70 L 780.70 170.30 L 783.80 173.20 L 786.50 176.60 L 788.80 180.30 L 942.50 460.20 Z M 919.50 618.20 L 921.40 615.50 L 923.50 613.20 L 926.00 611.40 L 928.80 610.10 L 931.70 609.20 L 934.80 608.90 L 937.90 609.10 L 940.90 609.80 L 944.00 611.10 L 946.80 613.00 L 949.20 615.40 L 951.10 618.20 L 985.40 680.70 L 987.10 684.30 L 988.40 688.00 L 989.30 691.80 L 989.80 695.60 L 989.80 699.50 L 989.50 703.40 L 988.70 707.20 L 987.50 710.90 L 985.80 714.60 L 937.10 809.00 L 934.80 812.90 L 932.10 816.30 L 929.00 819.40 L 925.60 822.10 L 922.00 824.30 L 918.00 826.10 L 913.90 827.40 L 909.60 828.20 L 905.10 828.50 L 833.80 828.50 L 830.50 828.20 L 827.50 827.40 L 824.70 826.00 L 822.20 824.20 L 820.00 822.10 L 818.20 819.60 L 816.90 816.80 L 816.10 813.80 L 815.80 810.50 L 816.10 807.50 L 816.80 804.60 L 818.00 801.80 L 919.50 618.20 Z M 239.60 204.30 L 242.90 204.60 L 245.90 205.40 L 248.70 206.80 L 251.20 208.60 L 253.40 210.70 L 255.20 213.20 L 256.50 216.00 L 257.30 219.00 L 257.60 222.30 L 257.00 226.80 L 255.40 230.90 L 102.00 510.50 L 100.10 513.20 L 98.00 515.50 L 95.40 517.30 L 92.70 518.60 L 89.70 519.50 L 86.70 519.80 L 83.60 519.60 L 80.50 518.90 L 77.50 517.60 L 73.30 514.40 L 71.60 512.40 L 38.20 448.30 L 36.60 444.60 L 35.40 440.90 L 34.60 437.10 L 34.20 433.20 L 34.20 429.30 L 34.70 425.50 L 35.60 421.70 L 36.90 418.00 L 38.60 414.40 L 143.60 223.00 L 145.90 219.30 L 148.60 216.00 L 151.70 213.00 L 155.00 210.50 L 158.70 208.30 L 162.50 206.60 L 166.60 205.30 L 170.80 204.60 L 175.20 204.30 L 239.60 204.30 Z" fill="#cce5ff" fill-rule="evenodd" group-id="1,2" node-id="693" stroke="none" target-height="700.9" target-width="955.6" target-x="34.2" target-y="161.6"></path><path d="M 299.40 556.40 L 121.20 556.40 L 221.80 373.00 L 299.50 373.00 L 299.40 556.40 Z M 177.40 373.00 L 102.00 510.50 L 100.10 513.20 L 98.00 515.50 L 95.40 517.30 L 92.70 518.60 L 89.70 519.50 L 86.70 519.80 L 83.60 519.60 L 80.50 518.90 L 77.50 517.60 L 73.30 514.40 L 71.60 512.40 L 38.20 448.30 L 36.60 444.60 L 35.40 440.90 L 34.60 437.10 L 34.20 433.20 L 34.20 429.30 L 34.70 425.50 L 35.60 421.70 L 36.90 418.00 L 61.30 373.00 L 177.40 373.00 Z" fill="#b3d8ff" fill-rule="evenodd" group-id="1,2" node-id="695" stroke="none" target-height="183.40002" target-width="265.3" target-x="34.2" target-y="373"></path><path d="M 220.90 669.00 L 110.70 669.00 L 94.50 637.80 L 92.90 634.10 L 91.70 630.40 L 90.90 626.60 L 90.50 622.70 L 90.50 618.80 L 91.00 615.00 L 91.90 611.20 L 93.20 607.50 L 94.90 603.90 L 123.70 551.40 L 220.90 551.40 L 220.90 669.00 Z" fill="#80c0ff" fill-rule="evenodd" group-id="1,2" node-id="697" stroke="none" target-height="117.599976" target-width="130.4" target-x="90.5" target-y="551.4"></path><path d="M 823.30 712.50 L 751.40 843.80 L 749.10 847.50 L 746.40 850.80 L 743.30 853.80 L 740.00 856.30 L 736.30 858.50 L 732.50 860.20 L 728.40 861.50 L 724.20 862.20 L 719.80 862.50 L 232.60 862.50 L 228.10 862.20 L 223.80 861.40 L 219.70 860.10 L 215.70 858.30 L 212.10 856.10 L 208.70 853.40 L 205.60 850.30 L 202.90 846.90 L 200.60 843.00 L 133.10 712.50 L 823.30 712.50 Z" fill="#99cdff" fill-rule="evenodd" group-id="1,2" node-id="699" stroke="none" target-height="150" target-width="690.19995" target-x="133.1" target-y="712.5"></path><path d="M 817.90 801.80 L 867.30 712.50 L 986.80 712.50 L 935.90 811.30 L 933.50 814.70 L 930.80 817.80 L 927.80 820.50 L 924.50 822.90 L 921.00 824.90 L 917.20 826.50 L 913.30 827.60 L 909.30 828.40 L 905.10 828.60 L 833.80 828.60 L 830.50 828.30 L 827.50 827.50 L 824.70 826.10 L 822.20 824.30 L 820.00 822.20 L 818.20 819.70 L 816.90 816.90 L 816.10 813.90 L 815.80 810.60 L 816.00 807.50 L 816.70 804.60 L 817.90 801.80 Z" fill="#99cdff" fill-rule="evenodd" group-id="1,2" node-id="701" stroke="none" target-height="116.099976" target-width="171" target-x="815.8" target-y="712.5"></path><path d="M 193.10 828.50 L 541.20 828.50 L 543.60 828.80 L 545.80 829.70 L 547.60 831.10 L 549.00 832.90 L 549.90 835.10 L 550.20 837.50 L 549.90 839.90 L 549.00 842.10 L 547.50 843.90 L 545.70 845.30 L 543.60 846.20 L 541.20 846.50 L 202.80 846.50 L 200.60 842.90 L 193.10 828.50 Z" fill="#5aa5f2" fill-rule="evenodd" group-id="1,2" node-id="703" stroke="none" target-height="18" target-width="357.1" target-x="193.1" target-y="828.5"></path><path d="M 759.70 828.50 L 749.60 846.60 L 604.70 846.60 L 602.30 846.30 L 600.10 845.40 L 598.30 844.00 L 596.90 842.20 L 596.00 840.00 L 595.70 837.60 L 596.00 835.20 L 596.90 833.00 L 598.30 831.20 L 600.10 829.80 L 602.30 828.90 L 604.70 828.60 L 759.70 828.60 Z" fill="#5aa5f2" fill-rule="evenodd" group-id="1,2" node-id="705" stroke="none" target-height="18.099976" target-width="164" target-x="595.7" target-y="828.5"></path><g node-id="902"><path d="M 175.40 457.30 L 179.80 461.30 L 183.90 465.60 L 187.60 470.00 L 190.90 474.80 L 193.90 479.80 L 196.60 485.00 L 198.80 490.30 L 200.70 495.80 L 202.20 501.50 L 203.20 507.20 L 203.90 513.00 L 204.10 519.00 L 203.80 525.70 L 203.00 532.10 L 201.80 538.30 L 200.00 544.40 L 197.80 550.30 L 195.20 555.90 L 192.20 561.30 L 188.70 566.40 L 184.90 571.30 L 180.70 575.80 L 176.30 579.90 L 171.50 583.80 L 166.40 587.30 L 161.00 590.30 L 155.50 593.00 L 149.60 595.20 L 143.60 597.00 L 137.40 598.20 L 131.00 599.00 L 124.40 599.30 L 118.10 599.10 L 111.90 598.30 L 105.70 597.10 L 99.60 595.40 L 175.40 457.30 Z M 54.70 480.10 L 57.60 475.20 L 64.30 466.30 L 72.20 458.40 L 76.60 454.80 L 71.40 446.40 L 69.30 442.10 L 66.40 433.10 L 64.90 423.90 L 64.60 419.30 L 64.90 413.10 L 65.80 407.00 L 67.30 401.00 L 70.70 392.40 L 75.50 384.30 L 78.30 380.50 L 85.00 373.60 L 88.90 370.40 L 92.90 367.70 L 97.00 365.30 L 105.70 361.60 L 114.90 359.30 L 119.60 358.70 L 124.40 358.40 L 129.10 358.60 L 133.70 359.10 L 142.70 361.30 L 148.40 363.50 L 153.80 366.20 L 159.00 369.50 L 162.60 372.30 L 169.20 378.80 L 172.20 382.50 L 102.00 510.50 L 100.10 513.20 L 98.00 515.50 L 95.40 517.30 L 92.70 518.60 L 89.70 519.50 L 86.70 519.80 L 83.60 519.60 L 80.50 518.90 L 77.50 517.60 L 75.30 516.20 L 71.60 512.40 L 70.20 510.10 L 54.70 480.10 Z" fill="#72b3f3" fill-rule="evenodd" group-id="1,2,7" node-id="708" stroke="none" target-height="240.9" target-width="149.40001" target-x="54.7" target-y="358.4"></path><path d="M 128.40 543.00 L 128.40 562.40 L 160.00 530.50 L 161.40 529.60 L 162.90 529.30 L 164.30 529.60 L 165.70 530.50 L 166.60 531.90 L 166.90 533.40 L 166.60 534.80 L 165.70 536.20 L 128.40 573.80 L 128.40 681.90 L 120.40 681.90 L 120.40 557.60 L 128.40 543.00 Z M 109.70 496.40 L 91.70 478.20 L 90.80 476.80 L 90.50 475.40 L 90.80 473.90 L 91.70 472.50 L 93.00 471.60 L 94.50 471.30 L 96.00 471.60 L 97.30 472.40 L 113.80 489.00 L 109.70 496.40 Z M 120.40 476.90 L 120.40 387.30 L 120.70 385.70 L 121.60 384.50 L 122.80 383.60 L 124.40 383.30 L 126.00 383.60 L 127.20 384.50 L 128.10 385.70 L 128.40 387.30 L 128.40 429.00 L 141.40 415.90 L 142.70 415.00 L 144.20 414.70 L 145.70 415.00 L 147.00 415.90 L 147.90 417.30 L 148.20 418.80 L 147.90 420.20 L 147.00 421.60 L 128.30 440.40 L 128.30 462.20 L 120.40 476.90 Z" fill="#cce5ff" fill-rule="evenodd" group-id="1,2,7" node-id="710" stroke="none" target-height="298.60004" target-width="76.399994" target-x="90.5" target-y="383.3"></path></g><g node-id="903"><path d="M 110.00 667.80 L 112.30 663.40 L 117.60 655.60 L 120.60 652.10 L 125.10 647.90 L 129.90 644.20 L 135.10 641.00 L 140.60 638.30 L 146.20 636.30 L 152.10 634.80 L 158.10 633.90 L 164.20 633.70 L 170.40 634.00 L 179.50 635.80 L 188.60 639.20 L 193.70 641.90 L 198.40 645.00 L 202.70 648.40 L 206.70 652.30 L 210.30 656.50 L 213.50 661.00 L 216.20 665.80 L 218.60 670.80 L 220.40 676.10 L 221.70 681.50 L 222.50 687.00 L 222.80 692.80 L 222.80 712.50 L 133.10 712.50 L 110.00 667.80 Z" fill="#5aa6f1" fill-rule="evenodd" group-id="1,2,8" node-id="714" stroke="none" target-height="78.79999" target-width="112.8" target-x="110" target-y="633.7"></path><path d="M 102.60 653.30 L 109.50 653.50 L 118.90 655.00 L 123.30 656.30 L 129.10 658.60 L 134.50 661.40 L 139.60 664.70 L 144.30 668.60 L 148.50 672.80 L 152.40 677.50 L 155.70 682.60 L 158.50 688.00 L 160.80 693.80 L 162.10 698.20 L 163.60 707.60 L 163.80 712.50 L 133.20 712.50 L 102.60 653.30 Z" fill="#80c0ff" fill-rule="evenodd" group-id="1,2,8" node-id="716" stroke="none" target-height="59.200012" target-width="61.200005" target-x="102.6" target-y="653.3"></path></g></g><g node-id="898"><path d="M 801.40 292.70 L 801.40 752.50 L 788.50 776.10 L 182.10 776.10 L 182.10 445.20 L 292.30 244.40 L 476.80 163.60 L 506.20 163.40 L 801.40 292.70 Z M 234.00 270.00 L 182.10 364.50 L 182.10 292.70 L 234.00 270.00 Z" fill="url(#SVGID_1_)" fill-rule="evenodd" group-id="1,3" node-id="721" stroke="none" target-height="612.69995" target-width="619.30005" target-x="182.1" target-y="163.4"></path><path d="M 506.20 163.40 L 757.00 161.50 L 761.40 161.70 L 765.60 162.50 L 769.70 163.70 L 773.60 165.40 L 777.30 167.60 L 780.70 170.20 L 783.80 173.10 L 786.50 176.50 L 788.80 180.20 L 850.60 292.70 L 801.40 292.70 L 506.20 163.40 Z" fill="url(#SVGID_2_)" fill-rule="evenodd" group-id="1,3" node-id="723" stroke="none" target-height="131.20001" target-width="344.39996" target-x="506.2" target-y="161.5"></path><path d="M 832.20 776.10 L 919.50 618.20 L 921.40 615.50 L 923.50 613.20 L 926.00 611.40 L 928.80 610.10 L 931.70 609.20 L 934.80 608.90 L 937.90 609.10 L 940.90 609.80 L 944.00 611.10 L 946.80 613.00 L 949.20 615.40 L 951.10 618.20 L 985.40 680.70 L 987.10 684.30 L 988.40 688.00 L 989.30 691.80 L 989.80 695.60 L 989.80 699.50 L 989.40 703.40 L 988.60 707.20 L 987.40 710.90 L 985.80 714.60 L 954.00 776.10 L 832.20 776.10 Z M 850.60 292.70 L 942.50 460.10 L 944.30 463.80 L 945.60 467.60 L 946.40 471.50 L 946.90 475.50 L 946.90 479.40 L 946.40 483.40 L 945.60 487.30 L 944.30 491.00 L 942.50 494.70 L 801.40 752.50 L 801.40 292.70 L 850.60 292.70 Z" fill="url(#SVGID_3_)" fill-rule="evenodd" group-id="1,3" node-id="725" stroke="none" target-height="483.39996" target-width="188.39996" target-x="801.4" target-y="292.7"></path><path d="M 262.30 349.30 L 721.10 349.30 L 721.10 776.10 L 262.30 776.10 Z" fill="url(#SVGID_4_)" fill-rule="nonzero" group-id="1,3" node-id="727" stroke="none" target-height="426.8" target-width="458.8" target-x="262.3" target-y="349.3"></path><path d="M 262.30 610.60 L 721.10 610.60 L 721.10 776.10 L 262.30 776.10 Z" fill="url(#SVGID_5_)" fill-rule="nonzero" group-id="1,3" node-id="729" stroke="none" target-height="165.5" target-width="458.8" target-x="262.3" target-y="610.6"></path><path d="M 262.30 349.30 L 721.10 349.30 L 721.10 426.10 L 262.30 426.10 Z" fill="url(#SVGID_6_)" fill-rule="nonzero" group-id="1,3" node-id="731" stroke="none" target-height="76.80002" target-width="458.8" target-x="262.3" target-y="349.3"></path><path d="M 721.10 396.80 L 721.10 426.10 L 262.30 426.10 L 262.30 396.80 L 721.10 396.80 Z M 721.10 358.40 L 721.10 387.70 L 262.30 387.70 L 262.30 358.40 L 721.10 358.40 Z" fill="url(#SVGID_7_)" fill-rule="evenodd" group-id="1,3" node-id="733" stroke="none" target-height="67.70001" target-width="458.8" target-x="262.3" target-y="358.4"></path><path d="M 730.10 292.70 L 731.60 292.90 L 734.10 294.40 L 735.50 296.90 L 735.70 298.40 L 735.70 343.60 L 735.50 345.10 L 734.10 347.60 L 731.60 349.10 L 730.00 349.30 L 253.40 349.30 L 250.50 348.50 L 248.50 346.50 L 247.90 345.20 L 247.70 343.60 L 247.70 325.60 L 265.80 292.70 L 730.10 292.70 Z" fill="url(#SVGID_8_)" fill-rule="evenodd" group-id="1,3" node-id="735" stroke="none" target-height="56.599976" target-width="488" target-x="247.7" target-y="292.7"></path></g><g node-id="899"><path d="M 634.00 705.70 L 737.90 705.70 L 737.90 804.10 L 634.00 804.10 Z" fill="url(#SVGID_9_)" fill-rule="nonzero" group-id="1,4" node-id="739" stroke="none" target-height="98.39996" target-width="103.900024" target-x="634" target-y="705.7"></path><path d="M 722.90 720.30 L 680.80 720.30 L 677.00 720.60 L 673.30 721.50 L 669.80 722.90 L 666.30 725.00 L 663.10 727.40 L 660.00 730.40 L 657.10 733.80 L 654.30 737.80 L 649.80 746.40 L 646.30 756.70 L 645.00 762.10 L 643.50 773.70 L 643.30 779.90 L 643.50 786.10 L 644.10 792.10 L 646.20 803.10 L 647.90 808.50 L 651.90 817.90 L 654.30 822.00 L 657.10 826.00 L 660.00 829.40 L 663.00 832.40 L 666.20 834.80 L 669.70 836.90 L 673.30 838.30 L 677.00 839.20 L 680.80 839.50 L 722.90 839.50 L 726.70 839.20 L 730.40 838.30 L 733.90 836.90 L 737.50 834.80 L 740.60 832.40 L 743.70 829.40 L 746.60 826.00 L 749.40 822.00 L 753.90 813.40 L 757.40 803.10 L 758.70 797.70 L 760.20 786.10 L 760.40 779.90 L 759.60 767.70 L 758.70 762.10 L 755.80 751.30 L 753.90 746.40 L 749.40 737.80 L 746.60 733.80 L 743.70 730.40 L 740.70 727.40 L 737.50 725.00 L 734.00 722.90 L 730.40 721.50 L 726.70 720.60 L 722.90 720.30 Z" fill="url(#SVGID_10_)" fill-rule="evenodd" group-id="1,4" node-id="741" stroke="none" target-height="119.20001" target-width="117.10004" target-x="643.3" target-y="720.3"></path><path d="M 718.30 780.00 L 717.50 792.20 L 715.40 803.20 L 711.80 813.50 L 707.30 822.10 L 704.60 826.10 L 701.60 829.60 L 698.60 832.50 L 695.40 834.90 L 691.90 837.00 L 688.30 838.40 L 684.60 839.30 L 680.80 839.60 L 677.00 839.30 L 673.30 838.40 L 669.70 837.00 L 666.20 834.90 L 663.00 832.50 L 660.00 829.60 L 657.00 826.10 L 654.30 822.10 L 649.80 813.50 L 646.20 803.20 L 644.10 792.20 L 643.30 780.00 L 644.10 767.80 L 646.20 756.80 L 649.80 746.50 L 654.30 737.90 L 657.00 733.90 L 660.00 730.40 L 663.00 727.50 L 666.20 725.10 L 669.70 723.00 L 673.30 721.60 L 677.00 720.70 L 680.80 720.40 L 684.60 720.70 L 688.30 721.60 L 691.90 723.00 L 695.40 725.10 L 698.60 727.50 L 701.60 730.40 L 704.60 733.90 L 707.30 737.90 L 711.80 746.50 L 715.40 756.80 L 717.50 767.80 L 718.30 780.00 Z" fill="url(#SVGID_11_)" fill-rule="nonzero" group-id="1,4" node-id="743" stroke="none" target-height="119.19995" target-width="75" target-x="643.3" target-y="720.4"></path><path d="M 707.30 780.00 L 707.00 785.80 L 706.30 791.30 L 705.20 796.40 L 703.60 801.40 L 701.70 805.80 L 699.50 809.80 L 696.90 813.40 L 694.10 816.40 L 691.10 818.80 L 688.60 820.20 L 683.50 821.90 L 680.80 822.10 L 678.10 821.90 L 673.00 820.20 L 670.50 818.80 L 667.50 816.40 L 664.70 813.40 L 662.10 809.80 L 659.90 805.80 L 658.00 801.40 L 656.40 796.40 L 655.30 791.30 L 654.60 785.80 L 654.30 780.00 L 654.60 774.20 L 655.30 768.70 L 656.40 763.60 L 658.00 758.60 L 659.90 754.20 L 662.10 750.20 L 664.70 746.60 L 667.50 743.60 L 670.50 741.20 L 673.00 739.80 L 678.10 738.10 L 680.80 737.90 L 683.50 738.10 L 688.60 739.80 L 691.10 741.20 L 694.10 743.60 L 696.90 746.60 L 699.50 750.20 L 701.70 754.20 L 703.60 758.60 L 705.20 763.60 L 706.30 768.70 L 707.00 774.20 L 707.30 780.00 Z" fill="url(#SVGID_12_)" fill-rule="nonzero" group-id="1,4" node-id="745" stroke="none" target-height="84.19995" target-width="53" target-x="654.3" target-y="737.9"></path><path d="M 700.00 780.00 L 699.70 784.50 L 699.00 788.50 L 697.90 792.20 L 696.40 795.70 L 694.60 798.50 L 692.50 800.80 L 690.70 802.30 L 686.90 803.90 L 684.90 804.10 L 680.90 803.30 L 677.30 800.80 L 675.20 798.50 L 673.40 795.70 L 671.90 792.20 L 670.80 788.50 L 670.10 784.50 L 669.80 780.00 L 670.10 775.50 L 670.80 771.50 L 671.90 767.80 L 673.40 764.30 L 675.20 761.50 L 677.30 759.20 L 679.10 757.70 L 682.90 756.10 L 684.90 755.90 L 688.90 756.70 L 692.50 759.20 L 694.60 761.50 L 696.40 764.30 L 697.90 767.80 L 699.00 771.50 L 699.70 775.50 L 700.00 780.00 Z" fill="url(#SVGID_13_)" fill-rule="nonzero" group-id="1,4" node-id="747" stroke="none" target-height="48.19995" target-width="30.200012" target-x="669.8" target-y="755.9"></path><path d="M 878.70 828.50 L 875.70 824.70 L 872.90 820.40 L 870.40 815.50 L 868.20 810.50 L 866.40 805.00 L 864.90 799.00 L 863.80 792.90 L 863.10 786.60 L 862.90 779.90 L 863.10 773.70 L 864.60 762.10 L 865.80 756.70 L 869.40 746.40 L 873.90 737.80 L 876.70 733.80 L 879.60 730.40 L 882.60 727.40 L 885.80 725.00 L 889.30 722.90 L 892.90 721.50 L 896.60 720.60 L 900.40 720.30 L 942.50 720.30 L 946.40 720.60 L 950.10 721.50 L 953.70 723.00 L 957.10 725.00 L 960.40 727.50 L 963.50 730.50 L 966.40 733.90 L 969.00 737.80 L 971.50 742.10 L 935.80 811.20 L 933.40 814.60 L 930.70 817.70 L 927.70 820.40 L 924.40 822.80 L 920.90 824.80 L 917.10 826.40 L 913.20 827.50 L 909.20 828.30 L 905.00 828.50 L 878.70 828.50 Z" fill="url(#SVGID_14_)" fill-rule="evenodd" group-id="1,4" node-id="749" stroke="none" target-height="108.20001" target-width="108.599976" target-x="862.9" target-y="720.3"></path><path d="M 878.70 828.50 L 875.70 824.70 L 872.90 820.40 L 870.40 815.50 L 868.20 810.50 L 866.40 805.00 L 864.90 799.00 L 863.80 792.90 L 863.10 786.60 L 862.90 779.90 L 863.10 773.70 L 864.60 762.10 L 865.80 756.70 L 869.40 746.40 L 873.90 737.80 L 876.70 733.80 L 879.60 730.40 L 882.60 727.40 L 885.80 725.00 L 889.30 722.90 L 892.90 721.50 L 896.60 720.60 L 900.40 720.30 L 904.20 720.60 L 907.90 721.50 L 911.50 722.90 L 915.00 725.00 L 918.20 727.40 L 921.30 730.40 L 924.20 733.80 L 927.00 737.80 L 929.30 741.90 L 933.40 751.30 L 935.00 756.70 L 937.20 767.70 L 938.00 779.90 L 937.70 787.70 L 936.80 795.00 L 935.40 801.80 L 933.40 808.60 L 931.00 814.60 L 928.20 820.10 L 924.80 822.60 L 921.20 824.70 L 917.40 826.30 L 913.40 827.50 L 909.30 828.20 L 905.10 828.50 L 878.70 828.50 Z" fill="url(#SVGID_15_)" fill-rule="evenodd" group-id="1,4" node-id="751" stroke="none" target-height="108.20001" target-width="75.099976" target-x="862.9" target-y="720.3"></path><path d="M 912.30 405.10 L 942.50 460.20 L 944.30 463.90 L 945.60 467.70 L 946.40 471.60 L 946.90 475.60 L 946.90 479.50 L 946.40 483.50 L 945.60 487.40 L 944.30 491.10 L 942.50 494.80 L 799.60 755.90 L 724.80 755.90 L 722.90 749.20 L 720.60 743.10 L 718.00 737.30 L 714.90 731.90 L 711.50 727.00 L 707.90 722.70 L 701.80 717.20 L 695.30 713.10 L 691.80 711.60 L 688.20 710.60 L 684.60 709.90 L 680.80 709.70 L 677.00 709.90 L 673.40 710.60 L 669.80 711.60 L 666.30 713.10 L 659.80 717.10 L 653.70 722.70 L 650.10 726.90 L 646.70 731.80 L 643.60 737.20 L 641.00 743.00 L 638.70 749.10 L 636.80 755.80 L 589.20 755.80 L 589.20 411.80 L 589.50 410.00 L 590.10 408.40 L 591.20 407.10 L 592.50 406.00 L 594.10 405.40 L 595.90 405.10 L 912.30 405.10 Z M 843.30 755.90 L 919.50 618.20 L 921.40 615.50 L 923.50 613.20 L 926.00 611.40 L 928.80 610.10 L 931.70 609.20 L 934.80 608.90 L 937.90 609.10 L 940.90 609.80 L 944.00 611.10 L 946.80 613.00 L 949.20 615.40 L 951.10 618.20 L 985.40 680.70 L 987.10 684.30 L 988.40 688.00 L 989.30 691.80 L 989.80 695.60 L 989.80 699.50 L 989.40 703.40 L 988.60 707.20 L 987.40 710.90 L 985.80 714.60 L 964.50 755.90 L 843.30 755.90 Z" fill="url(#SVGID_16_)" fill-rule="evenodd" group-id="1,4" node-id="753" stroke="none" target-height="350.80002" target-width="400.59998" target-x="589.2" target-y="405.1"></path><path d="M 650.20 476.50 L 650.90 472.70 L 652.80 469.50 L 655.60 467.10 L 657.30 466.30 L 661.10 465.60 L 766.60 465.60 L 770.40 466.30 L 773.60 468.20 L 776.00 471.00 L 776.80 472.70 L 777.50 476.50 L 776.80 480.30 L 776.00 482.00 L 773.60 484.80 L 770.40 486.70 L 766.60 487.40 L 659.10 487.20 L 655.60 485.90 L 652.80 483.60 L 650.90 480.30 L 650.20 476.50 Z" fill="#bde8ff" fill-rule="evenodd" group-id="1,4" node-id="755" stroke="none" target-height="21.799988" target-width="127.29999" target-x="650.2" target-y="465.6"></path><path d="M 688.90 515.20 L 689.60 511.40 L 690.40 509.70 L 692.80 506.90 L 696.00 505.00 L 699.80 504.30 L 805.40 504.30 L 809.20 505.00 L 812.40 506.90 L 814.80 509.70 L 815.60 511.40 L 816.30 515.20 L 815.60 519.00 L 814.80 520.70 L 812.40 523.50 L 809.20 525.40 L 805.40 526.10 L 697.80 525.90 L 694.30 524.60 L 691.50 522.30 L 689.60 519.00 L 688.90 515.20 Z" fill="#bde8ff" fill-rule="evenodd" group-id="1,4" node-id="757" stroke="none" target-height="21.799988" target-width="127.39996" target-x="688.9" target-y="504.3"></path><path d="M 650.20 553.90 L 650.90 550.10 L 652.80 546.90 L 655.60 544.50 L 657.30 543.70 L 661.10 543.00 L 766.60 543.00 L 770.40 543.70 L 773.60 545.60 L 776.00 548.40 L 777.30 551.90 L 777.30 555.90 L 776.80 557.70 L 774.90 560.90 L 772.10 563.30 L 770.40 564.10 L 766.60 564.80 L 661.10 564.80 L 657.30 564.10 L 654.10 562.20 L 651.70 559.40 L 650.90 557.70 L 650.20 553.90 Z" fill="#bde8ff" fill-rule="evenodd" group-id="1,4" node-id="759" stroke="none" target-height="21.799988" target-width="127.099976" target-x="650.2" target-y="543"></path><path d="M 724.70 755.90 L 799.50 755.90 L 773.20 804.10 L 727.50 804.10 L 727.50 780.00 L 727.20 771.90 L 726.30 763.90 L 724.70 755.90 Z M 636.80 755.90 L 635.20 763.90 L 634.30 771.90 L 634.00 780.00 L 634.00 804.10 L 596.00 804.10 L 594.20 803.80 L 592.60 803.20 L 591.30 802.10 L 590.20 800.80 L 589.60 799.20 L 589.30 797.40 L 589.30 756.00 L 636.80 756.00 Z M 939.50 804.10 L 816.80 804.10 L 843.30 756.00 L 964.40 756.00 L 939.50 804.10 Z" fill="url(#SVGID_17_)" fill-rule="evenodd" group-id="1,4" node-id="761" stroke="none" target-height="48.19995" target-width="375.10004" target-x="589.3" target-y="755.9"></path><path d="M 957.00 770.20 L 946.90 789.60 L 906.90 789.60 L 905.80 789.40 L 904.90 788.80 L 904.20 787.80 L 904.00 786.70 L 904.00 773.10 L 904.20 772.00 L 904.90 771.10 L 905.80 770.40 L 906.90 770.20 L 957.00 770.20 Z" fill="#000000" fill-opacity="0.15" fill-rule="evenodd" group-id="1,4" node-id="763" stroke="none" target-height="19.399963" target-width="53" target-x="904" target-y="770.2"></path><path d="M 589.20 768.20 L 599.80 768.20 L 601.10 768.50 L 602.20 769.20 L 602.90 770.30 L 603.20 771.60 L 603.20 788.40 L 602.90 789.70 L 602.20 790.80 L 601.10 791.50 L 599.80 791.80 L 589.20 791.80 L 589.20 768.20 Z" fill="url(#SVGID_18_)" fill-rule="evenodd" group-id="1,4" node-id="765" stroke="none" target-height="23.599976" target-width="14" target-x="589.2" target-y="768.2"></path></g><g node-id="900"><g node-id="904"><path d="M 476.50 839.60 L 475.20 819.60 L 497.70 819.60 L 504.20 825.10 L 515.80 828.70 L 518.60 830.30 L 520.60 832.70 L 521.10 834.20 L 521.70 839.60 L 476.50 839.60 Z" fill="url(#SVGID_19_)" fill-rule="evenodd" group-id="1,5,9" node-id="770" stroke="none" target-height="20" target-width="46.5" target-x="475.2" target-y="819.6"></path><path d="M 499.90 699.40 L 504.20 825.00 L 475.60 825.00 L 466.00 699.40 L 499.90 699.40 Z" fill="url(#SVGID_20_)" fill-rule="nonzero" group-id="1,5,9" node-id="772" stroke="none" target-height="125.599976" target-width="38.200012" target-x="466" target-y="699.4"></path></g><g node-id="905"><path d="M 426.20 839.60 L 426.20 819.60 L 448.70 819.60 L 454.90 825.10 L 465.80 828.60 L 468.70 830.30 L 470.70 833.00 L 471.40 836.20 L 471.40 839.60 L 426.20 839.60 Z" fill="url(#SVGID_21_)" fill-rule="evenodd" group-id="1,5,10" node-id="776" stroke="none" target-height="20" target-width="45.19998" target-x="426.2" target-y="819.6"></path><path d="M 426.20 702.20 L 426.20 682.50 L 499.90 682.50 L 499.90 702.20 L 499.70 704.80 L 499.00 707.10 L 498.00 709.30 L 496.60 711.30 L 494.90 713.00 L 492.90 714.40 L 490.70 715.40 L 488.40 716.10 L 485.80 716.30 L 459.10 716.30 L 454.80 825.00 L 426.20 825.00 L 426.20 702.20 Z" fill="url(#SVGID_22_)" fill-rule="evenodd" group-id="1,5,10" node-id="778" stroke="none" target-height="142.5" target-width="73.69998" target-x="426.2" target-y="682.5"></path></g><path d="M 426.20 632.80 L 499.90 632.80 L 499.90 699.40 L 426.20 699.40 Z" fill="url(#Shirt_1_)" fill-rule="nonzero" group-id="1,5" id="Shirt" node-id="121" stroke="none" target-height="66.60004" target-width="73.69998" target-x="426.2" target-y="632.8"></path><path d="M 426.20 632.80 L 426.20 599.70 L 491.70 599.90 L 494.90 601.10 L 497.50 603.30 L 499.30 606.30 L 500.00 609.80 L 500.00 632.80 L 426.20 632.80 Z" fill="url(#Shirt1_1_)" fill-rule="evenodd" group-id="1,5" id="Shirt1" node-id="125" stroke="none" target-height="33.099976" target-width="73.79999" target-x="426.2" target-y="599.7"></path><g node-id="906"><path d="M 489.90 559.60 L 444.80 559.60 L 445.10 565.80 L 445.90 567.90 L 447.20 569.90 L 448.90 571.50 L 454.20 575.50 L 489.90 559.60 Z" fill="url(#SVGID_23_)" fill-rule="evenodd" group-id="1,5,11" node-id="784" stroke="none" target-height="15.900024" target-width="45.100006" target-x="444.8" target-y="559.6"></path><path d="M 456.10 566.50 L 461.40 551.90 L 492.00 555.00 L 492.00 581.10 L 491.80 583.10 L 490.50 586.70 L 489.40 588.20 L 486.60 590.60 L 483.00 591.90 L 475.50 592.10 L 475.50 599.70 L 475.20 601.50 L 474.60 603.10 L 473.60 604.40 L 472.20 605.40 L 470.70 606.10 L 468.90 606.30 L 460.70 606.30 L 458.90 606.10 L 455.80 604.80 L 453.40 602.40 L 452.20 599.70 L 452.20 580.40 L 450.20 580.10 L 448.40 579.40 L 446.80 578.20 L 445.60 576.70 L 444.90 574.90 L 444.60 572.90 L 444.90 570.90 L 445.60 569.10 L 446.80 567.50 L 448.30 566.30 L 450.10 565.60 L 452.10 565.30 L 454.10 565.60 L 456.10 566.50 Z" fill="url(#SVGID_24_)" fill-rule="evenodd" group-id="1,5,11" node-id="786" stroke="none" target-height="54.399963" target-width="47.399994" target-x="444.6" target-y="551.9"></path><path d="M 475.40 592.10 L 466.00 592.10 L 475.30 599.70 L 475.40 592.10 Z" fill="url(#SVGID_25_)" fill-rule="evenodd" group-id="1,5,11" node-id="788" stroke="none" target-height="7.6000366" target-width="9.399994" target-x="466" target-y="592.1"></path><g node-id="909"><path d="M 444.70 549.10 L 445.00 546.00 L 445.80 543.10 L 447.00 540.40 L 448.80 538.00 L 450.80 536.00 L 453.20 534.20 L 455.90 533.00 L 458.80 532.20 L 461.90 531.90 L 475.80 531.90 L 475.80 559.70 L 444.80 559.70 L 444.80 549.10 Z" fill="url(#SVGID_26_)" fill-rule="evenodd" group-id="1,5,11,14" node-id="791" stroke="none" target-height="27.799988" target-width="31.099976" target-x="444.7" target-y="531.9"></path><path d="M 454.60 544.40 L 454.80 542.10 L 456.30 538.10 L 459.00 534.90 L 462.70 532.70 L 467.10 531.90 L 479.40 531.90 L 483.80 532.70 L 487.50 534.90 L 490.20 538.10 L 491.10 540.00 L 491.90 544.40 L 491.90 559.60 L 454.50 559.60 L 454.50 544.40 Z" fill="url(#SVGID_27_)" fill-rule="evenodd" group-id="1,5,11,14" node-id="793" stroke="none" target-height="27.699951" target-width="37.399994" target-x="454.5" target-y="531.9"></path><path d="M 462.90 551.30 L 460.70 551.60 L 458.70 552.40 L 457.00 553.70 L 455.70 555.40 L 454.90 557.40 L 454.60 559.60 L 502.50 559.60 L 502.20 557.40 L 501.40 555.40 L 500.10 553.70 L 498.40 552.40 L 496.40 551.60 L 494.20 551.30 L 462.90 551.30 Z" fill="url(#SVGID_28_)" fill-rule="evenodd" group-id="1,5,11,14" node-id="795" stroke="none" target-height="8.299988" target-width="47.899994" target-x="454.6" target-y="551.3"></path></g></g><g node-id="907"><path d="M 488.20 610.60 L 547.00 610.60 L 547.00 673.60 L 488.20 673.60 Z" fill="url(#SVGID_29_)" fill-rule="nonzero" group-id="1,5,12" node-id="800" stroke="none" target-height="63" target-width="58.799988" target-x="488.2" target-y="610.6"></path><path d="M 508.30 610.60 L 526.90 610.60 L 526.90 627.70 L 508.30 627.70 Z" fill="url(#SVGID_30_)" fill-rule="nonzero" group-id="1,5,12" node-id="802" stroke="none" target-height="17.100037" target-width="18.600037" target-x="508.3" target-y="610.6"></path><path d="M 448.70 610.60 L 488.20 610.60 L 488.20 673.60 L 448.70 673.60 Z" fill="url(#SVGID_31_)" fill-rule="nonzero" group-id="1,5,12" node-id="804" stroke="none" target-height="63" target-width="39.5" target-x="448.7" target-y="610.6"></path><path d="M 494.70 653.40 L 495.20 652.40 L 496.20 651.90 L 508.30 651.90 L 509.40 652.40 L 509.80 653.40 L 509.80 665.50 L 509.40 666.60 L 508.30 667.00 L 496.20 667.00 L 495.20 666.60 L 494.70 665.50 L 494.70 653.40 Z" fill="url(#SVGID_32_)" fill-rule="evenodd" group-id="1,5,12" node-id="806" stroke="none" target-height="15.099976" target-width="15.099976" target-x="494.7" target-y="651.9"></path><path d="M 497.50 656.70 L 497.80 656.40 L 506.70 656.40 L 507.00 656.70 L 507.00 658.20 L 506.70 658.50 L 497.80 658.50 L 497.50 658.20 L 497.50 656.70 Z" fill="#000000" fill-opacity="0.15" fill-rule="evenodd" group-id="1,5,12" node-id="808" stroke="none" target-height="2.0999756" target-width="9.5" target-x="497.5" target-y="656.4"></path><path d="M 497.50 660.80 L 497.80 660.50 L 506.70 660.50 L 507.00 660.80 L 507.00 662.30 L 506.70 662.60 L 497.80 662.60 L 497.50 662.30 L 497.50 660.80 Z" fill="#000000" fill-opacity="0.15" fill-rule="evenodd" group-id="1,5,12" node-id="810" stroke="none" target-height="2.0999756" target-width="9.5" target-x="497.5" target-y="660.5"></path></g><path d="M 542.50 651.00 L 541.30 651.20 L 539.40 652.30 L 538.30 654.30 L 538.10 655.50 L 540.20 669.80 L 540.70 671.30 L 541.70 672.40 L 543.00 673.20 L 544.50 673.50 L 549.00 673.30 L 550.10 672.20 L 550.30 671.30 L 550.10 652.20 L 549.00 651.10 L 548.10 650.90 L 542.50 650.90 Z" fill="url(#Arm-Right_1_)" fill-rule="nonzero" group-id="1,5" id="Arm-Right" node-id="177" stroke="none" target-height="22.599976" target-width="12.200012" target-x="538.1" target-y="650.9"></path><g node-id="908"><path d="M 414.90 642.00 L 415.10 608.90 L 416.40 605.30 L 418.90 602.40 L 422.20 600.40 L 426.20 599.70 L 430.10 600.40 L 433.50 602.30 L 435.90 605.30 L 437.30 608.90 L 437.50 642.10 L 414.90 642.00 Z" fill="url(#SVGID_33_)" fill-rule="evenodd" group-id="1,5,13" node-id="815" stroke="none" target-height="42.399963" target-width="22.600006" target-x="414.9" target-y="599.7"></path><path d="M 437.50 642.00 L 437.50 650.90 L 414.90 650.90 L 414.90 642.00 L 437.50 642.00 Z" fill="url(#SVGID_34_)" fill-rule="evenodd" group-id="1,5,13" node-id="817" stroke="none" target-height="8.900024" target-width="22.600006" target-x="414.9" target-y="642"></path><path d="M 471.30 651.00 L 476.90 645.40 L 478.20 644.60 L 479.70 644.30 L 481.20 644.60 L 482.50 645.40 L 483.40 646.60 L 483.70 648.20 L 483.40 649.70 L 482.50 651.00 L 492.20 651.20 L 493.20 651.60 L 494.80 653.20 L 495.40 656.00 L 493.20 669.60 L 492.40 670.90 L 490.10 672.90 L 487.10 673.60 L 426.20 673.60 L 424.10 673.40 L 420.50 672.10 L 418.90 671.00 L 416.50 668.10 L 415.10 664.40 L 414.90 662.40 L 414.90 651.10 L 471.30 651.00 Z" fill="url(#SVGID_35_)" fill-rule="nonzero" group-id="1,5,13" node-id="819" stroke="none" target-height="29.299988" target-width="80.5" target-x="414.9" target-y="644.3"></path></g></g><g node-id="901"><path d="M 328.40 773.00 L 387.20 773.00 L 387.20 836.00 L 328.40 836.00 Z" fill="url(#SVGID_36_)" fill-rule="nonzero" group-id="1,6" node-id="824" stroke="none" target-height="63" target-width="58.80002" target-x="328.4" target-y="773"></path><path d="M 348.50 773.00 L 367.10 773.00 L 367.10 790.10 L 348.50 790.10 Z" fill="url(#SVGID_37_)" fill-rule="nonzero" group-id="1,6" node-id="826" stroke="none" target-height="17.099976" target-width="18.600006" target-x="348.5" target-y="773"></path><path d="M 288.90 773.00 L 328.40 773.00 L 328.40 836.00 L 288.90 836.00 Z" fill="url(#SVGID_38_)" fill-rule="nonzero" group-id="1,6" node-id="828" stroke="none" target-height="63" target-width="39.5" target-x="288.9" target-y="773"></path><path d="M 334.90 815.90 L 335.30 814.90 L 336.40 814.40 L 348.50 814.40 L 349.60 814.90 L 350.00 815.90 L 350.00 828.00 L 349.60 829.00 L 348.50 829.50 L 336.40 829.50 L 335.30 829.00 L 334.90 828.00 L 334.90 815.90 Z" fill="url(#SVGID_39_)" fill-rule="evenodd" group-id="1,6" node-id="830" stroke="none" target-height="15.099976" target-width="15.100006" target-x="334.9" target-y="814.4"></path><path d="M 337.70 819.10 L 338.00 818.80 L 347.00 818.80 L 347.30 819.10 L 347.30 820.60 L 347.00 820.90 L 338.00 820.90 L 337.70 820.60 L 337.70 819.10 Z" fill="#000000" fill-opacity="0.15" fill-rule="evenodd" group-id="1,6" node-id="832" stroke="none" target-height="2.1000366" target-width="9.599976" target-x="337.7" target-y="818.8"></path><path d="M 337.70 823.20 L 338.00 822.90 L 347.00 822.90 L 347.30 823.20 L 347.30 824.70 L 347.00 825.00 L 338.00 825.00 L 337.70 824.70 L 337.70 823.20 Z" fill="#000000" fill-opacity="0.15" fill-rule="evenodd" group-id="1,6" node-id="834" stroke="none" target-height="2.0999756" target-width="9.599976" target-x="337.7" target-y="822.9"></path><path d="M 259.90 773.00 L 318.70 773.00 L 318.70 836.00 L 259.90 836.00 Z" fill="url(#SVGID_40_)" fill-rule="nonzero" group-id="1,6" node-id="836" stroke="none" target-height="63" target-width="58.80002" target-x="259.9" target-y="773"></path><path d="M 280.00 773.00 L 298.60 773.00 L 298.60 790.10 L 280.00 790.10 Z" fill="url(#SVGID_41_)" fill-rule="nonzero" group-id="1,6" node-id="838" stroke="none" target-height="17.099976" target-width="18.600006" target-x="280" target-y="773"></path><path d="M 220.30 773.00 L 259.80 773.00 L 259.80 836.00 L 220.30 836.00 Z" fill="url(#SVGID_42_)" fill-rule="nonzero" group-id="1,6" node-id="840" stroke="none" target-height="63" target-width="39.499985" target-x="220.3" target-y="773"></path><path d="M 266.40 815.90 L 266.90 814.90 L 267.90 814.40 L 280.00 814.40 L 281.10 814.90 L 281.50 815.90 L 281.50 828.00 L 281.10 829.00 L 280.00 829.50 L 267.90 829.50 L 266.90 829.00 L 266.40 828.00 L 266.40 815.90 Z" fill="url(#SVGID_43_)" fill-rule="evenodd" group-id="1,6" node-id="842" stroke="none" target-height="15.099976" target-width="15.100006" target-x="266.4" target-y="814.4"></path><path d="M 269.10 819.10 L 269.40 818.80 L 278.40 818.80 L 278.70 819.10 L 278.70 820.60 L 278.40 820.90 L 269.40 820.90 L 269.10 820.60 L 269.10 819.10 Z" fill="#000000" fill-opacity="0.15" fill-rule="evenodd" group-id="1,6" node-id="844" stroke="none" target-height="2.1000366" target-width="9.600006" target-x="269.1" target-y="818.8"></path><path d="M 269.10 823.20 L 269.40 822.90 L 278.40 822.90 L 278.70 823.20 L 278.70 824.70 L 278.40 825.00 L 269.40 825.00 L 269.10 824.70 L 269.10 823.20 Z" fill="#000000" fill-opacity="0.15" fill-rule="evenodd" group-id="1,6" node-id="846" stroke="none" target-height="2.0999756" target-width="9.600006" target-x="269.1" target-y="822.9"></path><path d="M 290.10 710.00 L 348.90 710.00 L 348.90 773.00 L 290.10 773.00 Z" fill="url(#SVGID_44_)" fill-rule="nonzero" group-id="1,6" node-id="848" stroke="none" target-height="63" target-width="58.799988" target-x="290.1" target-y="710"></path><path d="M 310.20 710.00 L 328.80 710.00 L 328.80 727.10 L 310.20 727.10 Z" fill="url(#SVGID_45_)" fill-rule="nonzero" group-id="1,6" node-id="850" stroke="none" target-height="17.099976" target-width="18.599976" target-x="310.2" target-y="710"></path><path d="M 250.60 710.00 L 290.10 710.00 L 290.10 773.00 L 250.60 773.00 Z" fill="url(#SVGID_46_)" fill-rule="nonzero" group-id="1,6" node-id="852" stroke="none" target-height="63" target-width="39.5" target-x="250.6" target-y="710"></path><path d="M 296.60 752.90 L 297.10 751.90 L 298.10 751.40 L 310.20 751.40 L 311.30 751.90 L 311.70 752.90 L 311.70 765.00 L 311.30 766.00 L 310.20 766.50 L 298.10 766.50 L 297.10 766.00 L 296.60 765.00 L 296.60 752.90 Z" fill="url(#SVGID_47_)" fill-rule="evenodd" group-id="1,6" node-id="854" stroke="none" target-height="15.099976" target-width="15.100006" target-x="296.6" target-y="751.4"></path><path d="M 299.50 756.10 L 299.80 755.80 L 308.70 755.80 L 309.00 756.10 L 309.00 757.60 L 308.70 757.90 L 299.80 757.90 L 299.50 757.60 L 299.50 756.10 Z" fill="#000000" fill-opacity="0.15" fill-rule="evenodd" group-id="1,6" node-id="856" stroke="none" target-height="2.1000366" target-width="9.5" target-x="299.5" target-y="755.8"></path><path d="M 299.50 760.30 L 299.80 760.00 L 308.70 760.00 L 309.00 760.30 L 309.00 761.80 L 308.70 762.10 L 299.80 762.10 L 299.50 761.80 L 299.50 760.30 Z" fill="#000000" fill-opacity="0.15" fill-rule="evenodd" group-id="1,6" node-id="858" stroke="none" target-height="2.0999756" target-width="9.5" target-x="299.5" target-y="760"></path><path d="M 258.50 647.10 L 317.30 647.10 L 317.30 710.10 L 258.50 710.10 Z" fill="url(#SVGID_48_)" fill-rule="nonzero" group-id="1,6" node-id="860" stroke="none" target-height="63" target-width="58.799988" target-x="258.5" target-y="647.1"></path><path d="M 278.60 647.10 L 297.20 647.10 L 297.20 664.20 L 278.60 664.20 Z" fill="url(#SVGID_49_)" fill-rule="nonzero" group-id="1,6" node-id="862" stroke="none" target-height="17.100037" target-width="18.600006" target-x="278.6" target-y="647.1"></path><path d="M 218.90 647.10 L 258.40 647.10 L 258.40 710.10 L 218.90 710.10 Z" fill="url(#SVGID_50_)" fill-rule="nonzero" group-id="1,6" node-id="864" stroke="none" target-height="63" target-width="39.5" target-x="218.9" target-y="647.1"></path><path d="M 265.00 689.90 L 265.50 688.90 L 266.50 688.40 L 278.60 688.40 L 279.70 688.90 L 280.10 689.90 L 280.10 702.00 L 279.70 703.00 L 278.60 703.50 L 266.50 703.50 L 265.50 703.00 L 265.00 702.00 L 265.00 689.90 Z" fill="url(#SVGID_51_)" fill-rule="evenodd" group-id="1,6" node-id="866" stroke="none" target-height="15.099976" target-width="15.100006" target-x="265" target-y="688.4"></path><path d="M 267.70 693.20 L 268.00 692.90 L 277.00 692.90 L 277.30 693.20 L 277.30 694.70 L 277.00 695.00 L 268.00 695.00 L 267.70 694.70 L 267.70 693.20 Z" fill="#000000" fill-opacity="0.15" fill-rule="evenodd" group-id="1,6" node-id="868" stroke="none" target-height="2.0999756" target-width="9.599976" target-x="267.7" target-y="692.9"></path><path d="M 267.70 697.30 L 268.00 697.00 L 277.00 697.00 L 277.30 697.30 L 277.30 698.80 L 277.00 699.10 L 268.00 699.10 L 267.70 698.80 L 267.70 697.30 Z" fill="#000000" fill-opacity="0.15" fill-rule="evenodd" group-id="1,6" node-id="870" stroke="none" target-height="2.0999756" target-width="9.599976" target-x="267.7" target-y="697"></path><path d="M 221.60 710.00 L 280.40 710.00 L 280.40 773.00 L 221.60 773.00 Z" fill="url(#SVGID_52_)" fill-rule="nonzero" group-id="1,6" node-id="872" stroke="none" target-height="63" target-width="58.799988" target-x="221.6" target-y="710"></path><path d="M 241.70 710.00 L 260.30 710.00 L 260.30 727.10 L 241.70 727.10 Z" fill="url(#SVGID_53_)" fill-rule="nonzero" group-id="1,6" node-id="874" stroke="none" target-height="17.099976" target-width="18.59999" target-x="241.7" target-y="710"></path><path d="M 182.10 710.00 L 221.60 710.00 L 221.60 773.00 L 182.10 773.00 Z" fill="url(#SVGID_54_)" fill-rule="nonzero" group-id="1,6" node-id="876" stroke="none" target-height="63" target-width="39.5" target-x="182.1" target-y="710"></path><path d="M 228.10 752.90 L 228.60 751.90 L 229.60 751.40 L 241.70 751.40 L 242.80 751.90 L 243.20 752.90 L 243.20 765.00 L 242.80 766.00 L 241.70 766.50 L 229.60 766.50 L 228.60 766.00 L 228.10 765.00 L 228.10 752.90 Z" fill="url(#SVGID_55_)" fill-rule="evenodd" group-id="1,6" node-id="878" stroke="none" target-height="15.099976" target-width="15.099991" target-x="228.1" target-y="751.4"></path><path d="M 230.90 756.10 L 231.20 755.80 L 240.10 755.80 L 240.40 756.10 L 240.40 757.60 L 240.10 757.90 L 231.20 757.90 L 230.90 757.60 L 230.90 756.10 Z" fill="#000000" fill-opacity="0.15" fill-rule="evenodd" group-id="1,6" node-id="880" stroke="none" target-height="2.1000366" target-width="9.5" target-x="230.9" target-y="755.8"></path><path d="M 230.90 760.30 L 231.20 760.00 L 240.10 760.00 L 240.40 760.30 L 240.40 761.80 L 240.10 762.10 L 231.20 762.10 L 230.90 761.80 L 230.90 760.30 Z" fill="#000000" fill-opacity="0.15" fill-rule="evenodd" group-id="1,6" node-id="882" stroke="none" target-height="2.0999756" target-width="9.5" target-x="230.9" target-y="760"></path><path d="M 250.10 836.00 L 197.00 836.00 L 191.40 825.10 L 191.40 773.10 L 250.20 773.10 L 250.20 836.00 Z" fill="url(#SVGID_56_)" fill-rule="evenodd" group-id="1,6" node-id="884" stroke="none" target-height="62.900024" target-width="58.800003" target-x="191.4" target-y="773.1"></path><path d="M 211.40 773.00 L 230.00 773.00 L 230.00 790.10 L 211.40 790.10 Z" fill="url(#SVGID_57_)" fill-rule="nonzero" group-id="1,6" node-id="886" stroke="none" target-height="17.099976" target-width="18.600006" target-x="211.4" target-y="773"></path><path d="M 191.30 825.00 L 164.40 773.00 L 191.30 773.00 L 191.30 825.00 Z" fill="url(#SVGID_58_)" fill-rule="evenodd" group-id="1,6" node-id="888" stroke="none" target-height="52" target-width="26.90001" target-x="164.4" target-y="773"></path><path d="M 197.80 815.90 L 198.30 814.90 L 199.30 814.40 L 211.40 814.40 L 212.50 814.90 L 212.90 815.90 L 212.90 828.00 L 212.50 829.00 L 211.40 829.50 L 199.30 829.50 L 198.30 829.00 L 197.80 828.00 L 197.80 815.90 Z" fill="url(#SVGID_59_)" fill-rule="evenodd" group-id="1,6" node-id="890" stroke="none" target-height="15.099976" target-width="15.099991" target-x="197.8" target-y="814.4"></path><path d="M 200.60 819.10 L 200.90 818.80 L 209.80 818.80 L 210.10 819.10 L 210.10 820.60 L 209.80 820.90 L 200.90 820.90 L 200.60 820.60 L 200.60 819.10 Z" fill="#000000" fill-opacity="0.15" fill-rule="evenodd" group-id="1,6" node-id="892" stroke="none" target-height="2.1000366" target-width="9.5" target-x="200.6" target-y="818.8"></path><path d="M 200.60 823.20 L 200.90 822.90 L 209.80 822.90 L 210.10 823.20 L 210.10 824.70 L 209.80 825.00 L 200.90 825.00 L 200.60 824.70 L 200.60 823.20 Z" fill="#000000" fill-opacity="0.15" fill-rule="evenodd" group-id="1,6" node-id="894" stroke="none" target-height="2.0999756" target-width="9.5" target-x="200.6" target-y="822.9"></path></g></g></svg>