<?xml version="1.0" standalone="no"?><!DOCTYPE svg PUBLIC "-//W3C//DTD SVG 1.1//EN" "http://www.w3.org/Graphics/SVG/1.1/DTD/svg11.dtd"><svg height="1024" node-id="1" sillyvg="true" template-height="1024" template-width="1024" version="1.1" viewBox="0 0 1024 1024" width="1024" xmlns="http://www.w3.org/2000/svg" xmlns:xlink="http://www.w3.org/1999/xlink"><defs node-id="339"><linearGradient gradientUnits="objectBoundingBox" id="SVGID_1_" node-id="11" spreadMethod="pad" x1="-4082.9365" x2="-4082.3953" y1="-191.2631" y2="-191.2631"><stop offset="0" stop-color="#ffbc56"></stop><stop offset="1" stop-color="#ff5133"></stop></linearGradient><linearGradient gradientUnits="objectBoundingBox" id="SVGID_2_" node-id="15" spreadMethod="pad" x1="-4082.8213" x2="-4082.2803" y1="-239.998" y2="-239.998"><stop offset="0" stop-color="#ffbc56"></stop><stop offset="1" stop-color="#ff5133"></stop></linearGradient><linearGradient gradientUnits="objectBoundingBox" id="SVGID_3_" node-id="19" spreadMethod="pad" x1="-4083.3245" x2="-4082.7668" y1="-228.8884" y2="-228.8884"><stop offset="0" stop-color="#ffbc56"></stop><stop offset="1" stop-color="#ff5133"></stop></linearGradient><linearGradient gradientUnits="objectBoundingBox" id="SVGID_4_" node-id="23" spreadMethod="pad" x1="-4083.6428" x2="-4083.085" y1="-218.7127" y2="-218.7127"><stop offset="0" stop-color="#f0e7df"></stop><stop offset="1" stop-color="#b5977a"></stop></linearGradient><linearGradient gradientUnits="objectBoundingBox" id="SVGID_5_" node-id="27" spreadMethod="pad" x1="-4083.981" x2="-4083.4395" y1="-196.8116" y2="-196.8116"><stop offset="0" stop-color="#ff5133"></stop><stop offset="1" stop-color="#ffbc56"></stop></linearGradient><linearGradient gradientUnits="objectBoundingBox" id="SVGID_6_" node-id="32" spreadMethod="pad" x1="-4083.6833" x2="-4083.1255" y1="-211.8729" y2="-211.8729"><stop offset="0" stop-color="#2b5acc"></stop><stop offset="1" stop-color="#152873"></stop></linearGradient><linearGradient gradientUnits="objectBoundingBox" id="SVGID_7_" node-id="36" spreadMethod="pad" x1="-4082.5974" x2="-4082.0396" y1="-413.6437" y2="-413.6437"><stop offset="0" stop-color="#ffffff"></stop><stop offset="1" stop-color="#f0e7df"></stop></linearGradient><linearGradient gradientUnits="objectBoundingBox" id="SVGID_8_" node-id="40" spreadMethod="pad" x1="-4083.0305" x2="-4082.4727" y1="-223.1291" y2="-223.1291"><stop offset="0" stop-color="#e1f2ff"></stop><stop offset="1" stop-color="#95d2ff"></stop></linearGradient><linearGradient gradientUnits="objectBoundingBox" id="SVGID_9_" node-id="44" spreadMethod="pad" x1="-4082.9492" x2="-4082.408" y1="-207.5264" y2="-207.5264"><stop offset="0" stop-color="#e1f2ff"></stop><stop offset="1" stop-color="#95d2ff"></stop></linearGradient><linearGradient gradientUnits="objectBoundingBox" id="SVGID_10_" node-id="48" spreadMethod="pad" x1="-4083.691" x2="-4083.15" y1="-218.6176" y2="-218.6176"><stop offset="0" stop-color="#f0e7df"></stop><stop offset="1" stop-color="#b5977a"></stop></linearGradient><linearGradient gradientUnits="objectBoundingBox" id="SVGID_11_" node-id="52" spreadMethod="pad" x1="-4083.8967" x2="-4083.3389" y1="-230.9035" y2="-230.9035"><stop offset="0" stop-color="#ffffff"></stop><stop offset="1" stop-color="#f0e7df"></stop></linearGradient><linearGradient gradientUnits="objectBoundingBox" id="SVGID_12_" node-id="58" spreadMethod="pad" x1="-4090.4822" x2="-4089.9243" y1="-235.1302" y2="-235.0975"><stop offset="0" stop-color="#ffffff"></stop><stop offset="1" stop-color="#f0e7df"></stop></linearGradient><linearGradient gradientUnits="objectBoundingBox" id="SVGID_13_" node-id="62" spreadMethod="pad" x1="-4056.455" x2="-4055.8977" y1="-254.0072" y2="-253.9253"><stop offset="0" stop-color="#ffddd3"></stop><stop offset="0.54" stop-color="#ffbbaa"></stop><stop offset="1" stop-color="#ffae9a"></stop></linearGradient><linearGradient gradientUnits="objectBoundingBox" id="SVGID_14_" node-id="68" spreadMethod="pad" x1="-4083.9143" x2="-4083.373" y1="-297.0331" y2="-297.0331"><stop offset="0" stop-color="#ffffff"></stop><stop offset="1" stop-color="#f0e7df"></stop></linearGradient><linearGradient gradientUnits="objectBoundingBox" id="SVGID_15_" node-id="72" spreadMethod="pad" x1="-4083.9753" x2="-4083.4175" y1="-154.1684" y2="-154.1684"><stop offset="0" stop-color="#2b5acc"></stop><stop offset="1" stop-color="#152873"></stop></linearGradient><linearGradient gradientUnits="objectBoundingBox" id="SVGID_16_" node-id="76" spreadMethod="pad" x1="-4084.0112" x2="-4083.4697" y1="-154.4305" y2="-154.4305"><stop offset="0" stop-color="#2b5acc"></stop><stop offset="1" stop-color="#152873"></stop></linearGradient><linearGradient gradientUnits="objectBoundingBox" id="SVGID_17_" node-id="80" spreadMethod="pad" x1="-4124.964" x2="-4124.4063" y1="-287.9577" y2="-287.3344"><stop offset="0" stop-color="#ffddd3"></stop><stop offset="0.54" stop-color="#ffbbaa"></stop><stop offset="1" stop-color="#ffae9a"></stop></linearGradient><linearGradient gradientUnits="objectBoundingBox" id="SVGID_18_" node-id="86" spreadMethod="pad" x1="-4083.439" x2="-4082.898" y1="-200.3611" y2="-200.3611"><stop offset="0" stop-color="#2b5acc"></stop><stop offset="1" stop-color="#152873"></stop></linearGradient><linearGradient gradientUnits="objectBoundingBox" id="SVGID_19_" node-id="90" spreadMethod="pad" x1="-4086.3909" x2="-4085.8335" y1="-193.5327" y2="-193.5327"><stop offset="0" stop-color="#ff5133"></stop><stop offset="1" stop-color="#ffbc56"></stop></linearGradient><linearGradient gradientUnits="objectBoundingBox" id="SVGID_20_" node-id="95" spreadMethod="pad" x1="-4081.0403" x2="-4080.4824" y1="-238.3301" y2="-238.3301"><stop offset="0" stop-color="#ffbc56"></stop><stop offset="1" stop-color="#ff5133"></stop></linearGradient><linearGradient gradientUnits="objectBoundingBox" id="SVGID_21_" node-id="99" spreadMethod="pad" x1="-4081.159" x2="-4080.6177" y1="-231.1166" y2="-231.1166"><stop offset="0" stop-color="#ffddd3"></stop><stop offset="0.54" stop-color="#ffbbaa"></stop><stop offset="1" stop-color="#ffae9a"></stop></linearGradient><linearGradient gradientUnits="objectBoundingBox" id="SVGID_22_" node-id="104" spreadMethod="pad" x1="-4081.532" x2="-4080.9744" y1="-228.7359" y2="-228.7359"><stop offset="0" stop-color="#ffddd3"></stop><stop offset="0.54" stop-color="#ffbbaa"></stop><stop offset="1" stop-color="#ffae9a"></stop></linearGradient><linearGradient gradientUnits="objectBoundingBox" id="SVGID_23_" node-id="109" spreadMethod="pad" x1="-4155.749" x2="-4155.208" y1="-202.8126" y2="-202.8126"><stop offset="0" stop-color="#f58b71"></stop><stop offset="1" stop-color="#fca289"></stop></linearGradient><linearGradient gradientUnits="objectBoundingBox" id="Table_1_" node-id="113" spreadMethod="pad" x1="-4082.7769" x2="-4082.2354" y1="-240.6425" y2="-240.6425"><stop offset="0" stop-color="#ceb8a3"></stop><stop offset="1" stop-color="#b5977a"></stop></linearGradient><linearGradient gradientUnits="objectBoundingBox" id="SVGID_24_" node-id="118" spreadMethod="pad" x1="-4082.0898" x2="-4081.5488" y1="-240.3164" y2="-240.3164"><stop offset="0" stop-color="#ffddd3"></stop><stop offset="0.54" stop-color="#ffbbaa"></stop><stop offset="1" stop-color="#ffae9a"></stop></linearGradient><linearGradient gradientUnits="objectBoundingBox" id="SVGID_25_" node-id="123" spreadMethod="pad" x1="-4083.1826" x2="-4082.6248" y1="-225.5306" y2="-225.5306"><stop offset="0" stop-color="#ffffff"></stop><stop offset="1" stop-color="#f0e7df"></stop></linearGradient><linearGradient gradientUnits="objectBoundingBox" id="SVGID_26_" node-id="128" spreadMethod="pad" x1="-4082.9993" x2="-4082.4578" y1="-261.4338" y2="-261.4338"><stop offset="0" stop-color="#ffffff"></stop><stop offset="1" stop-color="#f0e7df"></stop></linearGradient><linearGradient gradientUnits="objectBoundingBox" id="SVGID_27_" node-id="132" spreadMethod="pad" x1="-4082.7207" x2="-4082.1633" y1="-184.3551" y2="-184.3551"><stop offset="0" stop-color="#2b5acc"></stop><stop offset="1" stop-color="#152873"></stop></linearGradient><linearGradient gradientUnits="objectBoundingBox" id="SVGID_28_" node-id="136" spreadMethod="pad" x1="-4082.5515" x2="-4082.0103" y1="-184.3923" y2="-184.3923"><stop offset="0" stop-color="#2b5acc"></stop><stop offset="1" stop-color="#152873"></stop></linearGradient><linearGradient gradientUnits="objectBoundingBox" id="SVGID_29_" node-id="141" spreadMethod="pad" x1="-4082.0574" x2="-4081.4998" y1="-131.0355" y2="-131.0355"><stop offset="0" stop-color="#2b5acc"></stop><stop offset="1" stop-color="#152873"></stop></linearGradient><linearGradient gradientUnits="objectBoundingBox" id="SVGID_30_" node-id="145" spreadMethod="pad" x1="-4086.1606" x2="-4085.603" y1="-143.9617" y2="-143.9617"><stop offset="0" stop-color="#ff3a23"></stop><stop offset="1" stop-color="#ff963e"></stop></linearGradient><linearGradient gradientUnits="objectBoundingBox" id="SVGID_31_" node-id="149" spreadMethod="pad" x1="-4086.1748" x2="-4085.6333" y1="-151.8809" y2="-151.8809"><stop offset="0" stop-color="#ff5133"></stop><stop offset="1" stop-color="#ffbc56"></stop></linearGradient><linearGradient gradientUnits="objectBoundingBox" id="SVGID_32_" node-id="153" spreadMethod="pad" x1="-4085.3" x2="-4084.759" y1="-187.3703" y2="-187.3703"><stop offset="0" stop-color="#ff5133"></stop><stop offset="1" stop-color="#ffbc56"></stop></linearGradient><linearGradient gradientUnits="objectBoundingBox" id="SVGID_33_" node-id="157" spreadMethod="pad" x1="-4085.7737" x2="-4085.2163" y1="-95.2274" y2="-95.2274"><stop offset="0" stop-color="#ff5133"></stop><stop offset="1" stop-color="#ffbc56"></stop></linearGradient><linearGradient gradientUnits="objectBoundingBox" id="SVGID_34_" node-id="161" spreadMethod="pad" x1="-4082.7058" x2="-4082.165" y1="-166.0822" y2="-166.0822"><stop offset="0" stop-color="#2b5acc"></stop><stop offset="1" stop-color="#152873"></stop></linearGradient><linearGradient gradientUnits="objectBoundingBox" id="SVGID_35_" node-id="165" spreadMethod="pad" x1="-4085.7737" x2="-4085.2163" y1="-125.4527" y2="-125.4527"><stop offset="0" stop-color="#ff5133"></stop><stop offset="1" stop-color="#ffbc56"></stop></linearGradient><linearGradient gradientUnits="objectBoundingBox" id="SVGID_36_" node-id="169" spreadMethod="pad" x1="-4082.0574" x2="-4081.4998" y1="-154.6235" y2="-154.6235"><stop offset="0" stop-color="#2b5acc"></stop><stop offset="1" stop-color="#152873"></stop></linearGradient><linearGradient gradientUnits="objectBoundingBox" id="SVGID_37_" node-id="173" spreadMethod="pad" x1="-4086.2231" x2="-4085.6653" y1="-92.1128" y2="-92.1128"><stop offset="0" stop-color="#ffbc56"></stop><stop offset="1" stop-color="#ff5133"></stop></linearGradient><linearGradient gradientUnits="objectBoundingBox" id="SVGID_38_" node-id="177" spreadMethod="pad" x1="-4080.704" x2="-4080.1462" y1="-105.9275" y2="-105.9275"><stop offset="0" stop-color="#152873"></stop><stop offset="1" stop-color="#2b5acc"></stop></linearGradient><linearGradient gradientUnits="objectBoundingBox" id="SVGID_39_" node-id="182" spreadMethod="pad" x1="-4071.914" x2="-4071.3562" y1="-55.0437" y2="-55.0437"><stop offset="0" stop-color="#2b5acc"></stop><stop offset="1" stop-color="#152873"></stop></linearGradient><linearGradient gradientUnits="objectBoundingBox" id="SVGID_40_" node-id="186" spreadMethod="pad" x1="-4082.429" x2="-4081.8875" y1="-321.2423" y2="-321.2423"><stop offset="0" stop-color="#ffffff"></stop><stop offset="1" stop-color="#f0e7df"></stop></linearGradient><linearGradient gradientUnits="objectBoundingBox" id="SVGID_41_" node-id="190" spreadMethod="pad" x1="-4102.294" x2="-4101.7363" y1="11.1892" y2="11.1892"><stop offset="0" stop-color="#ff5133"></stop><stop offset="1" stop-color="#ffbc56"></stop></linearGradient><linearGradient gradientUnits="objectBoundingBox" id="SVGID_42_" node-id="194" spreadMethod="pad" x1="-4073.4717" x2="-4072.931" y1="-311.7201" y2="-311.7201"><stop offset="0" stop-color="#ffffff"></stop><stop offset="1" stop-color="#f0e7df"></stop></linearGradient><linearGradient gradientUnits="objectBoundingBox" id="SVGID_43_" node-id="198" spreadMethod="pad" x1="-4080.2178" x2="-4079.6768" y1="-143.2312" y2="-143.2312"><stop offset="0" stop-color="#2b5acc"></stop><stop offset="1" stop-color="#152873"></stop></linearGradient><linearGradient gradientUnits="objectBoundingBox" id="SVGID_44_" node-id="202" spreadMethod="pad" x1="-4077.6606" x2="-4077.1194" y1="-83.8004" y2="-83.8004"><stop offset="0" stop-color="#152873"></stop><stop offset="1" stop-color="#2b5acc"></stop></linearGradient><linearGradient gradientUnits="objectBoundingBox" id="SVGID_45_" node-id="206" spreadMethod="pad" x1="-4070.3323" x2="-4069.7913" y1="51.9226" y2="51.9226"><stop offset="0" stop-color="#2b5acc"></stop><stop offset="1" stop-color="#152873"></stop></linearGradient><linearGradient gradientUnits="objectBoundingBox" id="SVGID_46_" node-id="210" spreadMethod="pad" x1="-4061.5237" x2="-4060.9663" y1="240.9441" y2="240.9441"><stop offset="0" stop-color="#e1f2ff"></stop><stop offset="1" stop-color="#95d2ff"></stop></linearGradient><linearGradient gradientUnits="objectBoundingBox" id="SVGID_47_" node-id="214" spreadMethod="pad" x1="-4045.9944" x2="-4045.4365" y1="566.02" y2="566.02"><stop offset="0" stop-color="#e1f2ff"></stop><stop offset="1" stop-color="#95d2ff"></stop></linearGradient><linearGradient gradientUnits="objectBoundingBox" id="SVGID_48_" node-id="219" spreadMethod="pad" x1="-4062.7012" x2="-4062.16" y1="-476.7025" y2="-476.7025"><stop offset="0" stop-color="#ffffff"></stop><stop offset="1" stop-color="#f0e7df"></stop></linearGradient><linearGradient gradientUnits="objectBoundingBox" id="SVGID_49_" node-id="223" spreadMethod="pad" x1="-4085.879" x2="-4085.3376" y1="-69.2371" y2="-69.2371"><stop offset="0" stop-color="#ff3a23"></stop><stop offset="1" stop-color="#ff963e"></stop></linearGradient><linearGradient gradientUnits="objectBoundingBox" id="SVGID_50_" node-id="227" spreadMethod="pad" x1="-4076.046" x2="-4075.5046" y1="-405.0381" y2="-405.0381"><stop offset="0" stop-color="#ffffff"></stop><stop offset="1" stop-color="#decbba"></stop></linearGradient><linearGradient gradientUnits="objectBoundingBox" id="SVGID_51_" node-id="231" spreadMethod="pad" x1="-4085.879" x2="-4085.3376" y1="-162.0301" y2="-162.0301"><stop offset="0" stop-color="#ff5133"></stop><stop offset="1" stop-color="#ffbc56"></stop></linearGradient><linearGradient gradientUnits="objectBoundingBox" id="SVGID_52_" node-id="235" spreadMethod="pad" x1="-4076.046" x2="-4075.5046" y1="-284.6334" y2="-284.6334"><stop offset="0" stop-color="#ffffff"></stop><stop offset="1" stop-color="#f0e7df"></stop></linearGradient><linearGradient gradientUnits="objectBoundingBox" id="SVGID_53_" node-id="240" spreadMethod="pad" x1="-4077.3638" x2="-4076.8064" y1="-724.8712" y2="-724.8712"><stop offset="0" stop-color="#ffffff"></stop><stop offset="1" stop-color="#f0e7df"></stop></linearGradient><linearGradient gradientUnits="objectBoundingBox" id="SVGID_54_" node-id="244" spreadMethod="pad" x1="-4082.2524" x2="-4081.711" y1="-348.9145" y2="-348.9145"><stop offset="0" stop-color="#ffffff"></stop><stop offset="1" stop-color="#decbba"></stop></linearGradient><linearGradient gradientUnits="objectBoundingBox" id="SVGID_55_" node-id="248" spreadMethod="pad" x1="-4082.2524" x2="-4081.711" y1="-323.2545" y2="-323.2545"><stop offset="0" stop-color="#ffffff"></stop><stop offset="1" stop-color="#f0e7df"></stop></linearGradient><linearGradient gradientUnits="objectBoundingBox" id="SVGID_56_" node-id="252" spreadMethod="pad" x1="-4081.494" x2="-4080.9531" y1="-134.502" y2="-134.502"><stop offset="0" stop-color="#2b5acc"></stop><stop offset="1" stop-color="#152873"></stop></linearGradient><linearGradient gradientUnits="objectBoundingBox" id="SVGID_57_" node-id="256" spreadMethod="pad" x1="-4079.6575" x2="-4079.0996" y1="-71.3319" y2="-71.3319"><stop offset="0" stop-color="#152873"></stop><stop offset="1" stop-color="#2b5acc"></stop></linearGradient><linearGradient gradientUnits="objectBoundingBox" id="SVGID_58_" node-id="261" spreadMethod="pad" x1="-4090.064" x2="-4089.5227" y1="-81.9687" y2="-81.9687"><stop offset="0" stop-color="#ff5133"></stop><stop offset="1" stop-color="#ffbc56"></stop></linearGradient><linearGradient gradientUnits="objectBoundingBox" id="SVGID_59_" node-id="265" spreadMethod="pad" x1="-4078.6748" x2="-4078.1333" y1="-81.9687" y2="-81.9687"><stop offset="0" stop-color="#ffbc56"></stop><stop offset="1" stop-color="#ff5133"></stop></linearGradient><linearGradient gradientUnits="objectBoundingBox" id="SVGID_60_" node-id="269" spreadMethod="pad" x1="-4081.6973" x2="-4081.14" y1="-334.9248" y2="-334.9248"><stop offset="0" stop-color="#ffffff"></stop><stop offset="1" stop-color="#f0e7df"></stop></linearGradient><linearGradient gradientUnits="objectBoundingBox" id="SVGID_61_" node-id="273" spreadMethod="pad" x1="-4080.746" x2="-4080.1887" y1="-123.3291" y2="-123.3291"><stop offset="0" stop-color="#2b5acc"></stop><stop offset="1" stop-color="#152873"></stop></linearGradient><linearGradient gradientUnits="objectBoundingBox" id="SVGID_62_" node-id="277" spreadMethod="pad" x1="-4079.6792" x2="-4079.1384" y1="-123.3282" y2="-123.3282"><stop offset="0" stop-color="#2b5acc"></stop><stop offset="1" stop-color="#152873"></stop></linearGradient><linearGradient gradientUnits="objectBoundingBox" id="SVGID_63_" node-id="282" spreadMethod="pad" x1="-4082.8574" x2="-4082.2996" y1="-223.256" y2="-223.256"><stop offset="0" stop-color="#ffffff"></stop><stop offset="1" stop-color="#f0e7df"></stop></linearGradient><linearGradient gradientUnits="objectBoundingBox" id="SVGID_64_" node-id="286" spreadMethod="pad" x1="-4086.303" x2="-4085.745" y1="-176.4033" y2="-176.4033"><stop offset="0" stop-color="#ff5133"></stop><stop offset="1" stop-color="#ffbc56"></stop></linearGradient><linearGradient gradientUnits="objectBoundingBox" id="SVGID_65_" node-id="290" spreadMethod="pad" x1="-4082.366" x2="-4081.808" y1="-259.9344" y2="-259.9344"><stop offset="0" stop-color="#f0e7df"></stop><stop offset="1" stop-color="#cfb7a1"></stop></linearGradient><linearGradient gradientUnits="objectBoundingBox" id="SVGID_66_" node-id="294" spreadMethod="pad" x1="-4082.366" x2="-4081.808" y1="-259.4992" y2="-259.4992"><stop offset="0" stop-color="#f0e7df"></stop><stop offset="1" stop-color="#cfb7a1"></stop></linearGradient><linearGradient gradientUnits="objectBoundingBox" id="SVGID_67_" node-id="299" spreadMethod="pad" x1="-4074.8237" x2="-4074.2659" y1="-228.2822" y2="-228.2822"><stop offset="0" stop-color="#ffffff"></stop><stop offset="1" stop-color="#f0e7df"></stop></linearGradient><linearGradient gradientUnits="objectBoundingBox" id="SVGID_68_" node-id="303" spreadMethod="pad" x1="-4092.4395" x2="-4091.8818" y1="-197.8273" y2="-197.8273"><stop offset="0" stop-color="#ff5133"></stop><stop offset="1" stop-color="#ffbc56"></stop></linearGradient><linearGradient gradientUnits="objectBoundingBox" id="SVGID_69_" node-id="307" spreadMethod="pad" x1="-4080.3386" x2="-4079.7808" y1="-425.8082" y2="-425.8082"><stop offset="0" stop-color="#ffffff"></stop><stop offset="1" stop-color="#f0e7df"></stop></linearGradient><linearGradient gradientUnits="objectBoundingBox" id="SVGID_70_" node-id="311" spreadMethod="pad" x1="-4077.4524" x2="-4076.8945" y1="-630.1869" y2="-630.1869"><stop offset="0" stop-color="#f0e7df"></stop><stop offset="1" stop-color="#ffffff"></stop></linearGradient><linearGradient gradientUnits="objectBoundingBox" id="SVGID_71_" node-id="316" spreadMethod="pad" x1="-4079.0105" x2="-4078.4692" y1="-414.1952" y2="-414.1952"><stop offset="0" stop-color="#ffffff"></stop><stop offset="1" stop-color="#f0e7df"></stop></linearGradient><linearGradient gradientUnits="objectBoundingBox" id="SVGID_72_" node-id="320" spreadMethod="pad" x1="-4079.0178" x2="-4078.4763" y1="173.9494" y2="173.9494"><stop offset="0" stop-color="#ffffff"></stop><stop offset="1" stop-color="#f0e7df"></stop></linearGradient><linearGradient gradientUnits="objectBoundingBox" id="SVGID_73_" node-id="324" spreadMethod="pad" x1="-4079.441" x2="-4078.883" y1="-514.9224" y2="-514.9224"><stop offset="0" stop-color="#ffffff"></stop><stop offset="1" stop-color="#f0e7df"></stop></linearGradient><linearGradient gradientUnits="objectBoundingBox" id="SVGID_74_" node-id="330" spreadMethod="pad" x1="-4083.6235" x2="-4083.0662" y1="-173.7906" y2="-173.7906"><stop offset="0" stop-color="#2b5acc"></stop><stop offset="1" stop-color="#152873"></stop></linearGradient><linearGradient gradientUnits="objectBoundingBox" id="SVGID_75_" node-id="334" spreadMethod="pad" x1="-4084.1152" x2="-4083.5742" y1="-193.7081" y2="-193.7081"><stop offset="0" stop-color="#ff5133"></stop><stop offset="1" stop-color="#ffbc56"></stop></linearGradient></defs><g node-id="1004"><g node-id="1005"><g node-id="1006"><path d="M 513.60 860.10 L 533.30 859.40 L 552.70 858.30 L 571.90 856.70 L 590.90 854.70 L 609.70 852.20 L 628.50 849.30 L 647.00 845.90 L 665.10 842.10 L 682.90 837.80 L 700.30 833.20 L 717.80 828.00 L 734.80 822.30 L 751.30 816.30 L 767.40 809.80 L 783.10 803.00 L 798.70 795.50 L 813.70 787.60 L 828.10 779.30 L 842.10 770.60 L 855.50 761.50 L 866.50 753.40 L 877.00 745.10 L 887.10 736.40 L 896.80 727.50 L 906.10 718.30 L 915.00 708.80 L 923.50 698.90 L 931.60 688.70 L 939.20 678.20 L 946.30 667.40 L 953.00 656.30 L 959.20 644.80 L 964.90 633.10 L 970.00 621.10 L 974.70 608.80 L 978.80 596.10 L 982.50 583.00 L 985.60 569.40 L 988.10 556.10 L 990.00 542.30 L 991.30 528.10 L 992.00 513.40 L 992.20 498.30 L 991.70 482.70 L 990.60 467.50 L 988.90 453.20 L 986.80 439.70 L 984.30 427.00 L 981.20 414.90 L 977.60 402.70 L 973.50 391.10 L 969.00 380.30 L 964.20 370.10 L 959.00 360.50 L 953.20 351.00 L 947.10 342.10 L 940.70 333.70 L 934.00 325.90 L 926.90 318.70 L 919.40 311.70 L 911.70 305.20 L 903.60 299.20 L 895.40 293.70 L 886.80 288.70 L 878.00 284.00 L 868.90 279.80 L 859.70 276.10 L 850.20 272.70 L 840.50 269.80 L 830.70 267.30 L 820.80 265.20 L 810.70 263.50 L 800.40 262.20 L 790.00 261.20 L 776.90 260.60 L 763.80 260.60 L 750.50 261.20 L 737.00 262.30 L 726.60 263.70 L 716.50 265.60 L 706.60 268.10 L 697.00 271.00 L 687.40 274.40 L 678.10 278.30 L 668.80 282.50 L 659.70 287.10 L 647.80 293.80 L 636.10 300.90 L 624.50 308.50 L 607.60 320.50 L 590.80 333.10 L 541.40 371.60 L 525.00 383.80 L 513.90 391.50 L 502.80 398.80 L 491.60 405.60 L 483.10 410.40 L 465.80 418.70 L 457.00 422.30 L 448.10 425.50 L 439.00 428.10 L 429.80 430.30 L 420.50 431.90 L 409.20 433.20 L 397.40 433.90 L 385.10 434.10 L 372.80 433.80 L 347.20 432.20 L 327.80 430.10 L 248.10 419.40 L 228.60 417.10 L 202.80 414.80 L 190.40 414.20 L 177.90 413.90 L 165.90 414.20 L 154.40 415.00 L 145.80 415.90 L 137.40 417.30 L 129.40 419.00 L 121.60 421.00 L 114.00 423.50 L 106.70 426.50 L 99.70 430.00 L 92.90 433.90 L 87.80 437.30 L 82.90 441.20 L 78.20 445.40 L 73.70 450.10 L 69.30 455.10 L 64.00 462.10 L 59.00 469.50 L 54.50 477.10 L 50.30 485.00 L 46.60 493.20 L 43.20 501.60 L 40.30 510.20 L 37.80 519.00 L 35.70 528.00 L 34.10 537.30 L 32.90 546.60 L 32.10 556.10 L 31.80 565.70 L 32.00 575.40 L 32.60 585.40 L 33.70 595.20 L 35.30 605.10 L 37.30 615.00 L 39.90 625.10 L 43.00 635.30 L 46.50 645.20 L 50.50 655.00 L 55.10 665.00 L 60.20 674.90 L 66.00 684.90 L 72.00 694.40 L 78.70 703.90 L 86.00 713.40 L 93.80 722.80 L 102.40 732.10 L 111.20 741.00 L 120.60 749.60 L 130.70 758.20 L 141.50 766.60 L 153.00 775.00 L 164.60 782.60 L 176.90 790.10 L 190.00 797.40 L 203.90 804.40 L 218.70 811.30 L 233.20 817.40 L 248.60 823.30 L 264.90 828.80 L 282.00 834.00 L 300.10 839.00 L 317.80 843.20 L 336.40 847.00 L 356.00 850.40 L 376.60 853.40 L 398.20 855.90 L 419.10 857.80 L 441.10 859.20 L 464.20 860.10 L 488.30 860.40 L 513.60 860.10 Z M 343.60 163.60 L 331.10 163.90 L 318.90 164.50 L 307.10 165.70 L 295.60 167.30 L 284.10 169.30 L 273.10 171.70 L 262.50 174.50 L 252.40 177.60 L 242.40 181.20 L 232.90 185.00 L 224.10 189.20 L 215.90 193.50 L 207.70 198.40 L 200.30 203.50 L 193.60 208.80 L 187.60 214.20 L 183.00 219.00 L 178.80 223.80 L 175.20 228.60 L 172.10 233.60 L 169.40 238.60 L 167.00 243.90 L 165.20 249.20 L 164.00 254.60 L 163.20 260.10 L 162.90 265.70 L 163.20 271.30 L 164.00 276.80 L 165.20 282.20 L 167.00 287.50 L 169.40 292.80 L 172.10 297.80 L 175.20 302.80 L 178.80 307.60 L 183.00 312.40 L 187.60 317.20 L 193.60 322.60 L 200.30 327.90 L 207.70 333.00 L 215.90 337.90 L 224.10 342.20 L 232.90 346.40 L 242.40 350.20 L 252.40 353.80 L 262.50 356.90 L 273.10 359.70 L 284.10 362.10 L 295.60 364.10 L 307.10 365.70 L 318.90 366.90 L 331.10 367.50 L 343.60 367.80 L 356.10 367.60 L 368.30 366.90 L 380.10 365.70 L 391.60 364.20 L 403.10 362.10 L 414.10 359.70 L 424.70 357.00 L 434.80 353.90 L 444.80 350.30 L 454.30 346.40 L 463.10 342.30 L 471.30 337.90 L 479.50 333.00 L 486.90 327.90 L 493.60 322.70 L 499.60 317.20 L 504.20 312.50 L 508.40 307.70 L 512.00 302.80 L 515.10 297.90 L 517.80 292.80 L 520.20 287.60 L 522.00 282.20 L 523.20 276.80 L 524.00 271.30 L 524.30 265.70 L 524.00 260.10 L 523.20 254.60 L 522.00 249.20 L 520.20 243.80 L 517.80 238.60 L 515.10 233.50 L 512.00 228.60 L 508.40 223.70 L 504.20 218.90 L 499.60 214.20 L 493.60 208.70 L 486.90 203.50 L 479.50 198.40 L 471.30 193.50 L 463.10 189.10 L 454.30 185.00 L 444.80 181.10 L 434.80 177.50 L 424.70 174.40 L 414.10 171.70 L 403.10 169.30 L 391.60 167.20 L 380.10 165.70 L 368.30 164.50 L 356.10 163.80 L 343.60 163.60 Z" fill="#cde6ff" fill-rule="evenodd" group-id="1,2,3" node-id="812" stroke="none" target-height="696.80005" target-width="960.4" target-x="31.8" target-y="163.6"></path><path d="M 990.00 541.80 L 988.20 554.80 L 986.00 567.50 L 983.30 579.80 L 980.10 591.80 L 976.50 603.40 L 972.50 614.80 L 967.90 626.10 L 963.00 637.00 L 957.60 647.70 L 951.90 658.20 L 945.70 668.30 L 939.10 678.20 L 932.20 687.80 L 924.90 697.20 L 917.20 706.30 L 909.10 715.10 L 900.70 723.70 L 891.90 732.10 L 881.00 741.70 L 869.60 750.90 L 857.80 759.80 L 845.40 768.30 L 832.60 776.50 L 819.60 784.20 L 806.10 791.60 L 792.30 798.60 L 778.00 805.20 L 763.20 811.50 L 748.40 817.30 L 733.30 822.80 L 717.70 827.90 L 701.90 832.70 L 685.60 837.10 L 669.40 841.00 L 652.90 844.60 L 636.20 847.90 L 619.10 850.70 L 601.80 853.20 L 580.20 855.80 L 558.30 857.80 L 536.10 859.20 L 513.60 860.00 L 488.60 860.30 L 464.70 860.00 L 441.90 859.20 L 420.10 857.80 L 399.30 856.00 L 377.90 853.50 L 357.50 850.60 L 338.10 847.30 L 319.60 843.50 L 302.00 839.40 L 284.10 834.60 L 267.00 829.50 L 250.80 824.00 L 235.50 818.30 L 221.00 812.30 L 206.30 805.60 L 192.50 798.70 L 179.40 791.50 L 167.10 784.20 L 155.50 776.70 L 144.00 768.50 L 133.10 760.20 L 123.00 751.80 L 113.50 743.20 L 104.70 734.60 L 96.10 725.30 L 88.10 716.10 L 80.80 706.80 L 74.10 697.40 L 67.90 688.00 L 62.10 678.10 L 56.80 668.30 L 52.10 658.50 L 47.90 648.80 L 44.20 639.00 L 41.00 628.90 L 38.30 619.00 L 36.00 609.10 L 34.30 599.30 L 33.00 589.60 L 32.20 579.70 L 31.80 570.00 L 31.90 560.50 L 32.40 551.10 L 33.40 541.80 L 990.00 541.80 Z" fill="#b1d9ff" fill-rule="evenodd" group-id="1,2,3" node-id="814" stroke="none" target-height="318.5" target-width="958.2" target-x="31.8" target-y="541.8"></path></g><g node-id="1007"><path d="M 816.40 634.60 L 823.30 634.10 L 830.10 634.10 L 836.70 634.70 L 843.20 635.70 L 849.50 637.30 L 855.70 639.40 L 861.60 641.90 L 867.30 644.80 L 872.80 648.20 L 878.00 652.00 L 882.80 656.20 L 887.40 660.70 L 891.60 665.60 L 895.40 670.80 L 898.80 676.30 L 901.90 682.10 L 904.40 688.20 L 906.50 694.50 L 908.10 701.00 L 909.20 707.90 L 909.70 714.40 L 909.70 720.90 L 909.20 727.40 L 902.30 727.90 L 895.50 727.90 L 888.90 727.30 L 882.40 726.20 L 876.00 724.60 L 869.90 722.50 L 864.00 720.00 L 858.20 717.00 L 852.70 713.60 L 847.60 709.80 L 842.70 705.70 L 838.10 701.10 L 833.90 696.20 L 830.10 691.00 L 826.70 685.50 L 823.70 679.70 L 821.10 673.60 L 819.10 667.30 L 817.50 660.80 L 816.40 653.90 L 815.90 647.50 L 815.90 641.00 L 816.40 634.60 Z" fill="url(#SVGID_1_)" fill-rule="evenodd" group-id="1,2,4" node-id="818" stroke="none" target-height="93.80005" target-width="93.79999" target-x="815.9" target-y="634.1"></path><path d="M 990.80 634.60 L 983.90 634.10 L 977.10 634.10 L 970.50 634.70 L 964.00 635.70 L 957.70 637.30 L 951.50 639.40 L 945.60 641.90 L 939.90 644.80 L 934.40 648.20 L 929.20 652.00 L 924.40 656.20 L 919.80 660.70 L 915.60 665.60 L 911.80 670.80 L 908.40 676.30 L 905.30 682.10 L 902.80 688.20 L 900.70 694.50 L 899.10 701.00 L 898.00 707.90 L 897.50 714.40 L 897.50 720.90 L 898.00 727.40 L 904.90 727.90 L 911.70 727.90 L 918.30 727.30 L 924.80 726.20 L 931.20 724.60 L 937.30 722.50 L 943.20 720.00 L 949.00 717.00 L 954.50 713.60 L 959.60 709.80 L 964.50 705.70 L 969.10 701.10 L 973.30 696.20 L 977.10 691.00 L 980.50 685.50 L 983.50 679.70 L 986.10 673.60 L 988.10 667.30 L 989.70 660.80 L 990.80 653.90 L 991.30 647.50 L 991.30 641.00 L 990.80 634.60 Z" fill="url(#SVGID_2_)" fill-rule="evenodd" group-id="1,2,4" node-id="820" stroke="none" target-height="93.80005" target-width="93.79999" target-x="897.5" target-y="634.1"></path><path d="M 903.60 596.70 L 898.30 601.20 L 893.60 606.00 L 889.30 611.10 L 885.50 616.50 L 882.10 622.10 L 879.20 627.90 L 876.80 633.90 L 874.90 640.00 L 873.40 646.30 L 872.40 652.60 L 871.90 659.00 L 871.90 665.50 L 872.40 671.90 L 873.40 678.30 L 874.80 684.60 L 876.80 690.80 L 879.30 696.90 L 882.30 702.80 L 885.80 708.60 L 889.90 714.20 L 894.10 719.10 L 898.70 723.70 L 903.60 727.90 L 908.90 723.40 L 913.60 718.60 L 917.90 713.50 L 921.70 708.10 L 925.10 702.50 L 928.00 696.70 L 930.40 690.70 L 932.30 684.60 L 933.80 678.30 L 934.80 672.00 L 935.30 665.60 L 935.30 659.10 L 934.80 652.70 L 933.80 646.40 L 932.40 640.00 L 930.40 633.80 L 927.90 627.70 L 924.90 621.80 L 921.40 616.00 L 917.30 610.40 L 913.10 605.50 L 908.60 601.00 L 903.60 596.70 Z" fill="url(#SVGID_3_)" fill-rule="evenodd" group-id="1,2,4" node-id="822" stroke="none" target-height="131.20001" target-width="63.399963" target-x="871.9" target-y="596.7"></path><path d="M 984.40 719.60 L 984.20 717.90 L 983.50 716.40 L 982.50 715.10 L 979.70 713.50 L 978.00 713.30 L 829.20 713.30 L 826.00 714.20 L 823.70 716.40 L 823.00 717.90 L 822.80 719.60 L 822.80 811.00 L 984.30 811.00 L 984.30 719.60 Z" fill="url(#SVGID_4_)" fill-rule="evenodd" group-id="1,2,4" node-id="824" stroke="none" target-height="97.70001" target-width="161.60004" target-x="822.8" target-y="713.3"></path><path d="M 984.40 810.90 L 822.80 810.90 L 822.80 821.80 L 823.60 829.60 L 825.80 836.80 L 828.10 841.30 L 830.80 845.30 L 834.10 849.00 L 837.80 852.30 L 841.80 855.00 L 846.30 857.30 L 853.50 859.50 L 861.30 860.30 L 945.80 860.30 L 953.60 859.50 L 960.80 857.30 L 965.30 855.00 L 969.30 852.30 L 973.00 849.00 L 976.30 845.30 L 979.00 841.30 L 981.30 836.80 L 983.50 829.60 L 984.30 821.80 L 984.30 810.90 Z" fill="url(#SVGID_5_)" fill-rule="evenodd" group-id="1,2,4" node-id="826" stroke="none" target-height="49.399963" target-width="161.60004" target-x="822.8" target-y="810.9"></path></g><g node-id="1008"><path d="M 146.70 775.00 L 143.30 773.70 L 140.30 772.00 L 137.50 770.00 L 135.00 767.50 L 133.00 764.80 L 131.30 761.80 L 130.00 758.60 L 129.20 755.20 L 128.80 751.60 L 128.40 527.40 L 128.80 303.20 L 129.80 296.80 L 132.30 291.10 L 136.10 286.30 L 141.00 282.40 L 143.70 281.00 L 146.70 279.90 L 149.80 279.20 L 153.10 278.90 L 565.20 278.40 L 870.90 278.90 L 874.20 279.20 L 877.30 279.90 L 883.00 282.40 L 885.60 284.20 L 889.90 288.50 L 893.10 293.80 L 894.20 296.80 L 895.20 303.20 L 895.60 527.40 L 895.20 751.60 L 894.20 758.00 L 893.10 760.90 L 891.70 763.70 L 887.90 768.50 L 883.00 772.40 L 880.30 773.80 L 877.30 774.90 L 874.20 775.60 L 870.90 775.90 L 670.70 776.30 L 250.80 776.20 L 153.10 775.90 L 150.00 775.70 L 146.70 775.00 Z" fill="url(#SVGID_6_)" fill-rule="evenodd" group-id="1,2,5" node-id="830" stroke="none" target-height="497.9" target-width="767.19995" target-x="128.4" target-y="278.4"></path><path d="M 525.90 751.10 L 525.60 753.80 L 524.80 756.40 L 523.60 758.80 L 521.80 760.90 L 519.70 762.70 L 517.30 763.90 L 514.70 764.70 L 512.00 765.00 L 509.30 764.70 L 506.70 763.90 L 504.30 762.70 L 502.20 760.90 L 500.40 758.80 L 499.20 756.40 L 498.40 753.80 L 498.10 751.10 L 498.40 748.40 L 499.20 745.80 L 500.40 743.40 L 502.20 741.30 L 504.30 739.50 L 506.70 738.30 L 509.30 737.50 L 512.00 737.20 L 514.70 737.50 L 517.30 738.30 L 519.70 739.50 L 521.80 741.30 L 523.60 743.40 L 524.80 745.80 L 525.60 748.40 L 525.90 751.10 Z" fill="url(#SVGID_7_)" fill-rule="nonzero" group-id="1,2,5" node-id="832" stroke="none" target-height="27.799988" target-width="27.800018" target-x="498.1" target-y="737.2"></path><path d="M 153.60 725.80 L 152.60 725.40 L 152.20 724.40 L 152.20 303.80 L 152.30 303.20 L 153.00 302.50 L 870.40 302.40 L 871.40 302.80 L 871.80 303.80 L 871.80 724.50 L 871.70 725.10 L 871.00 725.80 L 153.60 725.80 Z" fill="url(#SVGID_8_)" fill-rule="evenodd" group-id="1,2,5" node-id="834" stroke="none" target-height="423.4" target-width="719.6" target-x="152.2" target-y="302.4"></path><path d="M 870.40 725.80 L 871.40 725.40 L 871.80 724.40 L 871.80 443.50 L 871.70 442.90 L 871.00 442.20 L 153.60 442.10 L 152.60 442.50 L 152.20 443.50 L 152.20 724.50 L 152.30 725.00 L 153.10 725.80 L 870.40 725.80 Z" fill="url(#SVGID_9_)" fill-rule="evenodd" group-id="1,2,5" node-id="836" stroke="none" target-height="283.69998" target-width="719.6" target-x="152.2" target-y="442.1"></path><path d="M 602.30 838.80 L 602.30 776.50 L 421.70 776.50 L 421.70 838.80 L 602.30 838.80 Z" fill="url(#SVGID_10_)" fill-rule="evenodd" group-id="1,2,5" node-id="838" stroke="none" target-height="62.299988" target-width="180.59998" target-x="421.7" target-y="776.5"></path><path d="M 691.60 860.40 L 691.30 855.70 L 690.40 851.20 L 688.90 847.00 L 686.90 843.00 L 684.40 839.40 L 681.50 836.10 L 678.20 833.20 L 674.60 830.80 L 670.60 828.70 L 666.40 827.30 L 661.90 826.30 L 657.20 826.00 L 366.80 826.00 L 362.10 826.30 L 357.60 827.20 L 353.40 828.70 L 349.40 830.70 L 345.80 833.20 L 342.50 836.10 L 339.60 839.40 L 337.20 843.00 L 335.10 847.00 L 333.70 851.20 L 332.70 855.70 L 332.40 860.40 L 691.60 860.40 Z" fill="url(#SVGID_11_)" fill-rule="evenodd" group-id="1,2,5" node-id="840" stroke="none" target-height="34.400024" target-width="359.19998" target-x="332.4" target-y="826"></path></g><g node-id="1009"><g node-id="1020"><path d="M 407.40 448.10 L 406.00 444.40 L 404.50 437.00 L 404.30 433.20 L 404.50 428.30 L 405.40 423.50 L 407.00 418.80 L 409.10 414.40 L 411.70 410.30 L 414.90 406.50 L 417.60 404.00 L 423.80 399.70 L 427.30 397.90 L 431.00 396.50 L 434.70 395.50 L 442.20 394.80 L 447.10 395.00 L 451.90 395.90 L 456.60 397.50 L 461.00 399.60 L 465.10 402.20 L 468.90 405.40 L 473.70 411.00 L 475.70 414.30 L 478.40 419.90 L 506.50 490.80 L 580.30 410.70 L 624.10 443.30 L 520.60 582.00 L 515.30 586.80 L 512.30 588.70 L 508.10 590.80 L 503.80 592.30 L 499.20 593.30 L 494.60 593.70 L 490.00 593.50 L 485.40 592.70 L 478.70 590.30 L 475.50 588.60 L 472.40 586.50 L 468.80 583.40 L 465.60 579.80 L 462.90 575.90 L 460.70 571.60 L 407.40 448.10 Z" fill="url(#SVGID_12_)" fill-rule="evenodd" group-id="1,2,6,17" node-id="845" stroke="none" target-height="198.90002" target-width="219.79999" target-x="404.3" target-y="394.8"></path><path d="M 581.80 410.50 L 571.40 383.40 L 571.20 381.40 L 572.20 379.60 L 579.80 372.20 L 581.00 371.50 L 582.30 371.20 L 583.50 371.50 L 584.70 372.20 L 601.60 388.70 L 581.80 410.50 Z" fill="url(#SVGID_13_)" fill-rule="evenodd" group-id="1,2,6,17" node-id="847" stroke="none" target-height="39.299988" target-width="30.399963" target-x="571.2" target-y="371.2"></path><g node-id="1024"><path d="M 651.00 348.30 L 650.90 346.10 L 650.30 344.10 L 649.20 342.30 L 647.70 340.90 L 645.90 339.80 L 643.70 339.30 L 594.30 334.10 L 592.10 334.20 L 590.10 334.80 L 588.30 335.90 L 586.80 337.40 L 585.80 339.20 L 585.30 341.40 L 575.70 432.90 L 575.80 435.10 L 576.40 437.10 L 577.50 438.90 L 579.00 440.30 L 580.80 441.40 L 583.00 441.90 L 632.40 447.10 L 634.60 447.00 L 636.60 446.40 L 638.40 445.30 L 639.80 443.80 L 640.90 442.00 L 641.40 439.80 L 651.00 348.30 Z" fill="url(#SVGID_14_)" fill-rule="evenodd" group-id="1,2,6,17,21" node-id="850" stroke="none" target-height="113" target-width="75.29999" target-x="575.7" target-y="334.1"></path><path d="M 638.60 348.40 L 639.60 348.70 L 640.40 349.40 L 640.90 350.30 L 641.00 351.40 L 632.20 434.70 L 631.20 436.50 L 630.30 437.00 L 629.20 437.10 L 587.90 432.70 L 586.90 432.40 L 585.60 430.80 L 594.30 346.40 L 594.60 345.40 L 596.20 344.10 L 604.30 344.70 L 605.40 345.10 L 606.30 346.00 L 608.90 349.70 L 610.00 350.10 L 624.60 351.70 L 625.80 351.60 L 626.80 350.90 L 630.10 347.90 L 638.60 348.40 Z" fill="url(#SVGID_15_)" fill-rule="evenodd" group-id="1,2,6,17,21" node-id="852" stroke="none" target-height="93" target-width="55.400024" target-x="585.6" target-y="344.1"></path><path d="M 590.90 379.00 L 634.80 410.90 L 632.30 434.70 L 632.00 435.70 L 630.40 437.00 L 588.00 432.70 L 587.00 432.40 L 585.70 430.80 L 585.60 429.70 L 590.90 379.00 Z" fill="url(#SVGID_16_)" fill-rule="evenodd" group-id="1,2,6,17,21" node-id="854" stroke="none" target-height="58" target-width="49.200012" target-x="585.6" target-y="379"></path></g><path d="M 637.00 382.30 L 633.50 384.10 L 631.00 387.10 L 630.20 388.90 L 628.30 405.10 L 627.60 414.40 L 628.10 416.50 L 629.10 418.50 L 630.50 420.30 L 632.20 421.70 L 634.30 422.80 L 641.00 425.20 L 643.30 425.40 L 645.30 424.50 L 646.60 422.60 L 649.10 412.80 L 651.00 403.20 L 652.50 393.50 L 653.50 382.50 L 653.20 381.40 L 651.70 379.70 L 649.60 378.90 L 648.00 379.10 L 637.00 382.30 Z" fill="url(#SVGID_17_)" fill-rule="evenodd" group-id="1,2,6,17" node-id="857" stroke="none" target-height="46.5" target-width="25.900024" target-x="627.6" target-y="378.9"></path></g><g node-id="1021"><path d="M 462.00 412.50 L 461.30 407.50 L 459.30 403.00 L 456.20 399.20 L 452.20 396.40 L 389.70 374.60 L 332.80 374.60 L 260.00 395.60 L 260.00 667.80 L 462.00 667.80 L 462.00 412.50 Z" fill="url(#SVGID_18_)" fill-rule="evenodd" group-id="1,2,6,18" node-id="861" stroke="none" target-height="293.19998" target-width="202" target-x="260" target-y="374.6"></path><path d="M 260.00 466.80 L 462.00 466.80 L 462.00 529.50 L 260.00 529.50 Z" fill="url(#SVGID_19_)" fill-rule="nonzero" group-id="1,2,6,18" node-id="863" stroke="none" target-height="62.700012" target-width="202" target-x="260" target-y="466.8"></path></g><g node-id="1022"><path d="M 417.70 281.00 L 421.20 279.90 L 423.30 278.90 L 425.40 277.40 L 427.30 275.50 L 428.20 273.90 L 428.90 272.10 L 429.20 269.90 L 429.10 264.80 L 428.50 260.20 L 427.40 255.80 L 425.90 251.70 L 423.90 247.80 L 421.50 244.20 L 418.70 240.80 L 415.60 237.70 L 411.00 233.90 L 405.90 230.60 L 400.40 227.80 L 394.60 225.50 L 388.60 223.60 L 382.40 222.20 L 376.10 221.30 L 369.90 220.90 L 363.70 220.90 L 357.60 221.50 L 351.80 222.60 L 346.40 224.20 L 338.90 227.50 L 332.60 231.90 L 329.90 234.60 L 327.70 237.50 L 325.80 240.70 L 324.40 244.30 L 321.20 246.10 L 316.50 249.80 L 313.80 252.60 L 311.30 255.80 L 308.80 260.00 L 306.20 266.50 L 305.20 270.40 L 304.80 273.80 L 304.80 277.40 L 305.30 281.00 L 306.70 286.40 L 308.70 291.60 L 311.00 296.60 L 313.40 300.80 L 319.40 309.80 L 417.70 281.00 Z" fill="url(#SVGID_20_)" fill-rule="evenodd" group-id="1,2,6,19" node-id="867" stroke="none" target-height="88.899994" target-width="124.400024" target-x="304.8" target-y="220.9"></path><path d="M 350.00 275.70 L 357.80 280.60 L 367.60 284.80 L 373.00 286.30 L 382.40 287.90 L 388.70 287.80 L 389.60 287.40 L 390.10 286.70 L 390.30 285.50 L 390.00 283.60 L 388.10 278.40 L 383.30 269.80 L 387.10 272.60 L 391.00 275.00 L 395.20 277.00 L 399.50 278.60 L 403.90 279.80 L 408.40 280.60 L 413.00 281.00 L 417.70 281.00 L 419.20 339.80 L 419.00 343.10 L 418.50 346.20 L 417.50 349.20 L 414.50 354.60 L 410.30 359.10 L 407.80 360.80 L 405.00 362.30 L 402.10 363.40 L 399.00 364.10 L 395.70 364.40 L 388.60 364.10 L 389.60 380.80 L 379.20 399.20 L 378.50 400.20 L 376.50 401.40 L 374.20 401.40 L 373.00 400.90 L 333.10 378.50 L 331.60 376.20 L 331.40 374.80 L 328.10 316.20 L 329.90 316.10 L 332.90 314.60 L 335.00 312.60 L 337.00 310.00 L 339.50 305.90 L 341.90 301.10 L 344.60 294.10 L 347.20 286.30 L 350.00 275.70 Z" fill="url(#SVGID_21_)" fill-rule="evenodd" group-id="1,2,6,19" node-id="869" stroke="none" target-height="131.6" target-width="91.100006" target-x="328.1" target-y="269.8"></path><path d="M 329.30 298.00 L 326.10 298.50 L 323.20 299.50 L 320.60 300.90 L 318.30 302.80 L 316.30 305.00 L 314.70 307.60 L 313.60 310.40 L 313.00 313.40 L 312.90 316.60 L 313.40 319.80 L 314.40 322.70 L 315.80 325.30 L 317.70 327.60 L 319.90 329.60 L 322.50 331.20 L 325.30 332.30 L 328.30 332.90 L 331.50 333.00 L 334.70 332.50 L 337.60 331.50 L 340.20 330.10 L 342.50 328.20 L 344.50 326.00 L 346.10 323.40 L 347.20 320.60 L 347.80 317.60 L 347.90 314.40 L 347.40 311.20 L 346.40 308.30 L 344.90 305.70 L 343.00 303.40 L 340.80 301.40 L 338.30 299.80 L 335.50 298.70 L 332.50 298.10 L 329.30 298.00 Z" fill="url(#SVGID_22_)" fill-rule="evenodd" group-id="1,2,6,19" node-id="871" stroke="none" target-height="35" target-width="35" target-x="312.9" target-y="298"></path><path d="M 388.60 364.10 L 373.80 361.10 L 364.20 357.90 L 360.00 355.90 L 361.50 360.50 L 363.10 363.70 L 365.20 367.00 L 368.20 370.60 L 373.40 374.90 L 376.80 376.90 L 380.30 378.50 L 384.50 379.80 L 389.50 380.70 L 388.60 364.10 Z" fill="url(#SVGID_23_)" fill-rule="evenodd" group-id="1,2,6,19" node-id="873" stroke="none" target-height="24.800018" target-width="29.5" target-x="360" target-y="355.9"></path></g></g><path d="M 870.20 725.80 L 871.20 725.40 L 871.60 724.40 L 871.60 590.70 L 871.50 590.20 L 870.70 589.40 L 153.80 589.30 L 152.80 589.70 L 152.40 590.70 L 152.40 724.50 L 152.50 725.00 L 153.30 725.80 L 870.20 725.80 Z" fill="url(#Table_1_)" fill-rule="evenodd" group-id="1,2" id="Table" node-id="116" stroke="none" target-height="136.5" target-width="719.19995" target-x="152.4" target-y="589.3"></path><g node-id="1010"><path d="M 401.90 503.50 L 413.00 478.60 L 413.60 477.70 L 415.50 476.60 L 422.00 477.10 L 423.10 477.40 L 424.80 479.00 L 427.80 498.80 L 458.80 493.20 L 460.20 493.10 L 462.50 494.00 L 464.10 495.90 L 464.50 497.20 L 470.10 531.90 L 470.10 533.30 L 469.70 534.60 L 468.90 535.70 L 467.80 536.50 L 440.00 551.00 L 412.10 556.90 L 398.30 504.00 L 401.90 503.50 Z" fill="url(#SVGID_24_)" fill-rule="evenodd" group-id="1,2,7" node-id="879" stroke="none" target-height="80.30002" target-width="71.80002" target-x="398.3" target-y="476.6"></path><path d="M 231.20 425.30 L 232.20 421.50 L 235.20 414.50 L 237.20 411.30 L 240.30 407.50 L 243.70 404.10 L 247.70 401.10 L 251.90 398.70 L 256.40 396.90 L 261.20 395.60 L 264.90 395.10 L 272.50 395.10 L 276.40 395.70 L 280.20 396.70 L 283.80 398.10 L 290.40 401.70 L 294.20 404.80 L 297.60 408.20 L 300.60 412.20 L 303.00 416.40 L 304.80 420.90 L 306.10 425.70 L 306.80 433.10 L 306.60 437.00 L 305.50 443.10 L 286.80 521.00 L 398.30 504.10 L 412.10 557.00 L 248.30 599.60 L 244.60 600.30 L 237.40 600.70 L 233.90 600.40 L 229.30 599.40 L 225.00 597.80 L 220.90 595.80 L 217.00 593.10 L 213.60 590.10 L 210.50 586.60 L 206.80 580.50 L 204.20 573.60 L 203.40 569.40 L 203.10 565.20 L 203.20 561.00 L 231.20 425.30 Z" fill="url(#SVGID_25_)" fill-rule="evenodd" group-id="1,2,7" node-id="881" stroke="none" target-height="205.6" target-width="209" target-x="203.1" target-y="395.1"></path></g><g node-id="1011"><path d="M 752.00 468.90 L 755.90 469.70 L 759.20 471.70 L 761.70 474.60 L 762.60 476.40 L 763.40 480.30 L 763.40 598.10 L 763.20 600.10 L 761.70 603.80 L 759.20 606.70 L 757.70 607.80 L 754.00 609.30 L 752.00 609.50 L 660.30 609.50 L 656.40 608.70 L 653.10 606.70 L 650.60 603.80 L 649.70 602.00 L 648.90 598.10 L 648.90 480.30 L 649.10 478.30 L 650.60 474.60 L 651.70 473.10 L 654.60 470.60 L 658.30 469.10 L 660.30 468.90 L 752.00 468.90 Z" fill="url(#SVGID_26_)" fill-rule="evenodd" group-id="1,2,8" node-id="885" stroke="none" target-height="140.6" target-width="114.5" target-x="648.9" target-y="468.9"></path><path d="M 664.50 481.30 L 663.30 481.60 L 662.30 482.30 L 661.60 483.20 L 661.30 484.40 L 660.90 565.70 L 661.30 593.80 L 661.60 595.00 L 662.30 596.00 L 663.20 596.60 L 664.40 596.90 L 747.80 596.90 L 749.00 596.60 L 750.00 595.90 L 750.60 594.90 L 750.90 593.80 L 751.30 512.50 L 750.90 484.40 L 750.60 483.20 L 749.90 482.30 L 748.90 481.60 L 747.80 481.30 L 664.50 481.30 Z" fill="url(#SVGID_27_)" fill-rule="evenodd" group-id="1,2,8" node-id="887" stroke="none" target-height="115.60004" target-width="90.39996" target-x="660.9" target-y="481.3"></path><path d="M 661.20 500.30 L 751.20 552.20 L 750.90 593.80 L 750.60 595.00 L 749.90 596.00 L 749.00 596.60 L 747.80 596.90 L 664.40 596.90 L 663.20 596.60 L 662.30 595.90 L 661.60 595.00 L 661.30 593.80 L 660.90 561.70 L 661.20 500.30 Z" fill="url(#SVGID_28_)" fill-rule="evenodd" group-id="1,2,8" node-id="889" stroke="none" target-height="96.60004" target-width="90.29999" target-x="660.9" target-y="500.3"></path></g><g node-id="1012"><path d="M 527.50 620.30 L 516.60 620.30 L 516.60 557.50 L 527.50 557.50 L 530.70 557.80 L 533.80 558.60 L 536.70 560.00 L 539.40 561.80 L 541.90 564.00 L 544.20 566.70 L 546.20 569.70 L 547.90 573.00 L 549.30 576.70 L 550.30 580.50 L 550.90 584.60 L 551.10 588.90 L 550.90 593.20 L 550.30 597.30 L 549.30 601.10 L 547.90 604.80 L 546.20 608.10 L 544.30 611.10 L 541.90 613.80 L 539.40 616.00 L 536.70 617.80 L 533.80 619.20 L 530.70 620.00 L 527.50 620.30 Z" fill="url(#SVGID_29_)" fill-rule="evenodd" group-id="1,2,9" node-id="893" stroke="none" target-height="62.799988" target-width="34.5" target-x="516.6" target-y="557.5"></path><path d="M 571.00 502.90 L 581.10 504.60 L 589.30 507.40 L 594.30 509.80 L 598.70 512.60 L 602.40 515.70 L 605.80 519.10 L 608.80 522.70 L 611.20 526.40 L 613.40 530.30 L 616.60 538.00 L 618.30 543.70 L 619.30 548.90 L 620.40 557.80 L 620.50 563.00 L 601.50 563.00 L 600.70 552.50 L 598.60 543.20 L 595.30 534.50 L 590.90 526.60 L 585.70 520.10 L 579.90 514.90 L 576.60 512.70 L 569.60 509.40 L 561.90 507.30 L 571.00 502.90 Z" fill="url(#SVGID_30_)" fill-rule="evenodd" group-id="1,2,9" node-id="895" stroke="none" target-height="60.100006" target-width="58.599976" target-x="561.9" target-y="502.9"></path><path d="M 561.90 507.30 L 557.90 507.80 L 555.20 508.70 L 549.30 512.00 L 544.20 516.40 L 539.20 522.50 L 534.50 530.80 L 532.40 535.80 L 530.40 541.80 L 528.80 547.80 L 527.50 554.90 L 526.40 563.10 L 507.20 563.10 L 507.50 556.70 L 508.30 550.40 L 509.60 544.30 L 511.40 538.30 L 513.70 532.60 L 516.40 527.20 L 519.50 522.10 L 523.00 517.50 L 526.80 513.30 L 530.00 510.50 L 536.60 505.80 L 540.20 504.00 L 544.30 502.40 L 548.50 501.30 L 552.80 500.50 L 573.90 500.30 L 561.90 507.30 Z" fill="url(#SVGID_31_)" fill-rule="evenodd" group-id="1,2,9" node-id="897" stroke="none" target-height="62.799988" target-width="66.70001" target-x="507.2" target-y="500.3"></path><path d="M 574.00 500.20 L 581.60 501.00 L 585.30 502.00 L 589.10 503.40 L 593.80 505.70 L 598.30 508.60 L 602.70 512.10 L 606.70 516.10 L 610.40 520.60 L 613.80 525.70 L 616.60 531.00 L 619.10 536.80 L 621.10 543.10 L 622.50 549.70 L 623.40 556.30 L 623.70 563.10 L 618.40 563.10 L 617.60 552.60 L 616.70 547.90 L 614.00 538.80 L 610.10 530.50 L 607.80 526.70 L 605.20 523.20 L 601.50 519.00 L 597.50 515.50 L 593.20 512.60 L 586.30 509.30 L 579.20 507.40 L 571.80 507.00 L 564.50 508.20 L 560.00 509.70 L 555.70 511.90 L 551.50 514.60 L 547.70 517.80 L 544.10 521.50 L 540.80 525.60 L 537.80 530.10 L 535.30 535.00 L 533.20 540.30 L 531.50 545.90 L 530.40 551.50 L 529.60 557.20 L 529.40 563.10 L 524.10 563.10 L 524.40 556.70 L 525.20 550.40 L 526.50 544.30 L 528.30 538.30 L 530.60 532.60 L 533.30 527.20 L 536.40 522.10 L 539.90 517.50 L 543.70 513.30 L 546.90 510.50 L 550.10 508.00 L 557.10 504.00 L 561.20 502.30 L 565.40 501.10 L 569.70 500.40 L 574.00 500.20 Z" fill="url(#SVGID_32_)" fill-rule="evenodd" group-id="1,2,9" node-id="899" stroke="none" target-height="62.899963" target-width="99.60004" target-x="524.1" target-y="500.2"></path><path d="M 614.20 620.30 L 603.30 620.30 L 603.30 557.50 L 614.20 557.50 L 617.40 557.80 L 620.50 558.60 L 623.40 560.00 L 626.10 561.80 L 628.60 564.00 L 630.90 566.70 L 632.90 569.70 L 634.60 573.00 L 636.00 576.70 L 637.00 580.50 L 637.60 584.60 L 637.80 588.90 L 637.60 593.20 L 637.00 597.30 L 636.00 601.10 L 634.60 604.80 L 632.90 608.10 L 631.00 611.10 L 628.60 613.80 L 626.10 616.00 L 623.40 617.80 L 620.50 619.20 L 617.40 620.00 L 614.20 620.30 Z" fill="url(#SVGID_33_)" fill-rule="evenodd" group-id="1,2,9" node-id="901" stroke="none" target-height="62.799988" target-width="34.5" target-x="603.3" target-y="557.5"></path><path d="M 610.10 620.30 L 599.20 620.30 L 599.20 557.50 L 610.10 557.50 L 613.30 557.80 L 616.40 558.60 L 619.30 560.00 L 622.00 561.80 L 624.50 564.00 L 626.80 566.70 L 628.80 569.70 L 630.50 573.00 L 631.90 576.70 L 632.90 580.50 L 633.50 584.60 L 633.70 588.90 L 633.50 593.20 L 632.90 597.30 L 631.90 601.10 L 630.50 604.80 L 628.80 608.10 L 626.90 611.10 L 624.50 613.80 L 622.00 616.00 L 619.30 617.80 L 616.40 619.20 L 613.30 620.00 L 610.10 620.30 Z" fill="url(#SVGID_34_)" fill-rule="evenodd" group-id="1,2,9" node-id="903" stroke="none" target-height="62.799988" target-width="34.5" target-x="599.2" target-y="557.5"></path><path d="M 540.30 588.80 L 540.10 593.10 L 539.40 597.20 L 538.40 601.00 L 537.00 604.70 L 535.40 608.00 L 533.40 611.00 L 531.10 613.70 L 528.60 615.90 L 525.90 617.70 L 523.00 619.10 L 519.90 619.90 L 516.70 620.20 L 513.60 619.90 L 510.60 619.10 L 507.70 617.80 L 505.00 616.00 L 502.40 613.80 L 500.00 611.00 L 498.00 607.90 L 496.30 604.50 L 494.90 600.80 L 493.90 597.00 L 493.30 593.00 L 493.10 588.80 L 493.30 584.60 L 493.90 580.60 L 494.90 576.80 L 496.30 573.10 L 498.00 569.70 L 500.00 566.60 L 502.40 563.80 L 505.00 561.60 L 507.70 559.80 L 510.60 558.50 L 513.60 557.70 L 516.70 557.40 L 519.90 557.70 L 523.00 558.50 L 525.90 559.90 L 528.60 561.70 L 531.10 563.90 L 533.40 566.60 L 535.40 569.60 L 537.00 572.90 L 538.40 576.60 L 539.40 580.40 L 540.10 584.50 L 540.30 588.80 Z" fill="url(#SVGID_35_)" fill-rule="nonzero" group-id="1,2,9" node-id="905" stroke="none" target-height="62.799988" target-width="47.19998" target-x="493.1" target-y="557.4"></path><path d="M 622.90 588.80 L 622.70 593.10 L 622.00 597.20 L 621.00 601.00 L 619.60 604.70 L 618.00 608.00 L 616.00 611.00 L 613.70 613.70 L 611.20 615.90 L 608.50 617.70 L 605.60 619.10 L 602.50 619.90 L 599.30 620.20 L 596.10 619.90 L 593.00 619.10 L 590.10 617.70 L 587.40 615.90 L 584.90 613.70 L 582.60 611.00 L 580.60 608.00 L 579.00 604.70 L 577.60 601.00 L 576.60 597.20 L 575.90 593.10 L 575.70 588.80 L 575.90 584.50 L 576.60 580.40 L 577.60 576.60 L 579.00 572.90 L 580.60 569.60 L 582.60 566.60 L 584.90 563.90 L 587.40 561.70 L 590.10 559.90 L 593.00 558.50 L 596.10 557.70 L 599.30 557.40 L 602.50 557.70 L 605.60 558.50 L 608.50 559.90 L 611.20 561.70 L 613.70 563.90 L 616.00 566.60 L 618.00 569.60 L 619.60 572.90 L 621.00 576.60 L 622.00 580.40 L 622.70 584.50 L 622.90 588.80 Z" fill="url(#SVGID_36_)" fill-rule="nonzero" group-id="1,2,9" node-id="907" stroke="none" target-height="62.799988" target-width="47.200012" target-x="575.7" target-y="557.4"></path><path d="M 527.60 588.80 L 527.30 593.30 L 526.50 597.30 L 525.20 601.10 L 523.50 604.60 L 521.40 607.40 L 519.00 609.80 L 517.00 611.20 L 514.90 612.20 L 512.70 612.90 L 510.30 613.10 L 507.90 612.90 L 505.70 612.20 L 503.60 611.20 L 501.60 609.80 L 499.20 607.40 L 497.10 604.60 L 495.40 601.10 L 494.10 597.30 L 493.30 593.30 L 493.00 588.80 L 493.30 584.30 L 494.10 580.30 L 495.40 576.50 L 497.10 573.00 L 499.20 570.20 L 501.60 567.80 L 503.60 566.40 L 505.70 565.40 L 507.90 564.70 L 510.30 564.50 L 512.70 564.70 L 514.90 565.40 L 517.00 566.40 L 519.00 567.80 L 521.40 570.20 L 523.50 573.00 L 525.20 576.50 L 526.50 580.30 L 527.30 584.30 L 527.60 588.80 Z" fill="url(#SVGID_37_)" fill-rule="nonzero" group-id="1,2,9" node-id="909" stroke="none" target-height="48.599976" target-width="34.599976" target-x="493" target-y="564.5"></path><path d="M 610.20 588.80 L 610.00 592.20 L 609.40 595.30 L 608.40 598.10 L 607.10 600.80 L 605.50 603.00 L 603.70 604.80 L 601.60 606.20 L 599.50 607.00 L 597.10 607.30 L 594.70 607.00 L 592.60 606.20 L 590.50 604.80 L 588.70 603.00 L 587.10 600.80 L 585.80 598.10 L 584.80 595.30 L 584.20 592.20 L 584.00 588.80 L 584.20 585.40 L 584.80 582.30 L 585.80 579.50 L 587.10 576.80 L 588.70 574.60 L 590.50 572.80 L 592.60 571.40 L 594.70 570.60 L 597.10 570.30 L 599.50 570.60 L 601.60 571.40 L 603.70 572.80 L 605.50 574.60 L 607.10 576.80 L 608.40 579.50 L 609.40 582.30 L 610.00 585.40 L 610.20 588.80 Z" fill="url(#SVGID_38_)" fill-rule="nonzero" group-id="1,2,9" node-id="911" stroke="none" target-height="37" target-width="26.200012" target-x="584" target-y="570.3"></path></g><g node-id="1013"><path d="M 800.90 602.10 L 817.90 602.10 L 817.90 611.20 L 800.90 611.20 Z" fill="url(#SVGID_39_)" fill-rule="nonzero" group-id="1,2,10" node-id="915" stroke="none" target-height="9.100037" target-width="17" target-x="800.9" target-y="602.1"></path><path d="M 833.70 545.40 L 833.40 542.10 L 832.80 538.90 L 831.70 536.00 L 830.30 533.20 L 826.50 528.30 L 821.60 524.50 L 818.80 523.10 L 815.90 522.10 L 812.70 521.40 L 809.40 521.20 L 806.10 521.40 L 802.90 522.10 L 799.90 523.10 L 797.10 524.50 L 794.60 526.30 L 792.20 528.30 L 788.40 533.20 L 787.00 536.10 L 786.00 539.00 L 785.30 542.20 L 785.10 545.50 L 785.10 581.70 L 785.30 585.00 L 786.00 588.20 L 787.00 591.20 L 790.20 596.50 L 794.60 600.90 L 797.10 602.70 L 799.90 604.10 L 802.90 605.10 L 806.10 605.80 L 809.40 606.00 L 812.70 605.80 L 815.90 605.10 L 818.90 604.10 L 821.70 602.70 L 824.20 600.90 L 828.60 596.50 L 831.80 591.20 L 832.80 588.20 L 833.50 585.00 L 833.70 581.70 L 833.70 545.40 Z" fill="url(#SVGID_40_)" fill-rule="evenodd" group-id="1,2,10" node-id="917" stroke="none" target-height="84.79999" target-width="48.600037" target-x="785.1" target-y="521.2"></path><path d="M 818.10 575.40 L 817.80 574.10 L 817.20 573.10 L 816.20 572.50 L 814.90 572.20 L 803.70 572.20 L 802.50 572.40 L 801.50 573.10 L 800.80 574.10 L 800.50 575.30 L 800.70 576.50 L 801.40 577.50 L 802.40 578.20 L 803.60 578.50 L 815.00 578.50 L 816.20 578.30 L 817.20 577.60 L 817.90 576.60 L 818.10 575.40 Z" fill="url(#SVGID_41_)" fill-rule="evenodd" group-id="1,2,10" node-id="919" stroke="none" target-height="6.299988" target-width="17.599976" target-x="800.5" target-y="572.2"></path><path d="M 836.10 620.30 L 835.80 617.90 L 834.90 615.70 L 833.40 613.90 L 831.60 612.40 L 829.40 611.50 L 827.00 611.20 L 791.70 611.20 L 789.30 611.50 L 787.10 612.40 L 785.30 613.90 L 783.80 615.70 L 782.90 617.90 L 782.60 620.30 L 836.10 620.30 Z" fill="url(#SVGID_42_)" fill-rule="evenodd" group-id="1,2,10" node-id="921" stroke="none" target-height="9.099976" target-width="53.5" target-x="782.6" target-y="611.2"></path><path d="M 828.30 545.40 L 828.10 547.90 L 826.90 552.60 L 824.40 556.90 L 822.80 558.80 L 820.90 560.40 L 816.60 562.90 L 811.90 564.10 L 809.40 564.30 L 806.90 564.10 L 802.20 562.90 L 797.90 560.40 L 796.00 558.80 L 794.40 556.90 L 791.90 552.60 L 790.70 547.90 L 790.50 545.40 L 790.70 542.90 L 791.90 538.20 L 794.40 533.90 L 796.00 532.00 L 797.90 530.40 L 802.20 527.90 L 806.90 526.70 L 809.40 526.50 L 811.90 526.70 L 816.60 527.90 L 820.90 530.40 L 822.80 532.00 L 824.40 533.90 L 826.90 538.20 L 828.10 542.90 L 828.30 545.40 Z" fill="url(#SVGID_43_)" fill-rule="nonzero" group-id="1,2,10" node-id="923" stroke="none" target-height="37.799988" target-width="37.799988" target-x="790.5" target-y="526.5"></path><path d="M 809.40 535.00 L 813.00 535.60 L 814.60 536.40 L 817.30 538.70 L 819.10 541.70 L 819.80 545.40 L 819.20 549.00 L 818.40 550.60 L 816.10 553.30 L 813.10 555.10 L 809.40 555.80 L 805.70 555.20 L 802.70 553.40 L 800.40 550.70 L 799.60 549.10 L 799.00 545.40 L 799.60 541.80 L 800.40 540.20 L 802.70 537.50 L 805.70 535.70 L 809.40 535.00 Z" fill="url(#SVGID_44_)" fill-rule="evenodd" group-id="1,2,10" node-id="925" stroke="none" target-height="20.799988" target-width="20.799988" target-x="799" target-y="535"></path><path d="M 809.40 540.30 L 810.80 540.50 L 813.00 541.80 L 814.30 544.00 L 814.50 545.40 L 814.30 546.80 L 813.00 549.00 L 810.80 550.30 L 809.40 550.50 L 808.00 550.30 L 805.80 549.00 L 804.50 546.80 L 804.30 545.40 L 804.50 544.00 L 805.80 541.80 L 808.00 540.50 L 809.40 540.30 Z" fill="url(#SVGID_45_)" fill-rule="evenodd" group-id="1,2,10" node-id="927" stroke="none" target-height="10.200012" target-width="10.200012" target-x="804.3" target-y="540.3"></path><path d="M 806.00 539.00 L 807.10 539.20 L 808.10 539.90 L 808.80 540.90 L 809.00 542.00 L 808.80 543.10 L 808.10 544.10 L 807.10 544.80 L 806.00 545.00 L 804.90 544.80 L 803.90 544.10 L 803.20 543.20 L 803.00 542.00 L 803.20 540.90 L 803.90 539.90 L 804.90 539.20 L 806.00 539.00 Z" fill="url(#SVGID_46_)" fill-rule="evenodd" group-id="1,2,10" node-id="929" stroke="none" target-height="6" target-width="6" target-x="803" target-y="539"></path><path d="M 813.40 547.60 L 814.10 547.70 L 815.00 548.70 L 815.00 550.10 L 814.00 551.00 L 812.60 551.00 L 811.70 550.00 L 811.60 549.40 L 812.10 548.10 L 813.40 547.60 Z" fill="url(#SVGID_47_)" fill-rule="evenodd" group-id="1,2,10" node-id="931" stroke="none" target-height="3.4000244" target-width="3.4000244" target-x="811.6" target-y="547.6"></path></g><g node-id="1014"><path d="M 708.90 590.60 L 708.60 589.30 L 707.90 588.30 L 706.90 587.60 L 705.60 587.30 L 692.00 587.30 L 690.70 587.60 L 689.70 588.30 L 689.00 589.30 L 688.70 592.60 L 709.00 592.60 L 708.90 590.60 Z" fill="url(#SVGID_48_)" fill-rule="evenodd" group-id="1,2,11" node-id="935" stroke="none" target-height="5.299988" target-width="20.299988" target-x="688.7" target-y="587.3"></path><path d="M 770.00 605.10 L 742.50 605.10 L 742.50 653.20 L 763.40 653.20 L 765.20 653.00 L 766.70 652.30 L 768.10 651.30 L 769.10 650.00 L 769.70 648.40 L 770.00 646.60 L 770.00 605.10 Z" fill="url(#SVGID_49_)" fill-rule="evenodd" group-id="1,2,11" node-id="937" stroke="none" target-height="48.100037" target-width="27.5" target-x="742.5" target-y="605.1"></path><path d="M 770.00 599.10 L 769.80 597.30 L 769.10 595.80 L 768.10 594.50 L 766.80 593.40 L 765.20 592.80 L 763.40 592.50 L 742.50 592.50 L 742.50 605.10 L 770.00 605.10 L 770.00 599.10 Z" fill="url(#SVGID_50_)" fill-rule="evenodd" group-id="1,2,11" node-id="939" stroke="none" target-height="12.599976" target-width="27.5" target-x="742.5" target-y="592.5"></path><path d="M 748.30 605.10 L 672.00 605.10 L 672.00 646.60 L 672.20 648.40 L 672.90 649.90 L 673.90 651.30 L 675.20 652.30 L 676.80 652.90 L 678.60 653.20 L 741.70 653.20 L 743.50 653.00 L 745.00 652.30 L 746.40 651.30 L 747.40 650.00 L 748.00 648.40 L 748.30 646.60 L 748.30 605.10 Z" fill="url(#SVGID_51_)" fill-rule="evenodd" group-id="1,2,11" node-id="941" stroke="none" target-height="48.100037" target-width="76.29999" target-x="672" target-y="605.1"></path><path d="M 748.30 599.10 L 747.80 596.60 L 746.40 594.50 L 744.30 593.10 L 741.70 592.60 L 678.60 592.60 L 676.10 593.10 L 673.90 594.50 L 672.50 596.60 L 672.00 599.10 L 672.00 605.10 L 748.30 605.10 L 748.30 599.10 Z" fill="url(#SVGID_52_)" fill-rule="evenodd" group-id="1,2,11" node-id="943" stroke="none" target-height="12.5" target-width="76.29999" target-x="672" target-y="592.6"></path><g node-id="1023"><path d="M 739.70 623.10 L 738.90 620.30 L 737.00 618.40 L 734.20 617.60 L 729.40 617.60 L 729.40 632.40 L 735.70 632.20 L 738.10 630.80 L 739.50 628.40 L 739.70 623.10 Z" fill="url(#SVGID_53_)" fill-rule="evenodd" group-id="1,2,11,20" node-id="946" stroke="none" target-height="14.800049" target-width="10.299988" target-x="729.4" target-y="617.6"></path><path d="M 708.20 653.20 L 693.40 653.20 L 693.40 596.80 L 708.20 596.80 L 711.50 597.10 L 714.70 597.80 L 717.70 599.00 L 720.60 600.60 L 723.20 602.60 L 725.60 605.10 L 727.60 607.70 L 729.40 610.70 L 730.90 614.00 L 731.90 617.50 L 732.60 621.10 L 732.80 625.00 L 732.60 628.90 L 731.90 632.50 L 730.90 636.00 L 729.40 639.30 L 727.70 642.30 L 725.60 645.00 L 723.20 647.40 L 720.60 649.40 L 717.80 651.00 L 714.80 652.20 L 711.60 652.90 L 708.20 653.20 Z" fill="url(#SVGID_54_)" fill-rule="evenodd" group-id="1,2,11,20" node-id="948" stroke="none" target-height="56.400024" target-width="39.399963" target-x="693.4" target-y="596.8"></path><path d="M 717.90 625.00 L 717.70 628.70 L 717.10 632.30 L 716.00 635.80 L 714.60 639.10 L 712.80 642.10 L 710.70 644.90 L 708.30 647.40 L 705.60 649.40 L 702.80 651.10 L 699.70 652.20 L 696.60 653.00 L 693.40 653.20 L 690.20 653.00 L 687.10 652.20 L 684.00 651.10 L 681.20 649.40 L 678.50 647.40 L 676.10 644.90 L 674.00 642.10 L 672.20 639.10 L 670.80 635.80 L 669.70 632.30 L 669.10 628.70 L 668.90 625.00 L 669.10 621.30 L 669.70 617.70 L 670.80 614.20 L 672.20 610.90 L 674.00 607.90 L 676.10 605.10 L 678.50 602.60 L 681.20 600.60 L 684.00 598.90 L 687.10 597.80 L 690.20 597.00 L 693.40 596.80 L 696.60 597.00 L 699.70 597.80 L 702.80 598.90 L 705.60 600.60 L 708.30 602.60 L 710.70 605.10 L 712.80 607.90 L 714.60 610.90 L 716.00 614.20 L 717.10 617.70 L 717.70 621.30 L 717.90 625.00 Z" fill="url(#SVGID_55_)" fill-rule="nonzero" group-id="1,2,11,20" node-id="950" stroke="none" target-height="56.400024" target-width="49" target-x="668.9" target-y="596.8"></path><path d="M 710.80 625.00 L 710.60 627.60 L 709.50 632.60 L 708.50 635.00 L 705.70 639.10 L 704.00 640.80 L 700.10 643.40 L 697.90 644.20 L 693.40 644.90 L 688.90 644.20 L 686.70 643.40 L 682.80 640.80 L 681.10 639.10 L 678.30 635.00 L 677.30 632.60 L 676.20 627.60 L 676.00 625.00 L 676.60 619.80 L 678.30 615.00 L 679.60 612.90 L 681.10 610.90 L 684.70 607.70 L 688.90 605.80 L 693.40 605.10 L 697.90 605.80 L 700.10 606.60 L 704.00 609.20 L 705.70 610.90 L 708.50 615.00 L 709.50 617.40 L 710.60 622.40 L 710.80 625.00 Z" fill="url(#SVGID_56_)" fill-rule="nonzero" group-id="1,2,11,20" node-id="952" stroke="none" target-height="39.80005" target-width="34.799988" target-x="676" target-y="605.1"></path><path d="M 693.40 613.90 L 696.80 614.60 L 698.30 615.40 L 700.80 617.80 L 702.50 621.10 L 703.10 625.10 L 702.50 629.00 L 700.80 632.30 L 698.30 634.80 L 696.80 635.60 L 693.40 636.30 L 690.00 635.60 L 688.50 634.80 L 686.00 632.40 L 684.30 629.10 L 683.70 625.10 L 684.30 621.10 L 686.00 617.80 L 688.50 615.40 L 690.00 614.60 L 693.40 613.90 Z" fill="url(#SVGID_57_)" fill-rule="evenodd" group-id="1,2,11,20" node-id="954" stroke="none" target-height="22.399963" target-width="19.399963" target-x="683.7" target-y="613.9"></path></g></g><g node-id="1015"><path d="M 644.90 573.50 L 644.00 571.00 L 643.10 570.10 L 640.80 568.90 L 622.70 568.70 L 620.10 569.30 L 618.20 571.10 L 617.60 572.20 L 615.70 587.30 L 646.70 587.30 L 644.90 573.50 Z" fill="url(#SVGID_58_)" fill-rule="evenodd" group-id="1,2,12" node-id="959" stroke="none" target-height="18.599976" target-width="31" target-x="615.7" target-y="568.7"></path><path d="M 644.90 641.10 L 644.00 643.60 L 643.10 644.60 L 640.80 645.70 L 622.70 645.90 L 620.10 645.30 L 618.20 643.50 L 617.60 642.40 L 615.70 627.40 L 646.70 627.40 L 644.90 641.10 Z" fill="url(#SVGID_59_)" fill-rule="evenodd" group-id="1,2,12" node-id="961" stroke="none" target-height="18.5" target-width="31" target-x="615.7" target-y="627.4"></path><path d="M 653.60 592.80 L 653.30 590.40 L 652.40 588.20 L 651.00 586.40 L 649.20 585.00 L 647.00 584.10 L 644.60 583.80 L 617.60 583.80 L 615.20 584.10 L 613.00 585.00 L 611.20 586.40 L 609.80 588.20 L 608.90 590.40 L 608.60 592.80 L 608.60 621.90 L 608.90 624.30 L 609.80 626.50 L 611.20 628.30 L 613.00 629.70 L 615.20 630.60 L 617.60 630.90 L 644.60 630.90 L 647.00 630.60 L 649.20 629.70 L 651.00 628.30 L 652.40 626.50 L 653.30 624.30 L 653.60 621.90 L 653.60 592.80 Z" fill="url(#SVGID_60_)" fill-rule="evenodd" group-id="1,2,12" node-id="963" stroke="none" target-height="47.100037" target-width="45" target-x="608.6" target-y="583.8"></path><path d="M 646.60 595.80 L 646.40 594.50 L 645.20 592.50 L 643.20 591.30 L 641.90 591.10 L 618.90 591.30 L 617.90 591.70 L 616.20 593.40 L 615.60 595.80 L 615.80 620.20 L 616.20 621.30 L 617.90 622.90 L 620.20 623.50 L 641.90 623.50 L 643.20 623.30 L 645.20 622.10 L 646.40 620.10 L 646.60 618.90 L 646.60 595.80 Z" fill="url(#SVGID_61_)" fill-rule="evenodd" group-id="1,2,12" node-id="965" stroke="none" target-height="32.400024" target-width="31" target-x="615.6" target-y="591.1"></path><path d="M 615.70 597.40 L 646.70 615.30 L 646.70 618.90 L 646.10 621.20 L 644.40 622.90 L 643.30 623.30 L 620.30 623.50 L 617.90 622.90 L 616.30 621.20 L 615.70 618.90 L 615.70 597.40 Z" fill="url(#SVGID_62_)" fill-rule="evenodd" group-id="1,2,12" node-id="967" stroke="none" target-height="26.099976" target-width="31" target-x="615.7" target-y="597.4"></path></g><g node-id="1016"><path d="M 870.20 725.80 L 871.20 725.40 L 871.60 724.40 L 871.60 672.00 L 871.20 671.00 L 870.20 670.60 L 153.80 670.60 L 152.80 671.00 L 152.40 672.00 L 152.40 724.50 L 152.80 725.50 L 153.80 725.90 L 870.20 725.80 Z" fill="url(#SVGID_63_)" fill-rule="evenodd" group-id="1,2,13" node-id="971" stroke="none" target-height="55.30005" target-width="719.19995" target-x="152.4" target-y="670.6"></path><path d="M 831.80 711.60 L 833.30 711.40 L 835.70 710.00 L 837.10 707.60 L 837.30 706.10 L 837.10 688.90 L 836.50 687.60 L 834.60 685.70 L 831.80 684.90 L 740.50 684.90 L 739.00 685.10 L 736.60 686.50 L 735.20 688.90 L 735.00 690.40 L 735.20 707.60 L 736.60 710.00 L 739.00 711.40 L 740.50 711.60 L 831.80 711.60 Z" fill="url(#SVGID_64_)" fill-rule="evenodd" group-id="1,2,13" node-id="973" stroke="none" target-height="26.699951" target-width="102.29999" target-x="735" target-y="684.9"></path><path d="M 477.20 694.30 L 478.50 694.10 L 480.50 692.90 L 481.70 690.90 L 481.90 689.60 L 481.70 688.30 L 480.50 686.30 L 478.50 685.10 L 477.20 684.90 L 235.60 684.90 L 233.30 685.50 L 232.30 686.30 L 231.10 688.40 L 230.90 689.60 L 231.10 690.90 L 232.30 692.90 L 234.30 694.10 L 235.60 694.30 L 477.20 694.30 Z" fill="url(#SVGID_65_)" fill-rule="evenodd" group-id="1,2,13" node-id="975" stroke="none" target-height="9.399963" target-width="251" target-x="230.9" target-y="684.9"></path><path d="M 404.50 711.60 L 405.80 711.40 L 407.80 710.20 L 409.00 708.20 L 409.20 706.90 L 409.00 705.60 L 407.80 703.60 L 405.80 702.40 L 404.50 702.20 L 235.90 702.20 L 234.60 702.40 L 232.60 703.60 L 231.40 705.60 L 231.20 706.90 L 231.40 708.20 L 232.60 710.20 L 234.60 711.40 L 235.90 711.60 L 404.50 711.60 Z" fill="url(#SVGID_66_)" fill-rule="evenodd" group-id="1,2,13" node-id="977" stroke="none" target-height="9.399963" target-width="178.00002" target-x="231.2" target-y="702.2"></path></g><g node-id="1017"><path d="M 845.10 639.80 L 846.50 639.60 L 848.80 638.30 L 850.10 636.00 L 850.30 634.60 L 850.10 633.20 L 848.80 630.90 L 846.50 629.60 L 845.10 629.40 L 433.60 629.40 L 431.60 629.80 L 430.00 630.90 L 429.20 632.00 L 428.50 634.60 L 428.70 636.00 L 430.00 638.30 L 432.30 639.60 L 433.70 639.80 L 845.10 639.80 Z" fill="url(#SVGID_67_)" fill-rule="evenodd" group-id="1,2,14" node-id="981" stroke="none" target-height="10.399963" target-width="421.8" target-x="428.5" target-y="629.4"></path><path d="M 423.30 639.80 L 424.70 639.60 L 427.00 638.30 L 428.30 636.00 L 428.50 634.60 L 428.30 633.20 L 427.00 630.90 L 424.70 629.60 L 423.30 629.40 L 178.90 629.40 L 177.50 629.60 L 175.20 630.90 L 173.90 633.20 L 173.70 634.60 L 173.90 636.00 L 175.20 638.30 L 177.50 639.60 L 178.90 639.80 L 423.30 639.80 Z" fill="url(#SVGID_68_)" fill-rule="evenodd" group-id="1,2,14" node-id="983" stroke="none" target-height="10.399963" target-width="254.8" target-x="173.7" target-y="629.4"></path><path d="M 441.80 634.60 L 441.60 637.00 L 441.00 639.30 L 440.00 641.30 L 437.10 644.80 L 433.20 647.10 L 430.90 647.70 L 428.50 647.90 L 426.10 647.70 L 423.80 647.10 L 419.90 644.80 L 417.00 641.30 L 416.00 639.30 L 415.40 637.00 L 415.20 634.60 L 415.40 632.20 L 416.00 629.90 L 418.30 626.00 L 421.80 623.10 L 423.80 622.10 L 426.10 621.50 L 428.50 621.30 L 430.90 621.50 L 433.20 622.10 L 435.20 623.10 L 438.70 626.00 L 441.00 629.90 L 441.60 632.20 L 441.80 634.60 Z" fill="url(#SVGID_69_)" fill-rule="nonzero" group-id="1,2,14" node-id="985" stroke="none" target-height="26.600037" target-width="26.599976" target-x="415.2" target-y="621.3"></path><path d="M 428.40 627.90 L 430.20 628.10 L 431.80 628.80 L 433.20 629.90 L 434.30 631.20 L 434.90 632.90 L 435.20 634.70 L 435.00 636.50 L 434.30 638.10 L 433.20 639.50 L 431.90 640.60 L 430.20 641.20 L 428.40 641.50 L 426.60 641.30 L 425.00 640.60 L 423.60 639.50 L 422.50 638.20 L 421.90 636.50 L 421.60 634.70 L 421.90 632.80 L 422.60 631.20 L 423.70 629.90 L 425.00 628.80 L 426.60 628.20 L 428.40 627.90 Z" fill="url(#SVGID_70_)" fill-rule="evenodd" group-id="1,2,14" node-id="987" stroke="none" target-height="13.599976" target-width="13.600006" target-x="421.6" target-y="627.9"></path></g><g node-id="1018"><path d="M 835.90 646.60 L 837.40 647.20 L 838.40 649.00 L 838.40 661.10 L 837.80 662.70 L 836.00 663.70 L 815.50 663.70 L 814.60 663.60 L 813.70 663.10 L 812.70 661.30 L 812.70 649.20 L 812.90 648.20 L 813.80 647.10 L 815.10 646.60 L 835.90 646.60 Z M 818.30 652.10 L 818.30 658.40 L 833.00 658.40 L 833.00 652.10 L 818.30 652.10 Z" fill="url(#SVGID_71_)" fill-rule="evenodd" group-id="1,2,15" node-id="991" stroke="none" target-height="17.100037" target-width="25.700012" target-x="812.7" target-y="646.6"></path><path d="M 188.30 646.60 L 189.60 647.00 L 199.40 653.00 L 200.20 653.80 L 200.60 654.90 L 200.60 655.90 L 199.40 657.70 L 189.50 663.50 L 188.40 663.80 L 187.30 663.70 L 186.40 663.20 L 185.70 662.30 L 185.40 661.30 L 185.40 649.40 L 186.10 647.60 L 186.90 647.00 L 188.30 646.60 Z" fill="url(#SVGID_72_)" fill-rule="evenodd" group-id="1,2,15" node-id="993" stroke="none" target-height="17.200012" target-width="15.200012" target-x="185.4" target-y="646.6"></path><path d="M 794.80 646.60 L 797.10 646.90 L 799.20 647.80 L 800.90 649.20 L 802.20 651.00 L 803.10 653.00 L 803.40 655.30 L 803.10 657.60 L 802.20 659.70 L 800.80 661.40 L 799.00 662.70 L 797.00 663.60 L 794.70 663.90 L 792.40 663.60 L 790.40 662.70 L 788.60 661.30 L 787.30 659.50 L 786.40 657.50 L 786.10 655.20 L 786.30 653.30 L 786.90 651.60 L 787.70 650.20 L 790.00 648.00 L 793.00 646.90 L 794.80 646.70 Z M 794.70 652.10 L 793.50 652.30 L 792.50 653.00 L 791.90 654.00 L 791.60 655.30 L 791.80 656.50 L 792.50 657.50 L 793.50 658.10 L 794.80 658.40 L 796.90 657.60 L 797.60 656.50 L 797.70 655.30 L 797.50 654.00 L 796.70 653.00 L 795.90 652.50 L 794.70 652.20 Z" fill="url(#SVGID_73_)" fill-rule="evenodd" group-id="1,2,15" node-id="995" stroke="none" target-height="17.300049" target-width="17.300049" target-x="786.1" target-y="646.6"></path></g><path d="M 834.80 318.00 L 837.80 318.20 L 843.10 319.70 L 845.60 321.00 L 848.60 323.10 L 851.10 325.70 L 853.20 328.70 L 854.50 331.20 L 855.90 336.60 L 856.10 339.60 L 855.90 342.60 L 854.40 347.90 L 853.10 350.40 L 851.00 353.40 L 848.40 355.90 L 845.40 358.00 L 842.90 359.30 L 837.50 360.70 L 834.50 360.90 L 831.50 360.70 L 826.20 359.20 L 823.70 357.90 L 820.70 355.80 L 818.20 353.20 L 816.10 350.20 L 814.80 347.70 L 813.40 342.30 L 813.20 339.30 L 813.40 336.40 L 814.90 331.00 L 816.20 328.60 L 818.30 325.60 L 820.80 323.10 L 823.80 321.00 L 826.20 319.70 L 831.60 318.20 L 834.80 318.00 Z M 834.60 324.60 L 831.90 324.90 L 829.40 325.60 L 827.10 326.70 L 825.00 328.20 L 823.30 330.00 L 821.80 332.10 L 820.70 334.40 L 820.10 336.90 L 819.80 339.60 L 820.10 342.30 L 820.80 344.80 L 821.90 347.10 L 823.40 349.20 L 825.20 350.90 L 827.30 352.40 L 829.60 353.50 L 832.10 354.10 L 834.80 354.40 L 837.50 354.10 L 840.00 353.40 L 842.30 352.30 L 844.40 350.80 L 846.10 349.00 L 847.60 346.90 L 848.70 344.60 L 849.30 342.10 L 849.60 339.40 L 849.30 336.70 L 848.60 334.30 L 847.50 332.00 L 846.10 329.90 L 844.30 328.20 L 842.30 326.70 L 840.00 325.60 L 837.50 324.90 L 834.60 324.60 Z M 838.00 347.30 L 837.70 348.60 L 837.00 349.60 L 836.00 350.30 L 834.70 350.60 L 833.40 350.30 L 832.40 349.60 L 831.70 348.60 L 831.40 347.30 L 831.40 340.90 L 831.70 339.60 L 832.40 338.60 L 833.40 337.90 L 834.70 337.60 L 836.00 337.90 L 837.00 338.60 L 837.70 339.60 L 838.00 340.90 L 838.00 347.30 Z M 838.00 331.90 L 837.70 333.20 L 837.00 334.20 L 836.00 334.90 L 834.70 335.20 L 833.40 335.00 L 832.40 334.20 L 831.70 333.10 L 831.40 331.90 L 831.70 330.60 L 832.40 329.60 L 833.40 328.90 L 834.70 328.60 L 836.00 328.80 L 837.00 329.60 L 837.80 330.60 L 838.00 331.90 Z" fill="#ffffff" fill-rule="evenodd" group-id="1,2" id="Info" node-id="328" stroke="none" target-height="42.899994" target-width="42.899963" target-x="813.2" target-y="318"></path><g node-id="1019"><path d="M 108.70 689.80 L 111.70 690.80 L 114.30 692.80 L 116.10 695.60 L 116.70 697.30 L 116.80 700.60 L 115.70 704.10 L 114.70 705.60 L 112.00 707.90 L 110.50 708.70 L 107.40 709.30 L 73.20 709.30 L 70.30 709.70 L 67.60 710.50 L 65.20 711.90 L 63.10 713.80 L 61.40 716.00 L 60.10 718.60 L 59.50 720.90 L 59.30 723.20 L 59.30 778.70 L 60.00 784.40 L 60.80 787.10 L 63.30 792.10 L 66.90 796.50 L 69.00 798.40 L 71.40 800.00 L 74.40 801.50 L 77.60 802.60 L 80.80 803.30 L 84.20 803.50 L 108.80 803.60 L 111.80 804.60 L 114.40 806.70 L 115.80 808.80 L 116.70 811.20 L 116.80 814.60 L 115.70 817.90 L 113.50 820.60 L 110.60 822.40 L 107.50 823.00 L 83.90 823.00 L 79.40 822.70 L 75.00 822.00 L 70.80 820.90 L 66.60 819.40 L 62.60 817.50 L 58.80 815.10 L 55.00 812.10 L 51.60 808.80 L 48.60 805.20 L 46.00 801.20 L 43.90 797.10 L 42.10 792.70 L 40.80 788.20 L 40.00 783.50 L 39.70 778.70 L 39.70 723.00 L 40.00 718.90 L 40.70 715.10 L 41.90 711.30 L 43.50 707.80 L 45.50 704.40 L 47.80 701.30 L 50.60 698.40 L 53.70 695.80 L 56.60 693.90 L 62.90 691.20 L 69.60 689.80 L 73.10 689.60 L 108.70 689.80 Z" fill="url(#SVGID_74_)" fill-rule="evenodd" group-id="1,2,16" node-id="1000" stroke="none" target-height="133.40002" target-width="77.100006" target-x="39.7" target-y="689.6"></path><path d="M 256.30 681.70 L 255.60 677.80 L 253.70 674.60 L 250.90 672.20 L 249.20 671.40 L 245.30 670.70 L 96.30 670.70 L 94.30 670.90 L 90.80 672.20 L 88.00 674.60 L 86.90 676.10 L 85.50 679.60 L 85.30 681.60 L 85.30 811.00 L 85.60 816.10 L 86.30 821.00 L 87.50 825.70 L 89.20 830.20 L 91.30 834.50 L 93.70 838.60 L 96.60 842.30 L 99.80 845.90 L 103.30 849.00 L 107.00 851.90 L 111.10 854.30 L 115.40 856.40 L 119.90 858.10 L 124.60 859.30 L 129.50 860.00 L 134.60 860.30 L 206.80 860.30 L 211.90 860.00 L 216.80 859.30 L 221.50 858.10 L 226.00 856.40 L 230.30 854.30 L 234.40 851.90 L 238.10 849.00 L 241.70 845.90 L 244.80 842.30 L 247.70 838.60 L 250.10 834.50 L 252.20 830.20 L 253.90 825.70 L 255.10 821.00 L 255.80 816.10 L 256.10 811.00 L 256.10 681.70 Z" fill="url(#SVGID_75_)" fill-rule="evenodd" group-id="1,2,16" node-id="1002" stroke="none" target-height="189.59998" target-width="170.99998" target-x="85.3" target-y="670.7"></path></g></g></g></svg>